%TF.GenerationSoftware,KiCad,Pcbnew,(5.1.7)-1*%
%TF.CreationDate,2020-12-15T13:18:25+01:00*%
%TF.ProjectId,panel_my_little_poly_v01,70616e65-6c5f-46d7-995f-6c6974746c65,rev?*%
%TF.SameCoordinates,Original*%
%TF.FileFunction,Copper,L2,Bot*%
%TF.FilePolarity,Positive*%
%FSLAX46Y46*%
G04 Gerber Fmt 4.6, Leading zero omitted, Abs format (unit mm)*
G04 Created by KiCad (PCBNEW (5.1.7)-1) date 2020-12-15 13:18:25*
%MOMM*%
%LPD*%
G01*
G04 APERTURE LIST*
%TA.AperFunction,ComponentPad*%
%ADD10C,0.800000*%
%TD*%
%TA.AperFunction,ComponentPad*%
%ADD11R,1.300000X1.300000*%
%TD*%
%TA.AperFunction,ComponentPad*%
%ADD12C,1.300000*%
%TD*%
%TA.AperFunction,ComponentPad*%
%ADD13O,2.900000X1.900000*%
%TD*%
%TA.AperFunction,ComponentPad*%
%ADD14O,1.900000X2.900000*%
%TD*%
%TA.AperFunction,ComponentPad*%
%ADD15C,0.600000*%
%TD*%
%TA.AperFunction,SMDPad,CuDef*%
%ADD16R,2.800000X2.300000*%
%TD*%
%TA.AperFunction,ComponentPad*%
%ADD17C,6.000000*%
%TD*%
%TA.AperFunction,ViaPad*%
%ADD18C,0.800000*%
%TD*%
%TA.AperFunction,Conductor*%
%ADD19C,0.300000*%
%TD*%
%TA.AperFunction,Conductor*%
%ADD20C,0.400000*%
%TD*%
%TA.AperFunction,Conductor*%
%ADD21C,0.254000*%
%TD*%
%TA.AperFunction,Conductor*%
%ADD22C,0.100000*%
%TD*%
G04 APERTURE END LIST*
D10*
%TO.P,U102,9*%
%TO.N,/Bat_minus*%
X61912000Y-29728500D03*
X60512000Y-29728500D03*
X60512000Y-27528500D03*
X61912000Y-27528500D03*
X61212000Y-28628500D03*
%TD*%
D11*
%TO.P,J105,1*%
%TO.N,/Vout*%
X110615000Y-37201000D03*
D12*
%TO.P,J105,2*%
%TO.N,Net-(J105-Pad2)*%
X110615000Y-34701000D03*
%TO.P,J105,3*%
%TO.N,Net-(J105-Pad3)*%
X110615000Y-32701000D03*
%TO.P,J105,4*%
%TO.N,GND*%
X110615000Y-30201000D03*
D13*
%TO.P,J105,5*%
%TO.N,N/C*%
X110015000Y-40271000D03*
X110015000Y-27131000D03*
D14*
X105835000Y-33701000D03*
%TD*%
D11*
%TO.P,J104,1*%
%TO.N,/Vout*%
X100582000Y-37201000D03*
D12*
%TO.P,J104,2*%
%TO.N,Net-(J104-Pad2)*%
X100582000Y-34701000D03*
%TO.P,J104,3*%
%TO.N,Net-(J104-Pad3)*%
X100582000Y-32701000D03*
%TO.P,J104,4*%
%TO.N,GND*%
X100582000Y-30201000D03*
D13*
%TO.P,J104,5*%
%TO.N,N/C*%
X99982000Y-40271000D03*
X99982000Y-27131000D03*
D14*
X95802000Y-33701000D03*
%TD*%
D11*
%TO.P,J103,1*%
%TO.N,/Vout*%
X90549000Y-37201000D03*
D12*
%TO.P,J103,2*%
%TO.N,Net-(J103-Pad2)*%
X90549000Y-34701000D03*
%TO.P,J103,3*%
%TO.N,Net-(J103-Pad3)*%
X90549000Y-32701000D03*
%TO.P,J103,4*%
%TO.N,GND*%
X90549000Y-30201000D03*
D13*
%TO.P,J103,5*%
%TO.N,N/C*%
X89949000Y-40271000D03*
X89949000Y-27131000D03*
D14*
X85769000Y-33701000D03*
%TD*%
D11*
%TO.P,J102,1*%
%TO.N,/Vout*%
X80389000Y-37201000D03*
D12*
%TO.P,J102,2*%
%TO.N,Net-(J102-Pad2)*%
X80389000Y-34701000D03*
%TO.P,J102,3*%
%TO.N,Net-(J102-Pad3)*%
X80389000Y-32701000D03*
%TO.P,J102,4*%
%TO.N,GND*%
X80389000Y-30201000D03*
D13*
%TO.P,J102,5*%
%TO.N,N/C*%
X79789000Y-40271000D03*
X79789000Y-27131000D03*
D14*
X75609000Y-33701000D03*
%TD*%
D15*
%TO.P,U101,11*%
%TO.N,GND*%
X69090000Y-33067000D03*
X68340000Y-33567000D03*
X67590000Y-33067000D03*
X67590000Y-34067000D03*
X69090000Y-34067000D03*
D16*
X68340000Y-33567000D03*
%TD*%
D17*
%TO.P,J101,2*%
%TO.N,/Vin*%
X58506000Y-36312000D03*
%TO.P,J101,1*%
%TO.N,/Bat_minus*%
%TA.AperFunction,ComponentPad*%
G36*
G01*
X48306000Y-37812000D02*
X48306000Y-34812000D01*
G75*
G02*
X49806000Y-33312000I1500000J0D01*
G01*
X52806000Y-33312000D01*
G75*
G02*
X54306000Y-34812000I0J-1500000D01*
G01*
X54306000Y-37812000D01*
G75*
G02*
X52806000Y-39312000I-1500000J0D01*
G01*
X49806000Y-39312000D01*
G75*
G02*
X48306000Y-37812000I0J1500000D01*
G01*
G37*
%TD.AperFunction*%
%TD*%
D10*
%TO.P,U102,9*%
%TO.N,/Bat_minus*%
X48912000Y-65728500D03*
X47512000Y-65728500D03*
X47512000Y-63528500D03*
X48912000Y-63528500D03*
X48212000Y-64628500D03*
%TD*%
D11*
%TO.P,J105,1*%
%TO.N,/Vout*%
X97615000Y-73201000D03*
D12*
%TO.P,J105,2*%
%TO.N,Net-(J105-Pad2)*%
X97615000Y-70701000D03*
%TO.P,J105,3*%
%TO.N,Net-(J105-Pad3)*%
X97615000Y-68701000D03*
%TO.P,J105,4*%
%TO.N,GND*%
X97615000Y-66201000D03*
D13*
%TO.P,J105,5*%
%TO.N,N/C*%
X97015000Y-76271000D03*
X97015000Y-63131000D03*
D14*
X92835000Y-69701000D03*
%TD*%
D11*
%TO.P,J104,1*%
%TO.N,/Vout*%
X87582000Y-73201000D03*
D12*
%TO.P,J104,2*%
%TO.N,Net-(J104-Pad2)*%
X87582000Y-70701000D03*
%TO.P,J104,3*%
%TO.N,Net-(J104-Pad3)*%
X87582000Y-68701000D03*
%TO.P,J104,4*%
%TO.N,GND*%
X87582000Y-66201000D03*
D13*
%TO.P,J104,5*%
%TO.N,N/C*%
X86982000Y-76271000D03*
X86982000Y-63131000D03*
D14*
X82802000Y-69701000D03*
%TD*%
D11*
%TO.P,J103,1*%
%TO.N,/Vout*%
X77549000Y-73201000D03*
D12*
%TO.P,J103,2*%
%TO.N,Net-(J103-Pad2)*%
X77549000Y-70701000D03*
%TO.P,J103,3*%
%TO.N,Net-(J103-Pad3)*%
X77549000Y-68701000D03*
%TO.P,J103,4*%
%TO.N,GND*%
X77549000Y-66201000D03*
D13*
%TO.P,J103,5*%
%TO.N,N/C*%
X76949000Y-76271000D03*
X76949000Y-63131000D03*
D14*
X72769000Y-69701000D03*
%TD*%
D11*
%TO.P,J102,1*%
%TO.N,/Vout*%
X67389000Y-73201000D03*
D12*
%TO.P,J102,2*%
%TO.N,Net-(J102-Pad2)*%
X67389000Y-70701000D03*
%TO.P,J102,3*%
%TO.N,Net-(J102-Pad3)*%
X67389000Y-68701000D03*
%TO.P,J102,4*%
%TO.N,GND*%
X67389000Y-66201000D03*
D13*
%TO.P,J102,5*%
%TO.N,N/C*%
X66789000Y-76271000D03*
X66789000Y-63131000D03*
D14*
X62609000Y-69701000D03*
%TD*%
D15*
%TO.P,U101,11*%
%TO.N,GND*%
X56090000Y-69067000D03*
X55340000Y-69567000D03*
X54590000Y-69067000D03*
X54590000Y-70067000D03*
X56090000Y-70067000D03*
D16*
X55340000Y-69567000D03*
%TD*%
D17*
%TO.P,J101,2*%
%TO.N,/Vin*%
X45506000Y-72312000D03*
%TO.P,J101,1*%
%TO.N,/Bat_minus*%
%TA.AperFunction,ComponentPad*%
G36*
G01*
X35306000Y-73812000D02*
X35306000Y-70812000D01*
G75*
G02*
X36806000Y-69312000I1500000J0D01*
G01*
X39806000Y-69312000D01*
G75*
G02*
X41306000Y-70812000I0J-1500000D01*
G01*
X41306000Y-73812000D01*
G75*
G02*
X39806000Y-75312000I-1500000J0D01*
G01*
X36806000Y-75312000D01*
G75*
G02*
X35306000Y-73812000I0J1500000D01*
G01*
G37*
%TD.AperFunction*%
%TD*%
D18*
%TO.N,GND*%
X73150000Y-30279500D03*
X73150000Y-29390500D03*
X73150000Y-28501500D03*
X83945000Y-32248000D03*
X83945000Y-29962000D03*
X83945000Y-31105000D03*
X94105000Y-32248000D03*
X94105000Y-31105000D03*
X94105000Y-29962000D03*
X104011000Y-32248000D03*
X104011000Y-31105000D03*
X104011000Y-29962000D03*
X73150000Y-33264000D03*
X73150000Y-34153000D03*
X66136500Y-29263500D03*
X66141500Y-28058500D03*
X66141500Y-26723500D03*
X73150000Y-27295000D03*
X70610000Y-26660000D03*
X69340000Y-26660000D03*
X67435000Y-27930000D03*
X111600000Y-31400000D03*
X111600000Y-28800000D03*
X60150000Y-66279500D03*
X60150000Y-65390500D03*
X60150000Y-64501500D03*
X70945000Y-68248000D03*
X70945000Y-65962000D03*
X70945000Y-67105000D03*
X81105000Y-68248000D03*
X81105000Y-67105000D03*
X81105000Y-65962000D03*
X91011000Y-68248000D03*
X91011000Y-67105000D03*
X91011000Y-65962000D03*
X60150000Y-69264000D03*
X60150000Y-70153000D03*
X53136500Y-65263500D03*
X53141500Y-64058500D03*
X53141500Y-62723500D03*
X60150000Y-63295000D03*
X57610000Y-62660000D03*
X56340000Y-62660000D03*
X54435000Y-63930000D03*
X98600000Y-67400000D03*
X98600000Y-64800000D03*
%TO.N,Net-(R103-Pad2)*%
X70102000Y-35296000D03*
X69213000Y-37836000D03*
X57102000Y-71296000D03*
X56213000Y-73836000D03*
%TO.N,/Vout*%
X73086500Y-35867500D03*
X73975500Y-35867500D03*
X73975500Y-36756500D03*
X71943500Y-27358500D03*
X82357500Y-37518500D03*
X83754500Y-37518500D03*
X92517500Y-37518500D03*
X93914500Y-37518500D03*
X102550500Y-37518500D03*
X103947500Y-37518500D03*
X109100000Y-36100000D03*
X109100000Y-37600000D03*
X99100000Y-37700000D03*
X99100000Y-36100000D03*
X89000000Y-37600000D03*
X89000000Y-36100000D03*
X78800000Y-36100000D03*
X78800000Y-37600000D03*
X60086500Y-71867500D03*
X60975500Y-71867500D03*
X60975500Y-72756500D03*
X58943500Y-63358500D03*
X69357500Y-73518500D03*
X70754500Y-73518500D03*
X79517500Y-73518500D03*
X80914500Y-73518500D03*
X89550500Y-73518500D03*
X90947500Y-73518500D03*
X96100000Y-72100000D03*
X96100000Y-73600000D03*
X86100000Y-73700000D03*
X86100000Y-72100000D03*
X76000000Y-73600000D03*
X76000000Y-72100000D03*
X65800000Y-72100000D03*
X65800000Y-73600000D03*
%TO.N,/Bat_minus*%
X55116000Y-29454000D03*
X55116000Y-30470000D03*
X55116000Y-31486000D03*
X53592000Y-30978000D03*
X53592000Y-29962000D03*
X53592000Y-31994000D03*
X42116000Y-65454000D03*
X42116000Y-66470000D03*
X42116000Y-67486000D03*
X40592000Y-66978000D03*
X40592000Y-65962000D03*
X40592000Y-67994000D03*
%TD*%
D19*
%TO.N,Net-(R103-Pad2)*%
X70102000Y-35296000D02*
X69213000Y-36185000D01*
X69213000Y-36185000D02*
X69213000Y-37836000D01*
X57102000Y-71296000D02*
X56213000Y-72185000D01*
X56213000Y-72185000D02*
X56213000Y-73836000D01*
D20*
%TO.N,/Vout*%
X71943500Y-34724500D02*
X73086500Y-35867500D01*
X71943500Y-27358500D02*
X71943500Y-34724500D01*
X58943500Y-70724500D02*
X60086500Y-71867500D01*
X58943500Y-63358500D02*
X58943500Y-70724500D01*
%TD*%
D21*
%TO.N,/Vout*%
X75348078Y-35512741D02*
X75609000Y-35538440D01*
X75869921Y-35512741D01*
X75956426Y-35486500D01*
X79716446Y-35486500D01*
X79731776Y-35501830D01*
X79900638Y-35614661D01*
X80088268Y-35692380D01*
X80287455Y-35732000D01*
X80490545Y-35732000D01*
X80689732Y-35692380D01*
X80877362Y-35614661D01*
X81046224Y-35501830D01*
X81061554Y-35486500D01*
X85421573Y-35486500D01*
X85508078Y-35512741D01*
X85769000Y-35538440D01*
X86029921Y-35512741D01*
X86116426Y-35486500D01*
X89876446Y-35486500D01*
X89891776Y-35501830D01*
X90060638Y-35614661D01*
X90248268Y-35692380D01*
X90447455Y-35732000D01*
X90650545Y-35732000D01*
X90849732Y-35692380D01*
X91037362Y-35614661D01*
X91206224Y-35501830D01*
X91221554Y-35486500D01*
X95454573Y-35486500D01*
X95541078Y-35512741D01*
X95802000Y-35538440D01*
X96062921Y-35512741D01*
X96149426Y-35486500D01*
X99909446Y-35486500D01*
X99924776Y-35501830D01*
X100093638Y-35614661D01*
X100281268Y-35692380D01*
X100480455Y-35732000D01*
X100683545Y-35732000D01*
X100882732Y-35692380D01*
X101070362Y-35614661D01*
X101239224Y-35501830D01*
X101254554Y-35486500D01*
X105487573Y-35486500D01*
X105574078Y-35512741D01*
X105835000Y-35538440D01*
X106095921Y-35512741D01*
X106182426Y-35486500D01*
X109942446Y-35486500D01*
X109957776Y-35501830D01*
X110126638Y-35614661D01*
X110314268Y-35692380D01*
X110513455Y-35732000D01*
X110716545Y-35732000D01*
X110915732Y-35692380D01*
X111103362Y-35614661D01*
X111272224Y-35501830D01*
X111287554Y-35486500D01*
X111885000Y-35486500D01*
X111885000Y-41519000D01*
X110986048Y-41519000D01*
X111026816Y-41506633D01*
X111258042Y-41383041D01*
X111460713Y-41216713D01*
X111627041Y-41014042D01*
X111750633Y-40782816D01*
X111826741Y-40531922D01*
X111852440Y-40271000D01*
X111826741Y-40010078D01*
X111750633Y-39759184D01*
X111627041Y-39527958D01*
X111460713Y-39325287D01*
X111258042Y-39158959D01*
X111026816Y-39035367D01*
X110775922Y-38959259D01*
X110580385Y-38940000D01*
X109449615Y-38940000D01*
X109254078Y-38959259D01*
X109003184Y-39035367D01*
X108771958Y-39158959D01*
X108569287Y-39325287D01*
X108402959Y-39527958D01*
X108279367Y-39759184D01*
X108203259Y-40010078D01*
X108177560Y-40271000D01*
X108203259Y-40531922D01*
X108279367Y-40782816D01*
X108402959Y-41014042D01*
X108569287Y-41216713D01*
X108771958Y-41383041D01*
X109003184Y-41506633D01*
X109043952Y-41519000D01*
X100953048Y-41519000D01*
X100993816Y-41506633D01*
X101225042Y-41383041D01*
X101427713Y-41216713D01*
X101594041Y-41014042D01*
X101717633Y-40782816D01*
X101793741Y-40531922D01*
X101819440Y-40271000D01*
X101793741Y-40010078D01*
X101717633Y-39759184D01*
X101594041Y-39527958D01*
X101427713Y-39325287D01*
X101225042Y-39158959D01*
X100993816Y-39035367D01*
X100742922Y-38959259D01*
X100547385Y-38940000D01*
X99416615Y-38940000D01*
X99221078Y-38959259D01*
X98970184Y-39035367D01*
X98738958Y-39158959D01*
X98536287Y-39325287D01*
X98369959Y-39527958D01*
X98246367Y-39759184D01*
X98170259Y-40010078D01*
X98144560Y-40271000D01*
X98170259Y-40531922D01*
X98246367Y-40782816D01*
X98369959Y-41014042D01*
X98536287Y-41216713D01*
X98738958Y-41383041D01*
X98970184Y-41506633D01*
X99010952Y-41519000D01*
X90920048Y-41519000D01*
X90960816Y-41506633D01*
X91192042Y-41383041D01*
X91394713Y-41216713D01*
X91561041Y-41014042D01*
X91684633Y-40782816D01*
X91760741Y-40531922D01*
X91786440Y-40271000D01*
X91760741Y-40010078D01*
X91684633Y-39759184D01*
X91561041Y-39527958D01*
X91394713Y-39325287D01*
X91192042Y-39158959D01*
X90960816Y-39035367D01*
X90709922Y-38959259D01*
X90514385Y-38940000D01*
X89383615Y-38940000D01*
X89188078Y-38959259D01*
X88937184Y-39035367D01*
X88705958Y-39158959D01*
X88503287Y-39325287D01*
X88336959Y-39527958D01*
X88213367Y-39759184D01*
X88137259Y-40010078D01*
X88111560Y-40271000D01*
X88137259Y-40531922D01*
X88213367Y-40782816D01*
X88336959Y-41014042D01*
X88503287Y-41216713D01*
X88705958Y-41383041D01*
X88937184Y-41506633D01*
X88977952Y-41519000D01*
X80760048Y-41519000D01*
X80800816Y-41506633D01*
X81032042Y-41383041D01*
X81234713Y-41216713D01*
X81401041Y-41014042D01*
X81524633Y-40782816D01*
X81600741Y-40531922D01*
X81626440Y-40271000D01*
X81600741Y-40010078D01*
X81524633Y-39759184D01*
X81401041Y-39527958D01*
X81234713Y-39325287D01*
X81032042Y-39158959D01*
X80800816Y-39035367D01*
X80549922Y-38959259D01*
X80354385Y-38940000D01*
X79223615Y-38940000D01*
X79028078Y-38959259D01*
X78777184Y-39035367D01*
X78545958Y-39158959D01*
X78343287Y-39325287D01*
X78176959Y-39527958D01*
X78053367Y-39759184D01*
X77977259Y-40010078D01*
X77951560Y-40271000D01*
X77977259Y-40531922D01*
X78053367Y-40782816D01*
X78176959Y-41014042D01*
X78343287Y-41216713D01*
X78545958Y-41383041D01*
X78777184Y-41506633D01*
X78817952Y-41519000D01*
X76051292Y-41519000D01*
X76013773Y-41462848D01*
X75787152Y-41236227D01*
X75520673Y-41058172D01*
X75224578Y-40935525D01*
X74910245Y-40873000D01*
X74589755Y-40873000D01*
X74275422Y-40935525D01*
X74250000Y-40946055D01*
X74224578Y-40935525D01*
X73910245Y-40873000D01*
X73636106Y-40873000D01*
X72451500Y-39688394D01*
X72451500Y-37851000D01*
X79356157Y-37851000D01*
X79363513Y-37925689D01*
X79385299Y-37997508D01*
X79420678Y-38063696D01*
X79468289Y-38121711D01*
X79526304Y-38169322D01*
X79592492Y-38204701D01*
X79664311Y-38226487D01*
X79739000Y-38233843D01*
X80166750Y-38232000D01*
X80262000Y-38136750D01*
X80262000Y-37328000D01*
X80516000Y-37328000D01*
X80516000Y-38136750D01*
X80611250Y-38232000D01*
X81039000Y-38233843D01*
X81113689Y-38226487D01*
X81185508Y-38204701D01*
X81251696Y-38169322D01*
X81309711Y-38121711D01*
X81357322Y-38063696D01*
X81392701Y-37997508D01*
X81414487Y-37925689D01*
X81421843Y-37851000D01*
X89516157Y-37851000D01*
X89523513Y-37925689D01*
X89545299Y-37997508D01*
X89580678Y-38063696D01*
X89628289Y-38121711D01*
X89686304Y-38169322D01*
X89752492Y-38204701D01*
X89824311Y-38226487D01*
X89899000Y-38233843D01*
X90326750Y-38232000D01*
X90422000Y-38136750D01*
X90422000Y-37328000D01*
X90676000Y-37328000D01*
X90676000Y-38136750D01*
X90771250Y-38232000D01*
X91199000Y-38233843D01*
X91273689Y-38226487D01*
X91345508Y-38204701D01*
X91411696Y-38169322D01*
X91469711Y-38121711D01*
X91517322Y-38063696D01*
X91552701Y-37997508D01*
X91574487Y-37925689D01*
X91581843Y-37851000D01*
X99549157Y-37851000D01*
X99556513Y-37925689D01*
X99578299Y-37997508D01*
X99613678Y-38063696D01*
X99661289Y-38121711D01*
X99719304Y-38169322D01*
X99785492Y-38204701D01*
X99857311Y-38226487D01*
X99932000Y-38233843D01*
X100359750Y-38232000D01*
X100455000Y-38136750D01*
X100455000Y-37328000D01*
X100709000Y-37328000D01*
X100709000Y-38136750D01*
X100804250Y-38232000D01*
X101232000Y-38233843D01*
X101306689Y-38226487D01*
X101378508Y-38204701D01*
X101444696Y-38169322D01*
X101502711Y-38121711D01*
X101550322Y-38063696D01*
X101585701Y-37997508D01*
X101607487Y-37925689D01*
X101614843Y-37851000D01*
X109582157Y-37851000D01*
X109589513Y-37925689D01*
X109611299Y-37997508D01*
X109646678Y-38063696D01*
X109694289Y-38121711D01*
X109752304Y-38169322D01*
X109818492Y-38204701D01*
X109890311Y-38226487D01*
X109965000Y-38233843D01*
X110392750Y-38232000D01*
X110488000Y-38136750D01*
X110488000Y-37328000D01*
X110742000Y-37328000D01*
X110742000Y-38136750D01*
X110837250Y-38232000D01*
X111265000Y-38233843D01*
X111339689Y-38226487D01*
X111411508Y-38204701D01*
X111477696Y-38169322D01*
X111535711Y-38121711D01*
X111583322Y-38063696D01*
X111618701Y-37997508D01*
X111640487Y-37925689D01*
X111647843Y-37851000D01*
X111646000Y-37423250D01*
X111550750Y-37328000D01*
X110742000Y-37328000D01*
X110488000Y-37328000D01*
X109679250Y-37328000D01*
X109584000Y-37423250D01*
X109582157Y-37851000D01*
X101614843Y-37851000D01*
X101613000Y-37423250D01*
X101517750Y-37328000D01*
X100709000Y-37328000D01*
X100455000Y-37328000D01*
X99646250Y-37328000D01*
X99551000Y-37423250D01*
X99549157Y-37851000D01*
X91581843Y-37851000D01*
X91580000Y-37423250D01*
X91484750Y-37328000D01*
X90676000Y-37328000D01*
X90422000Y-37328000D01*
X89613250Y-37328000D01*
X89518000Y-37423250D01*
X89516157Y-37851000D01*
X81421843Y-37851000D01*
X81420000Y-37423250D01*
X81324750Y-37328000D01*
X80516000Y-37328000D01*
X80262000Y-37328000D01*
X79453250Y-37328000D01*
X79358000Y-37423250D01*
X79356157Y-37851000D01*
X72451500Y-37851000D01*
X72451500Y-36551000D01*
X79356157Y-36551000D01*
X79358000Y-36978750D01*
X79453250Y-37074000D01*
X80262000Y-37074000D01*
X80262000Y-36265250D01*
X80516000Y-36265250D01*
X80516000Y-37074000D01*
X81324750Y-37074000D01*
X81420000Y-36978750D01*
X81421843Y-36551000D01*
X89516157Y-36551000D01*
X89518000Y-36978750D01*
X89613250Y-37074000D01*
X90422000Y-37074000D01*
X90422000Y-36265250D01*
X90676000Y-36265250D01*
X90676000Y-37074000D01*
X91484750Y-37074000D01*
X91580000Y-36978750D01*
X91581843Y-36551000D01*
X99549157Y-36551000D01*
X99551000Y-36978750D01*
X99646250Y-37074000D01*
X100455000Y-37074000D01*
X100455000Y-36265250D01*
X100709000Y-36265250D01*
X100709000Y-37074000D01*
X101517750Y-37074000D01*
X101613000Y-36978750D01*
X101614843Y-36551000D01*
X109582157Y-36551000D01*
X109584000Y-36978750D01*
X109679250Y-37074000D01*
X110488000Y-37074000D01*
X110488000Y-36265250D01*
X110742000Y-36265250D01*
X110742000Y-37074000D01*
X111550750Y-37074000D01*
X111646000Y-36978750D01*
X111647843Y-36551000D01*
X111640487Y-36476311D01*
X111618701Y-36404492D01*
X111583322Y-36338304D01*
X111535711Y-36280289D01*
X111477696Y-36232678D01*
X111411508Y-36197299D01*
X111339689Y-36175513D01*
X111265000Y-36168157D01*
X110837250Y-36170000D01*
X110742000Y-36265250D01*
X110488000Y-36265250D01*
X110392750Y-36170000D01*
X109965000Y-36168157D01*
X109890311Y-36175513D01*
X109818492Y-36197299D01*
X109752304Y-36232678D01*
X109694289Y-36280289D01*
X109646678Y-36338304D01*
X109611299Y-36404492D01*
X109589513Y-36476311D01*
X109582157Y-36551000D01*
X101614843Y-36551000D01*
X101607487Y-36476311D01*
X101585701Y-36404492D01*
X101550322Y-36338304D01*
X101502711Y-36280289D01*
X101444696Y-36232678D01*
X101378508Y-36197299D01*
X101306689Y-36175513D01*
X101232000Y-36168157D01*
X100804250Y-36170000D01*
X100709000Y-36265250D01*
X100455000Y-36265250D01*
X100359750Y-36170000D01*
X99932000Y-36168157D01*
X99857311Y-36175513D01*
X99785492Y-36197299D01*
X99719304Y-36232678D01*
X99661289Y-36280289D01*
X99613678Y-36338304D01*
X99578299Y-36404492D01*
X99556513Y-36476311D01*
X99549157Y-36551000D01*
X91581843Y-36551000D01*
X91574487Y-36476311D01*
X91552701Y-36404492D01*
X91517322Y-36338304D01*
X91469711Y-36280289D01*
X91411696Y-36232678D01*
X91345508Y-36197299D01*
X91273689Y-36175513D01*
X91199000Y-36168157D01*
X90771250Y-36170000D01*
X90676000Y-36265250D01*
X90422000Y-36265250D01*
X90326750Y-36170000D01*
X89899000Y-36168157D01*
X89824311Y-36175513D01*
X89752492Y-36197299D01*
X89686304Y-36232678D01*
X89628289Y-36280289D01*
X89580678Y-36338304D01*
X89545299Y-36404492D01*
X89523513Y-36476311D01*
X89516157Y-36551000D01*
X81421843Y-36551000D01*
X81414487Y-36476311D01*
X81392701Y-36404492D01*
X81357322Y-36338304D01*
X81309711Y-36280289D01*
X81251696Y-36232678D01*
X81185508Y-36197299D01*
X81113689Y-36175513D01*
X81039000Y-36168157D01*
X80611250Y-36170000D01*
X80516000Y-36265250D01*
X80262000Y-36265250D01*
X80166750Y-36170000D01*
X79739000Y-36168157D01*
X79664311Y-36175513D01*
X79592492Y-36197299D01*
X79526304Y-36232678D01*
X79468289Y-36280289D01*
X79420678Y-36338304D01*
X79385299Y-36404492D01*
X79363513Y-36476311D01*
X79356157Y-36551000D01*
X72451500Y-36551000D01*
X72451500Y-35486500D01*
X75261573Y-35486500D01*
X75348078Y-35512741D01*
%TA.AperFunction,Conductor*%
D22*
G36*
X75348078Y-35512741D02*
G01*
X75609000Y-35538440D01*
X75869921Y-35512741D01*
X75956426Y-35486500D01*
X79716446Y-35486500D01*
X79731776Y-35501830D01*
X79900638Y-35614661D01*
X80088268Y-35692380D01*
X80287455Y-35732000D01*
X80490545Y-35732000D01*
X80689732Y-35692380D01*
X80877362Y-35614661D01*
X81046224Y-35501830D01*
X81061554Y-35486500D01*
X85421573Y-35486500D01*
X85508078Y-35512741D01*
X85769000Y-35538440D01*
X86029921Y-35512741D01*
X86116426Y-35486500D01*
X89876446Y-35486500D01*
X89891776Y-35501830D01*
X90060638Y-35614661D01*
X90248268Y-35692380D01*
X90447455Y-35732000D01*
X90650545Y-35732000D01*
X90849732Y-35692380D01*
X91037362Y-35614661D01*
X91206224Y-35501830D01*
X91221554Y-35486500D01*
X95454573Y-35486500D01*
X95541078Y-35512741D01*
X95802000Y-35538440D01*
X96062921Y-35512741D01*
X96149426Y-35486500D01*
X99909446Y-35486500D01*
X99924776Y-35501830D01*
X100093638Y-35614661D01*
X100281268Y-35692380D01*
X100480455Y-35732000D01*
X100683545Y-35732000D01*
X100882732Y-35692380D01*
X101070362Y-35614661D01*
X101239224Y-35501830D01*
X101254554Y-35486500D01*
X105487573Y-35486500D01*
X105574078Y-35512741D01*
X105835000Y-35538440D01*
X106095921Y-35512741D01*
X106182426Y-35486500D01*
X109942446Y-35486500D01*
X109957776Y-35501830D01*
X110126638Y-35614661D01*
X110314268Y-35692380D01*
X110513455Y-35732000D01*
X110716545Y-35732000D01*
X110915732Y-35692380D01*
X111103362Y-35614661D01*
X111272224Y-35501830D01*
X111287554Y-35486500D01*
X111885000Y-35486500D01*
X111885000Y-41519000D01*
X110986048Y-41519000D01*
X111026816Y-41506633D01*
X111258042Y-41383041D01*
X111460713Y-41216713D01*
X111627041Y-41014042D01*
X111750633Y-40782816D01*
X111826741Y-40531922D01*
X111852440Y-40271000D01*
X111826741Y-40010078D01*
X111750633Y-39759184D01*
X111627041Y-39527958D01*
X111460713Y-39325287D01*
X111258042Y-39158959D01*
X111026816Y-39035367D01*
X110775922Y-38959259D01*
X110580385Y-38940000D01*
X109449615Y-38940000D01*
X109254078Y-38959259D01*
X109003184Y-39035367D01*
X108771958Y-39158959D01*
X108569287Y-39325287D01*
X108402959Y-39527958D01*
X108279367Y-39759184D01*
X108203259Y-40010078D01*
X108177560Y-40271000D01*
X108203259Y-40531922D01*
X108279367Y-40782816D01*
X108402959Y-41014042D01*
X108569287Y-41216713D01*
X108771958Y-41383041D01*
X109003184Y-41506633D01*
X109043952Y-41519000D01*
X100953048Y-41519000D01*
X100993816Y-41506633D01*
X101225042Y-41383041D01*
X101427713Y-41216713D01*
X101594041Y-41014042D01*
X101717633Y-40782816D01*
X101793741Y-40531922D01*
X101819440Y-40271000D01*
X101793741Y-40010078D01*
X101717633Y-39759184D01*
X101594041Y-39527958D01*
X101427713Y-39325287D01*
X101225042Y-39158959D01*
X100993816Y-39035367D01*
X100742922Y-38959259D01*
X100547385Y-38940000D01*
X99416615Y-38940000D01*
X99221078Y-38959259D01*
X98970184Y-39035367D01*
X98738958Y-39158959D01*
X98536287Y-39325287D01*
X98369959Y-39527958D01*
X98246367Y-39759184D01*
X98170259Y-40010078D01*
X98144560Y-40271000D01*
X98170259Y-40531922D01*
X98246367Y-40782816D01*
X98369959Y-41014042D01*
X98536287Y-41216713D01*
X98738958Y-41383041D01*
X98970184Y-41506633D01*
X99010952Y-41519000D01*
X90920048Y-41519000D01*
X90960816Y-41506633D01*
X91192042Y-41383041D01*
X91394713Y-41216713D01*
X91561041Y-41014042D01*
X91684633Y-40782816D01*
X91760741Y-40531922D01*
X91786440Y-40271000D01*
X91760741Y-40010078D01*
X91684633Y-39759184D01*
X91561041Y-39527958D01*
X91394713Y-39325287D01*
X91192042Y-39158959D01*
X90960816Y-39035367D01*
X90709922Y-38959259D01*
X90514385Y-38940000D01*
X89383615Y-38940000D01*
X89188078Y-38959259D01*
X88937184Y-39035367D01*
X88705958Y-39158959D01*
X88503287Y-39325287D01*
X88336959Y-39527958D01*
X88213367Y-39759184D01*
X88137259Y-40010078D01*
X88111560Y-40271000D01*
X88137259Y-40531922D01*
X88213367Y-40782816D01*
X88336959Y-41014042D01*
X88503287Y-41216713D01*
X88705958Y-41383041D01*
X88937184Y-41506633D01*
X88977952Y-41519000D01*
X80760048Y-41519000D01*
X80800816Y-41506633D01*
X81032042Y-41383041D01*
X81234713Y-41216713D01*
X81401041Y-41014042D01*
X81524633Y-40782816D01*
X81600741Y-40531922D01*
X81626440Y-40271000D01*
X81600741Y-40010078D01*
X81524633Y-39759184D01*
X81401041Y-39527958D01*
X81234713Y-39325287D01*
X81032042Y-39158959D01*
X80800816Y-39035367D01*
X80549922Y-38959259D01*
X80354385Y-38940000D01*
X79223615Y-38940000D01*
X79028078Y-38959259D01*
X78777184Y-39035367D01*
X78545958Y-39158959D01*
X78343287Y-39325287D01*
X78176959Y-39527958D01*
X78053367Y-39759184D01*
X77977259Y-40010078D01*
X77951560Y-40271000D01*
X77977259Y-40531922D01*
X78053367Y-40782816D01*
X78176959Y-41014042D01*
X78343287Y-41216713D01*
X78545958Y-41383041D01*
X78777184Y-41506633D01*
X78817952Y-41519000D01*
X76051292Y-41519000D01*
X76013773Y-41462848D01*
X75787152Y-41236227D01*
X75520673Y-41058172D01*
X75224578Y-40935525D01*
X74910245Y-40873000D01*
X74589755Y-40873000D01*
X74275422Y-40935525D01*
X74250000Y-40946055D01*
X74224578Y-40935525D01*
X73910245Y-40873000D01*
X73636106Y-40873000D01*
X72451500Y-39688394D01*
X72451500Y-37851000D01*
X79356157Y-37851000D01*
X79363513Y-37925689D01*
X79385299Y-37997508D01*
X79420678Y-38063696D01*
X79468289Y-38121711D01*
X79526304Y-38169322D01*
X79592492Y-38204701D01*
X79664311Y-38226487D01*
X79739000Y-38233843D01*
X80166750Y-38232000D01*
X80262000Y-38136750D01*
X80262000Y-37328000D01*
X80516000Y-37328000D01*
X80516000Y-38136750D01*
X80611250Y-38232000D01*
X81039000Y-38233843D01*
X81113689Y-38226487D01*
X81185508Y-38204701D01*
X81251696Y-38169322D01*
X81309711Y-38121711D01*
X81357322Y-38063696D01*
X81392701Y-37997508D01*
X81414487Y-37925689D01*
X81421843Y-37851000D01*
X89516157Y-37851000D01*
X89523513Y-37925689D01*
X89545299Y-37997508D01*
X89580678Y-38063696D01*
X89628289Y-38121711D01*
X89686304Y-38169322D01*
X89752492Y-38204701D01*
X89824311Y-38226487D01*
X89899000Y-38233843D01*
X90326750Y-38232000D01*
X90422000Y-38136750D01*
X90422000Y-37328000D01*
X90676000Y-37328000D01*
X90676000Y-38136750D01*
X90771250Y-38232000D01*
X91199000Y-38233843D01*
X91273689Y-38226487D01*
X91345508Y-38204701D01*
X91411696Y-38169322D01*
X91469711Y-38121711D01*
X91517322Y-38063696D01*
X91552701Y-37997508D01*
X91574487Y-37925689D01*
X91581843Y-37851000D01*
X99549157Y-37851000D01*
X99556513Y-37925689D01*
X99578299Y-37997508D01*
X99613678Y-38063696D01*
X99661289Y-38121711D01*
X99719304Y-38169322D01*
X99785492Y-38204701D01*
X99857311Y-38226487D01*
X99932000Y-38233843D01*
X100359750Y-38232000D01*
X100455000Y-38136750D01*
X100455000Y-37328000D01*
X100709000Y-37328000D01*
X100709000Y-38136750D01*
X100804250Y-38232000D01*
X101232000Y-38233843D01*
X101306689Y-38226487D01*
X101378508Y-38204701D01*
X101444696Y-38169322D01*
X101502711Y-38121711D01*
X101550322Y-38063696D01*
X101585701Y-37997508D01*
X101607487Y-37925689D01*
X101614843Y-37851000D01*
X109582157Y-37851000D01*
X109589513Y-37925689D01*
X109611299Y-37997508D01*
X109646678Y-38063696D01*
X109694289Y-38121711D01*
X109752304Y-38169322D01*
X109818492Y-38204701D01*
X109890311Y-38226487D01*
X109965000Y-38233843D01*
X110392750Y-38232000D01*
X110488000Y-38136750D01*
X110488000Y-37328000D01*
X110742000Y-37328000D01*
X110742000Y-38136750D01*
X110837250Y-38232000D01*
X111265000Y-38233843D01*
X111339689Y-38226487D01*
X111411508Y-38204701D01*
X111477696Y-38169322D01*
X111535711Y-38121711D01*
X111583322Y-38063696D01*
X111618701Y-37997508D01*
X111640487Y-37925689D01*
X111647843Y-37851000D01*
X111646000Y-37423250D01*
X111550750Y-37328000D01*
X110742000Y-37328000D01*
X110488000Y-37328000D01*
X109679250Y-37328000D01*
X109584000Y-37423250D01*
X109582157Y-37851000D01*
X101614843Y-37851000D01*
X101613000Y-37423250D01*
X101517750Y-37328000D01*
X100709000Y-37328000D01*
X100455000Y-37328000D01*
X99646250Y-37328000D01*
X99551000Y-37423250D01*
X99549157Y-37851000D01*
X91581843Y-37851000D01*
X91580000Y-37423250D01*
X91484750Y-37328000D01*
X90676000Y-37328000D01*
X90422000Y-37328000D01*
X89613250Y-37328000D01*
X89518000Y-37423250D01*
X89516157Y-37851000D01*
X81421843Y-37851000D01*
X81420000Y-37423250D01*
X81324750Y-37328000D01*
X80516000Y-37328000D01*
X80262000Y-37328000D01*
X79453250Y-37328000D01*
X79358000Y-37423250D01*
X79356157Y-37851000D01*
X72451500Y-37851000D01*
X72451500Y-36551000D01*
X79356157Y-36551000D01*
X79358000Y-36978750D01*
X79453250Y-37074000D01*
X80262000Y-37074000D01*
X80262000Y-36265250D01*
X80516000Y-36265250D01*
X80516000Y-37074000D01*
X81324750Y-37074000D01*
X81420000Y-36978750D01*
X81421843Y-36551000D01*
X89516157Y-36551000D01*
X89518000Y-36978750D01*
X89613250Y-37074000D01*
X90422000Y-37074000D01*
X90422000Y-36265250D01*
X90676000Y-36265250D01*
X90676000Y-37074000D01*
X91484750Y-37074000D01*
X91580000Y-36978750D01*
X91581843Y-36551000D01*
X99549157Y-36551000D01*
X99551000Y-36978750D01*
X99646250Y-37074000D01*
X100455000Y-37074000D01*
X100455000Y-36265250D01*
X100709000Y-36265250D01*
X100709000Y-37074000D01*
X101517750Y-37074000D01*
X101613000Y-36978750D01*
X101614843Y-36551000D01*
X109582157Y-36551000D01*
X109584000Y-36978750D01*
X109679250Y-37074000D01*
X110488000Y-37074000D01*
X110488000Y-36265250D01*
X110742000Y-36265250D01*
X110742000Y-37074000D01*
X111550750Y-37074000D01*
X111646000Y-36978750D01*
X111647843Y-36551000D01*
X111640487Y-36476311D01*
X111618701Y-36404492D01*
X111583322Y-36338304D01*
X111535711Y-36280289D01*
X111477696Y-36232678D01*
X111411508Y-36197299D01*
X111339689Y-36175513D01*
X111265000Y-36168157D01*
X110837250Y-36170000D01*
X110742000Y-36265250D01*
X110488000Y-36265250D01*
X110392750Y-36170000D01*
X109965000Y-36168157D01*
X109890311Y-36175513D01*
X109818492Y-36197299D01*
X109752304Y-36232678D01*
X109694289Y-36280289D01*
X109646678Y-36338304D01*
X109611299Y-36404492D01*
X109589513Y-36476311D01*
X109582157Y-36551000D01*
X101614843Y-36551000D01*
X101607487Y-36476311D01*
X101585701Y-36404492D01*
X101550322Y-36338304D01*
X101502711Y-36280289D01*
X101444696Y-36232678D01*
X101378508Y-36197299D01*
X101306689Y-36175513D01*
X101232000Y-36168157D01*
X100804250Y-36170000D01*
X100709000Y-36265250D01*
X100455000Y-36265250D01*
X100359750Y-36170000D01*
X99932000Y-36168157D01*
X99857311Y-36175513D01*
X99785492Y-36197299D01*
X99719304Y-36232678D01*
X99661289Y-36280289D01*
X99613678Y-36338304D01*
X99578299Y-36404492D01*
X99556513Y-36476311D01*
X99549157Y-36551000D01*
X91581843Y-36551000D01*
X91574487Y-36476311D01*
X91552701Y-36404492D01*
X91517322Y-36338304D01*
X91469711Y-36280289D01*
X91411696Y-36232678D01*
X91345508Y-36197299D01*
X91273689Y-36175513D01*
X91199000Y-36168157D01*
X90771250Y-36170000D01*
X90676000Y-36265250D01*
X90422000Y-36265250D01*
X90326750Y-36170000D01*
X89899000Y-36168157D01*
X89824311Y-36175513D01*
X89752492Y-36197299D01*
X89686304Y-36232678D01*
X89628289Y-36280289D01*
X89580678Y-36338304D01*
X89545299Y-36404492D01*
X89523513Y-36476311D01*
X89516157Y-36551000D01*
X81421843Y-36551000D01*
X81414487Y-36476311D01*
X81392701Y-36404492D01*
X81357322Y-36338304D01*
X81309711Y-36280289D01*
X81251696Y-36232678D01*
X81185508Y-36197299D01*
X81113689Y-36175513D01*
X81039000Y-36168157D01*
X80611250Y-36170000D01*
X80516000Y-36265250D01*
X80262000Y-36265250D01*
X80166750Y-36170000D01*
X79739000Y-36168157D01*
X79664311Y-36175513D01*
X79592492Y-36197299D01*
X79526304Y-36232678D01*
X79468289Y-36280289D01*
X79420678Y-36338304D01*
X79385299Y-36404492D01*
X79363513Y-36476311D01*
X79356157Y-36551000D01*
X72451500Y-36551000D01*
X72451500Y-35486500D01*
X75261573Y-35486500D01*
X75348078Y-35512741D01*
G37*
%TD.AperFunction*%
%TD*%
D21*
%TO.N,GND*%
X78545958Y-26018959D02*
X78343287Y-26185287D01*
X78176959Y-26387958D01*
X78053367Y-26619184D01*
X77977259Y-26870078D01*
X77951560Y-27131000D01*
X77977259Y-27391922D01*
X78053367Y-27642816D01*
X78176959Y-27874042D01*
X78343287Y-28076713D01*
X78545958Y-28243041D01*
X78777184Y-28366633D01*
X79028078Y-28442741D01*
X79223615Y-28462000D01*
X80354385Y-28462000D01*
X80549922Y-28442741D01*
X80800816Y-28366633D01*
X81032042Y-28243041D01*
X81234713Y-28076713D01*
X81401041Y-27874042D01*
X81524633Y-27642816D01*
X81600741Y-27391922D01*
X81626440Y-27131000D01*
X81600741Y-26870078D01*
X81524633Y-26619184D01*
X81401041Y-26387958D01*
X81234713Y-26185287D01*
X81032042Y-26018959D01*
X80805742Y-25898000D01*
X88932258Y-25898000D01*
X88705958Y-26018959D01*
X88503287Y-26185287D01*
X88336959Y-26387958D01*
X88213367Y-26619184D01*
X88137259Y-26870078D01*
X88111560Y-27131000D01*
X88137259Y-27391922D01*
X88213367Y-27642816D01*
X88336959Y-27874042D01*
X88503287Y-28076713D01*
X88705958Y-28243041D01*
X88937184Y-28366633D01*
X89188078Y-28442741D01*
X89383615Y-28462000D01*
X90514385Y-28462000D01*
X90709922Y-28442741D01*
X90960816Y-28366633D01*
X91192042Y-28243041D01*
X91394713Y-28076713D01*
X91561041Y-27874042D01*
X91684633Y-27642816D01*
X91760741Y-27391922D01*
X91786440Y-27131000D01*
X91760741Y-26870078D01*
X91684633Y-26619184D01*
X91561041Y-26387958D01*
X91394713Y-26185287D01*
X91192042Y-26018959D01*
X90965742Y-25898000D01*
X98965258Y-25898000D01*
X98738958Y-26018959D01*
X98536287Y-26185287D01*
X98369959Y-26387958D01*
X98246367Y-26619184D01*
X98170259Y-26870078D01*
X98144560Y-27131000D01*
X98170259Y-27391922D01*
X98246367Y-27642816D01*
X98369959Y-27874042D01*
X98536287Y-28076713D01*
X98738958Y-28243041D01*
X98970184Y-28366633D01*
X99221078Y-28442741D01*
X99416615Y-28462000D01*
X100547385Y-28462000D01*
X100742922Y-28442741D01*
X100993816Y-28366633D01*
X101225042Y-28243041D01*
X101427713Y-28076713D01*
X101594041Y-27874042D01*
X101717633Y-27642816D01*
X101793741Y-27391922D01*
X101819440Y-27131000D01*
X101793741Y-26870078D01*
X101717633Y-26619184D01*
X101594041Y-26387958D01*
X101427713Y-26185287D01*
X101225042Y-26018959D01*
X100998742Y-25898000D01*
X108998258Y-25898000D01*
X108771958Y-26018959D01*
X108569287Y-26185287D01*
X108402959Y-26387958D01*
X108279367Y-26619184D01*
X108203259Y-26870078D01*
X108177560Y-27131000D01*
X108203259Y-27391922D01*
X108279367Y-27642816D01*
X108402959Y-27874042D01*
X108569287Y-28076713D01*
X108771958Y-28243041D01*
X109003184Y-28366633D01*
X109254078Y-28442741D01*
X109449615Y-28462000D01*
X110580385Y-28462000D01*
X110775922Y-28442741D01*
X111026816Y-28366633D01*
X111258042Y-28243041D01*
X111460713Y-28076713D01*
X111627041Y-27874042D01*
X111750633Y-27642816D01*
X111826741Y-27391922D01*
X111852440Y-27131000D01*
X111826741Y-26870078D01*
X111750633Y-26619184D01*
X111627041Y-26387958D01*
X111460713Y-26185287D01*
X111258042Y-26018959D01*
X111031742Y-25898000D01*
X111885000Y-25898000D01*
X111885000Y-34534000D01*
X111632980Y-34534000D01*
X111606380Y-34400268D01*
X111528661Y-34212638D01*
X111415830Y-34043776D01*
X111272224Y-33900170D01*
X111103362Y-33787339D01*
X110915732Y-33709620D01*
X110872396Y-33701000D01*
X110915732Y-33692380D01*
X111103362Y-33614661D01*
X111272224Y-33501830D01*
X111415830Y-33358224D01*
X111528661Y-33189362D01*
X111606380Y-33001732D01*
X111646000Y-32802545D01*
X111646000Y-32599455D01*
X111606380Y-32400268D01*
X111528661Y-32212638D01*
X111415830Y-32043776D01*
X111272224Y-31900170D01*
X111103362Y-31787339D01*
X110915732Y-31709620D01*
X110716545Y-31670000D01*
X110513455Y-31670000D01*
X110314268Y-31709620D01*
X110126638Y-31787339D01*
X109957776Y-31900170D01*
X109814170Y-32043776D01*
X109701339Y-32212638D01*
X109623620Y-32400268D01*
X109584000Y-32599455D01*
X109584000Y-32802545D01*
X109623620Y-33001732D01*
X109701339Y-33189362D01*
X109814170Y-33358224D01*
X109957776Y-33501830D01*
X110126638Y-33614661D01*
X110314268Y-33692380D01*
X110357604Y-33701000D01*
X110314268Y-33709620D01*
X110126638Y-33787339D01*
X109957776Y-33900170D01*
X109814170Y-34043776D01*
X109701339Y-34212638D01*
X109623620Y-34400268D01*
X109597020Y-34534000D01*
X107124876Y-34534000D01*
X107146741Y-34461922D01*
X107166000Y-34266385D01*
X107166000Y-33135615D01*
X107146741Y-32940078D01*
X107070633Y-32689184D01*
X106947041Y-32457958D01*
X106780713Y-32255287D01*
X106578042Y-32088959D01*
X106346816Y-31965367D01*
X106095922Y-31889259D01*
X105835000Y-31863560D01*
X105574079Y-31889259D01*
X105323185Y-31965367D01*
X105091959Y-32088959D01*
X104889288Y-32255287D01*
X104722959Y-32457958D01*
X104599367Y-32689184D01*
X104523259Y-32940078D01*
X104504000Y-33135615D01*
X104504000Y-34266384D01*
X104523259Y-34461921D01*
X104545124Y-34534000D01*
X101599980Y-34534000D01*
X101573380Y-34400268D01*
X101495661Y-34212638D01*
X101382830Y-34043776D01*
X101239224Y-33900170D01*
X101070362Y-33787339D01*
X100882732Y-33709620D01*
X100839396Y-33701000D01*
X100882732Y-33692380D01*
X101070362Y-33614661D01*
X101239224Y-33501830D01*
X101382830Y-33358224D01*
X101495661Y-33189362D01*
X101573380Y-33001732D01*
X101613000Y-32802545D01*
X101613000Y-32599455D01*
X101573380Y-32400268D01*
X101495661Y-32212638D01*
X101382830Y-32043776D01*
X101239224Y-31900170D01*
X101070362Y-31787339D01*
X100882732Y-31709620D01*
X100683545Y-31670000D01*
X100480455Y-31670000D01*
X100281268Y-31709620D01*
X100093638Y-31787339D01*
X99924776Y-31900170D01*
X99781170Y-32043776D01*
X99668339Y-32212638D01*
X99590620Y-32400268D01*
X99551000Y-32599455D01*
X99551000Y-32802545D01*
X99590620Y-33001732D01*
X99668339Y-33189362D01*
X99781170Y-33358224D01*
X99924776Y-33501830D01*
X100093638Y-33614661D01*
X100281268Y-33692380D01*
X100324604Y-33701000D01*
X100281268Y-33709620D01*
X100093638Y-33787339D01*
X99924776Y-33900170D01*
X99781170Y-34043776D01*
X99668339Y-34212638D01*
X99590620Y-34400268D01*
X99564020Y-34534000D01*
X97091876Y-34534000D01*
X97113741Y-34461922D01*
X97133000Y-34266385D01*
X97133000Y-33135615D01*
X97113741Y-32940078D01*
X97037633Y-32689184D01*
X96914041Y-32457958D01*
X96747713Y-32255287D01*
X96545042Y-32088959D01*
X96313816Y-31965367D01*
X96062922Y-31889259D01*
X95802000Y-31863560D01*
X95541079Y-31889259D01*
X95290185Y-31965367D01*
X95058959Y-32088959D01*
X94856288Y-32255287D01*
X94689959Y-32457958D01*
X94566367Y-32689184D01*
X94490259Y-32940078D01*
X94471000Y-33135615D01*
X94471000Y-34266384D01*
X94490259Y-34461921D01*
X94512124Y-34534000D01*
X91566980Y-34534000D01*
X91540380Y-34400268D01*
X91462661Y-34212638D01*
X91349830Y-34043776D01*
X91206224Y-33900170D01*
X91037362Y-33787339D01*
X90849732Y-33709620D01*
X90806396Y-33701000D01*
X90849732Y-33692380D01*
X91037362Y-33614661D01*
X91206224Y-33501830D01*
X91349830Y-33358224D01*
X91462661Y-33189362D01*
X91540380Y-33001732D01*
X91580000Y-32802545D01*
X91580000Y-32599455D01*
X91540380Y-32400268D01*
X91462661Y-32212638D01*
X91349830Y-32043776D01*
X91206224Y-31900170D01*
X91037362Y-31787339D01*
X90849732Y-31709620D01*
X90650545Y-31670000D01*
X90447455Y-31670000D01*
X90248268Y-31709620D01*
X90060638Y-31787339D01*
X89891776Y-31900170D01*
X89748170Y-32043776D01*
X89635339Y-32212638D01*
X89557620Y-32400268D01*
X89518000Y-32599455D01*
X89518000Y-32802545D01*
X89557620Y-33001732D01*
X89635339Y-33189362D01*
X89748170Y-33358224D01*
X89891776Y-33501830D01*
X90060638Y-33614661D01*
X90248268Y-33692380D01*
X90291604Y-33701000D01*
X90248268Y-33709620D01*
X90060638Y-33787339D01*
X89891776Y-33900170D01*
X89748170Y-34043776D01*
X89635339Y-34212638D01*
X89557620Y-34400268D01*
X89531020Y-34534000D01*
X87058876Y-34534000D01*
X87080741Y-34461922D01*
X87100000Y-34266385D01*
X87100000Y-33135615D01*
X87080741Y-32940078D01*
X87004633Y-32689184D01*
X86881041Y-32457958D01*
X86714713Y-32255287D01*
X86512042Y-32088959D01*
X86280816Y-31965367D01*
X86029922Y-31889259D01*
X85769000Y-31863560D01*
X85508079Y-31889259D01*
X85257185Y-31965367D01*
X85025959Y-32088959D01*
X84823288Y-32255287D01*
X84656959Y-32457958D01*
X84533367Y-32689184D01*
X84457259Y-32940078D01*
X84438000Y-33135615D01*
X84438000Y-34266384D01*
X84457259Y-34461921D01*
X84479124Y-34534000D01*
X81406980Y-34534000D01*
X81380380Y-34400268D01*
X81302661Y-34212638D01*
X81189830Y-34043776D01*
X81046224Y-33900170D01*
X80877362Y-33787339D01*
X80689732Y-33709620D01*
X80646396Y-33701000D01*
X80689732Y-33692380D01*
X80877362Y-33614661D01*
X81046224Y-33501830D01*
X81189830Y-33358224D01*
X81302661Y-33189362D01*
X81380380Y-33001732D01*
X81420000Y-32802545D01*
X81420000Y-32599455D01*
X81380380Y-32400268D01*
X81302661Y-32212638D01*
X81189830Y-32043776D01*
X81046224Y-31900170D01*
X80877362Y-31787339D01*
X80689732Y-31709620D01*
X80490545Y-31670000D01*
X80287455Y-31670000D01*
X80088268Y-31709620D01*
X79900638Y-31787339D01*
X79731776Y-31900170D01*
X79588170Y-32043776D01*
X79475339Y-32212638D01*
X79397620Y-32400268D01*
X79358000Y-32599455D01*
X79358000Y-32802545D01*
X79397620Y-33001732D01*
X79475339Y-33189362D01*
X79588170Y-33358224D01*
X79731776Y-33501830D01*
X79900638Y-33614661D01*
X80088268Y-33692380D01*
X80131604Y-33701000D01*
X80088268Y-33709620D01*
X79900638Y-33787339D01*
X79731776Y-33900170D01*
X79588170Y-34043776D01*
X79475339Y-34212638D01*
X79397620Y-34400268D01*
X79371020Y-34534000D01*
X76898876Y-34534000D01*
X76920741Y-34461922D01*
X76940000Y-34266385D01*
X76940000Y-33135615D01*
X76920741Y-32940078D01*
X76844633Y-32689184D01*
X76721041Y-32457958D01*
X76554713Y-32255287D01*
X76352042Y-32088959D01*
X76120816Y-31965367D01*
X75869922Y-31889259D01*
X75609000Y-31863560D01*
X75348079Y-31889259D01*
X75097185Y-31965367D01*
X74865959Y-32088959D01*
X74663288Y-32255287D01*
X74496959Y-32457958D01*
X74373367Y-32689184D01*
X74297259Y-32940078D01*
X74278000Y-33135615D01*
X74278000Y-34266384D01*
X74297259Y-34461921D01*
X74319124Y-34534000D01*
X72574657Y-34534000D01*
X72524500Y-34483843D01*
X72524500Y-30949916D01*
X79819689Y-30949916D01*
X79887399Y-31107459D01*
X80073879Y-31187900D01*
X80272468Y-31230414D01*
X80475536Y-31233368D01*
X80675279Y-31196649D01*
X80864019Y-31121668D01*
X80890601Y-31107459D01*
X80958311Y-30949916D01*
X89979689Y-30949916D01*
X90047399Y-31107459D01*
X90233879Y-31187900D01*
X90432468Y-31230414D01*
X90635536Y-31233368D01*
X90835279Y-31196649D01*
X91024019Y-31121668D01*
X91050601Y-31107459D01*
X91118311Y-30949916D01*
X100012689Y-30949916D01*
X100080399Y-31107459D01*
X100266879Y-31187900D01*
X100465468Y-31230414D01*
X100668536Y-31233368D01*
X100868279Y-31196649D01*
X101057019Y-31121668D01*
X101083601Y-31107459D01*
X101151311Y-30949916D01*
X110045689Y-30949916D01*
X110113399Y-31107459D01*
X110299879Y-31187900D01*
X110498468Y-31230414D01*
X110701536Y-31233368D01*
X110901279Y-31196649D01*
X111090019Y-31121668D01*
X111116601Y-31107459D01*
X111184311Y-30949916D01*
X110615000Y-30380605D01*
X110045689Y-30949916D01*
X101151311Y-30949916D01*
X100582000Y-30380605D01*
X100012689Y-30949916D01*
X91118311Y-30949916D01*
X90549000Y-30380605D01*
X89979689Y-30949916D01*
X80958311Y-30949916D01*
X80389000Y-30380605D01*
X79819689Y-30949916D01*
X72524500Y-30949916D01*
X72524500Y-30287536D01*
X79356632Y-30287536D01*
X79393351Y-30487279D01*
X79468332Y-30676019D01*
X79482541Y-30702601D01*
X79640084Y-30770311D01*
X80209395Y-30201000D01*
X80568605Y-30201000D01*
X81137916Y-30770311D01*
X81295459Y-30702601D01*
X81375900Y-30516121D01*
X81418414Y-30317532D01*
X81418850Y-30287536D01*
X89516632Y-30287536D01*
X89553351Y-30487279D01*
X89628332Y-30676019D01*
X89642541Y-30702601D01*
X89800084Y-30770311D01*
X90369395Y-30201000D01*
X90728605Y-30201000D01*
X91297916Y-30770311D01*
X91455459Y-30702601D01*
X91535900Y-30516121D01*
X91578414Y-30317532D01*
X91578850Y-30287536D01*
X99549632Y-30287536D01*
X99586351Y-30487279D01*
X99661332Y-30676019D01*
X99675541Y-30702601D01*
X99833084Y-30770311D01*
X100402395Y-30201000D01*
X100761605Y-30201000D01*
X101330916Y-30770311D01*
X101488459Y-30702601D01*
X101568900Y-30516121D01*
X101611414Y-30317532D01*
X101611850Y-30287536D01*
X109582632Y-30287536D01*
X109619351Y-30487279D01*
X109694332Y-30676019D01*
X109708541Y-30702601D01*
X109866084Y-30770311D01*
X110435395Y-30201000D01*
X110794605Y-30201000D01*
X111363916Y-30770311D01*
X111521459Y-30702601D01*
X111601900Y-30516121D01*
X111644414Y-30317532D01*
X111647368Y-30114464D01*
X111610649Y-29914721D01*
X111535668Y-29725981D01*
X111521459Y-29699399D01*
X111363916Y-29631689D01*
X110794605Y-30201000D01*
X110435395Y-30201000D01*
X109866084Y-29631689D01*
X109708541Y-29699399D01*
X109628100Y-29885879D01*
X109585586Y-30084468D01*
X109582632Y-30287536D01*
X101611850Y-30287536D01*
X101614368Y-30114464D01*
X101577649Y-29914721D01*
X101502668Y-29725981D01*
X101488459Y-29699399D01*
X101330916Y-29631689D01*
X100761605Y-30201000D01*
X100402395Y-30201000D01*
X99833084Y-29631689D01*
X99675541Y-29699399D01*
X99595100Y-29885879D01*
X99552586Y-30084468D01*
X99549632Y-30287536D01*
X91578850Y-30287536D01*
X91581368Y-30114464D01*
X91544649Y-29914721D01*
X91469668Y-29725981D01*
X91455459Y-29699399D01*
X91297916Y-29631689D01*
X90728605Y-30201000D01*
X90369395Y-30201000D01*
X89800084Y-29631689D01*
X89642541Y-29699399D01*
X89562100Y-29885879D01*
X89519586Y-30084468D01*
X89516632Y-30287536D01*
X81418850Y-30287536D01*
X81421368Y-30114464D01*
X81384649Y-29914721D01*
X81309668Y-29725981D01*
X81295459Y-29699399D01*
X81137916Y-29631689D01*
X80568605Y-30201000D01*
X80209395Y-30201000D01*
X79640084Y-29631689D01*
X79482541Y-29699399D01*
X79402100Y-29885879D01*
X79359586Y-30084468D01*
X79356632Y-30287536D01*
X72524500Y-30287536D01*
X72524500Y-29452084D01*
X79819689Y-29452084D01*
X80389000Y-30021395D01*
X80958311Y-29452084D01*
X89979689Y-29452084D01*
X90549000Y-30021395D01*
X91118311Y-29452084D01*
X100012689Y-29452084D01*
X100582000Y-30021395D01*
X101151311Y-29452084D01*
X110045689Y-29452084D01*
X110615000Y-30021395D01*
X111184311Y-29452084D01*
X111116601Y-29294541D01*
X110930121Y-29214100D01*
X110731532Y-29171586D01*
X110528464Y-29168632D01*
X110328721Y-29205351D01*
X110139981Y-29280332D01*
X110113399Y-29294541D01*
X110045689Y-29452084D01*
X101151311Y-29452084D01*
X101083601Y-29294541D01*
X100897121Y-29214100D01*
X100698532Y-29171586D01*
X100495464Y-29168632D01*
X100295721Y-29205351D01*
X100106981Y-29280332D01*
X100080399Y-29294541D01*
X100012689Y-29452084D01*
X91118311Y-29452084D01*
X91050601Y-29294541D01*
X90864121Y-29214100D01*
X90665532Y-29171586D01*
X90462464Y-29168632D01*
X90262721Y-29205351D01*
X90073981Y-29280332D01*
X90047399Y-29294541D01*
X89979689Y-29452084D01*
X80958311Y-29452084D01*
X80890601Y-29294541D01*
X80704121Y-29214100D01*
X80505532Y-29171586D01*
X80302464Y-29168632D01*
X80102721Y-29205351D01*
X79913981Y-29280332D01*
X79887399Y-29294541D01*
X79819689Y-29452084D01*
X72524500Y-29452084D01*
X72524500Y-27882001D01*
X72550142Y-27856359D01*
X72635613Y-27728442D01*
X72694487Y-27586309D01*
X72724500Y-27435422D01*
X72724500Y-27281578D01*
X72694487Y-27130691D01*
X72635613Y-26988558D01*
X72550142Y-26860641D01*
X72441359Y-26751858D01*
X72313442Y-26666387D01*
X72171309Y-26607513D01*
X72020422Y-26577500D01*
X71866578Y-26577500D01*
X71715691Y-26607513D01*
X71573558Y-26666387D01*
X71445641Y-26751858D01*
X71336858Y-26860641D01*
X71251387Y-26988558D01*
X71192513Y-27130691D01*
X71162500Y-27281578D01*
X71162500Y-27435422D01*
X71192513Y-27586309D01*
X71251387Y-27728442D01*
X71336858Y-27856359D01*
X71362500Y-27882001D01*
X71362501Y-34534000D01*
X70274442Y-34534000D01*
X70178922Y-34515000D01*
X70122442Y-34515000D01*
X70121000Y-33789250D01*
X70025750Y-33694000D01*
X69362296Y-33694000D01*
X69382486Y-33685637D01*
X69405180Y-33572215D01*
X69406919Y-33570476D01*
X69406224Y-33567000D01*
X69406919Y-33563524D01*
X69405180Y-33561785D01*
X69382486Y-33448363D01*
X69359102Y-33440000D01*
X70025750Y-33440000D01*
X70121000Y-33344750D01*
X70122843Y-32417000D01*
X70115487Y-32342311D01*
X70093701Y-32270492D01*
X70058322Y-32204304D01*
X70010711Y-32146289D01*
X69952696Y-32098678D01*
X69886508Y-32063299D01*
X69814689Y-32041513D01*
X69740000Y-32034157D01*
X68562250Y-32036000D01*
X68467000Y-32131250D01*
X68467000Y-32786713D01*
X68429412Y-32891814D01*
X68373479Y-32883525D01*
X68247632Y-32889725D01*
X68234261Y-32836376D01*
X68213000Y-32785047D01*
X68213000Y-32131250D01*
X68117750Y-32036000D01*
X66940000Y-32034157D01*
X66865311Y-32041513D01*
X66793492Y-32063299D01*
X66727304Y-32098678D01*
X66669289Y-32146289D01*
X66621678Y-32204304D01*
X66586299Y-32270492D01*
X66564513Y-32342311D01*
X66557157Y-32417000D01*
X66559000Y-33344750D01*
X66654250Y-33440000D01*
X67317704Y-33440000D01*
X67297514Y-33448363D01*
X67274820Y-33561785D01*
X67273081Y-33563524D01*
X67273776Y-33567000D01*
X67273081Y-33570476D01*
X67274820Y-33572215D01*
X67297514Y-33685637D01*
X67320898Y-33694000D01*
X66654250Y-33694000D01*
X66559000Y-33789250D01*
X66557521Y-34534000D01*
X63117000Y-34534000D01*
X63117000Y-25898000D01*
X78772258Y-25898000D01*
X78545958Y-26018959D01*
%TA.AperFunction,Conductor*%
D22*
G36*
X78545958Y-26018959D02*
G01*
X78343287Y-26185287D01*
X78176959Y-26387958D01*
X78053367Y-26619184D01*
X77977259Y-26870078D01*
X77951560Y-27131000D01*
X77977259Y-27391922D01*
X78053367Y-27642816D01*
X78176959Y-27874042D01*
X78343287Y-28076713D01*
X78545958Y-28243041D01*
X78777184Y-28366633D01*
X79028078Y-28442741D01*
X79223615Y-28462000D01*
X80354385Y-28462000D01*
X80549922Y-28442741D01*
X80800816Y-28366633D01*
X81032042Y-28243041D01*
X81234713Y-28076713D01*
X81401041Y-27874042D01*
X81524633Y-27642816D01*
X81600741Y-27391922D01*
X81626440Y-27131000D01*
X81600741Y-26870078D01*
X81524633Y-26619184D01*
X81401041Y-26387958D01*
X81234713Y-26185287D01*
X81032042Y-26018959D01*
X80805742Y-25898000D01*
X88932258Y-25898000D01*
X88705958Y-26018959D01*
X88503287Y-26185287D01*
X88336959Y-26387958D01*
X88213367Y-26619184D01*
X88137259Y-26870078D01*
X88111560Y-27131000D01*
X88137259Y-27391922D01*
X88213367Y-27642816D01*
X88336959Y-27874042D01*
X88503287Y-28076713D01*
X88705958Y-28243041D01*
X88937184Y-28366633D01*
X89188078Y-28442741D01*
X89383615Y-28462000D01*
X90514385Y-28462000D01*
X90709922Y-28442741D01*
X90960816Y-28366633D01*
X91192042Y-28243041D01*
X91394713Y-28076713D01*
X91561041Y-27874042D01*
X91684633Y-27642816D01*
X91760741Y-27391922D01*
X91786440Y-27131000D01*
X91760741Y-26870078D01*
X91684633Y-26619184D01*
X91561041Y-26387958D01*
X91394713Y-26185287D01*
X91192042Y-26018959D01*
X90965742Y-25898000D01*
X98965258Y-25898000D01*
X98738958Y-26018959D01*
X98536287Y-26185287D01*
X98369959Y-26387958D01*
X98246367Y-26619184D01*
X98170259Y-26870078D01*
X98144560Y-27131000D01*
X98170259Y-27391922D01*
X98246367Y-27642816D01*
X98369959Y-27874042D01*
X98536287Y-28076713D01*
X98738958Y-28243041D01*
X98970184Y-28366633D01*
X99221078Y-28442741D01*
X99416615Y-28462000D01*
X100547385Y-28462000D01*
X100742922Y-28442741D01*
X100993816Y-28366633D01*
X101225042Y-28243041D01*
X101427713Y-28076713D01*
X101594041Y-27874042D01*
X101717633Y-27642816D01*
X101793741Y-27391922D01*
X101819440Y-27131000D01*
X101793741Y-26870078D01*
X101717633Y-26619184D01*
X101594041Y-26387958D01*
X101427713Y-26185287D01*
X101225042Y-26018959D01*
X100998742Y-25898000D01*
X108998258Y-25898000D01*
X108771958Y-26018959D01*
X108569287Y-26185287D01*
X108402959Y-26387958D01*
X108279367Y-26619184D01*
X108203259Y-26870078D01*
X108177560Y-27131000D01*
X108203259Y-27391922D01*
X108279367Y-27642816D01*
X108402959Y-27874042D01*
X108569287Y-28076713D01*
X108771958Y-28243041D01*
X109003184Y-28366633D01*
X109254078Y-28442741D01*
X109449615Y-28462000D01*
X110580385Y-28462000D01*
X110775922Y-28442741D01*
X111026816Y-28366633D01*
X111258042Y-28243041D01*
X111460713Y-28076713D01*
X111627041Y-27874042D01*
X111750633Y-27642816D01*
X111826741Y-27391922D01*
X111852440Y-27131000D01*
X111826741Y-26870078D01*
X111750633Y-26619184D01*
X111627041Y-26387958D01*
X111460713Y-26185287D01*
X111258042Y-26018959D01*
X111031742Y-25898000D01*
X111885000Y-25898000D01*
X111885000Y-34534000D01*
X111632980Y-34534000D01*
X111606380Y-34400268D01*
X111528661Y-34212638D01*
X111415830Y-34043776D01*
X111272224Y-33900170D01*
X111103362Y-33787339D01*
X110915732Y-33709620D01*
X110872396Y-33701000D01*
X110915732Y-33692380D01*
X111103362Y-33614661D01*
X111272224Y-33501830D01*
X111415830Y-33358224D01*
X111528661Y-33189362D01*
X111606380Y-33001732D01*
X111646000Y-32802545D01*
X111646000Y-32599455D01*
X111606380Y-32400268D01*
X111528661Y-32212638D01*
X111415830Y-32043776D01*
X111272224Y-31900170D01*
X111103362Y-31787339D01*
X110915732Y-31709620D01*
X110716545Y-31670000D01*
X110513455Y-31670000D01*
X110314268Y-31709620D01*
X110126638Y-31787339D01*
X109957776Y-31900170D01*
X109814170Y-32043776D01*
X109701339Y-32212638D01*
X109623620Y-32400268D01*
X109584000Y-32599455D01*
X109584000Y-32802545D01*
X109623620Y-33001732D01*
X109701339Y-33189362D01*
X109814170Y-33358224D01*
X109957776Y-33501830D01*
X110126638Y-33614661D01*
X110314268Y-33692380D01*
X110357604Y-33701000D01*
X110314268Y-33709620D01*
X110126638Y-33787339D01*
X109957776Y-33900170D01*
X109814170Y-34043776D01*
X109701339Y-34212638D01*
X109623620Y-34400268D01*
X109597020Y-34534000D01*
X107124876Y-34534000D01*
X107146741Y-34461922D01*
X107166000Y-34266385D01*
X107166000Y-33135615D01*
X107146741Y-32940078D01*
X107070633Y-32689184D01*
X106947041Y-32457958D01*
X106780713Y-32255287D01*
X106578042Y-32088959D01*
X106346816Y-31965367D01*
X106095922Y-31889259D01*
X105835000Y-31863560D01*
X105574079Y-31889259D01*
X105323185Y-31965367D01*
X105091959Y-32088959D01*
X104889288Y-32255287D01*
X104722959Y-32457958D01*
X104599367Y-32689184D01*
X104523259Y-32940078D01*
X104504000Y-33135615D01*
X104504000Y-34266384D01*
X104523259Y-34461921D01*
X104545124Y-34534000D01*
X101599980Y-34534000D01*
X101573380Y-34400268D01*
X101495661Y-34212638D01*
X101382830Y-34043776D01*
X101239224Y-33900170D01*
X101070362Y-33787339D01*
X100882732Y-33709620D01*
X100839396Y-33701000D01*
X100882732Y-33692380D01*
X101070362Y-33614661D01*
X101239224Y-33501830D01*
X101382830Y-33358224D01*
X101495661Y-33189362D01*
X101573380Y-33001732D01*
X101613000Y-32802545D01*
X101613000Y-32599455D01*
X101573380Y-32400268D01*
X101495661Y-32212638D01*
X101382830Y-32043776D01*
X101239224Y-31900170D01*
X101070362Y-31787339D01*
X100882732Y-31709620D01*
X100683545Y-31670000D01*
X100480455Y-31670000D01*
X100281268Y-31709620D01*
X100093638Y-31787339D01*
X99924776Y-31900170D01*
X99781170Y-32043776D01*
X99668339Y-32212638D01*
X99590620Y-32400268D01*
X99551000Y-32599455D01*
X99551000Y-32802545D01*
X99590620Y-33001732D01*
X99668339Y-33189362D01*
X99781170Y-33358224D01*
X99924776Y-33501830D01*
X100093638Y-33614661D01*
X100281268Y-33692380D01*
X100324604Y-33701000D01*
X100281268Y-33709620D01*
X100093638Y-33787339D01*
X99924776Y-33900170D01*
X99781170Y-34043776D01*
X99668339Y-34212638D01*
X99590620Y-34400268D01*
X99564020Y-34534000D01*
X97091876Y-34534000D01*
X97113741Y-34461922D01*
X97133000Y-34266385D01*
X97133000Y-33135615D01*
X97113741Y-32940078D01*
X97037633Y-32689184D01*
X96914041Y-32457958D01*
X96747713Y-32255287D01*
X96545042Y-32088959D01*
X96313816Y-31965367D01*
X96062922Y-31889259D01*
X95802000Y-31863560D01*
X95541079Y-31889259D01*
X95290185Y-31965367D01*
X95058959Y-32088959D01*
X94856288Y-32255287D01*
X94689959Y-32457958D01*
X94566367Y-32689184D01*
X94490259Y-32940078D01*
X94471000Y-33135615D01*
X94471000Y-34266384D01*
X94490259Y-34461921D01*
X94512124Y-34534000D01*
X91566980Y-34534000D01*
X91540380Y-34400268D01*
X91462661Y-34212638D01*
X91349830Y-34043776D01*
X91206224Y-33900170D01*
X91037362Y-33787339D01*
X90849732Y-33709620D01*
X90806396Y-33701000D01*
X90849732Y-33692380D01*
X91037362Y-33614661D01*
X91206224Y-33501830D01*
X91349830Y-33358224D01*
X91462661Y-33189362D01*
X91540380Y-33001732D01*
X91580000Y-32802545D01*
X91580000Y-32599455D01*
X91540380Y-32400268D01*
X91462661Y-32212638D01*
X91349830Y-32043776D01*
X91206224Y-31900170D01*
X91037362Y-31787339D01*
X90849732Y-31709620D01*
X90650545Y-31670000D01*
X90447455Y-31670000D01*
X90248268Y-31709620D01*
X90060638Y-31787339D01*
X89891776Y-31900170D01*
X89748170Y-32043776D01*
X89635339Y-32212638D01*
X89557620Y-32400268D01*
X89518000Y-32599455D01*
X89518000Y-32802545D01*
X89557620Y-33001732D01*
X89635339Y-33189362D01*
X89748170Y-33358224D01*
X89891776Y-33501830D01*
X90060638Y-33614661D01*
X90248268Y-33692380D01*
X90291604Y-33701000D01*
X90248268Y-33709620D01*
X90060638Y-33787339D01*
X89891776Y-33900170D01*
X89748170Y-34043776D01*
X89635339Y-34212638D01*
X89557620Y-34400268D01*
X89531020Y-34534000D01*
X87058876Y-34534000D01*
X87080741Y-34461922D01*
X87100000Y-34266385D01*
X87100000Y-33135615D01*
X87080741Y-32940078D01*
X87004633Y-32689184D01*
X86881041Y-32457958D01*
X86714713Y-32255287D01*
X86512042Y-32088959D01*
X86280816Y-31965367D01*
X86029922Y-31889259D01*
X85769000Y-31863560D01*
X85508079Y-31889259D01*
X85257185Y-31965367D01*
X85025959Y-32088959D01*
X84823288Y-32255287D01*
X84656959Y-32457958D01*
X84533367Y-32689184D01*
X84457259Y-32940078D01*
X84438000Y-33135615D01*
X84438000Y-34266384D01*
X84457259Y-34461921D01*
X84479124Y-34534000D01*
X81406980Y-34534000D01*
X81380380Y-34400268D01*
X81302661Y-34212638D01*
X81189830Y-34043776D01*
X81046224Y-33900170D01*
X80877362Y-33787339D01*
X80689732Y-33709620D01*
X80646396Y-33701000D01*
X80689732Y-33692380D01*
X80877362Y-33614661D01*
X81046224Y-33501830D01*
X81189830Y-33358224D01*
X81302661Y-33189362D01*
X81380380Y-33001732D01*
X81420000Y-32802545D01*
X81420000Y-32599455D01*
X81380380Y-32400268D01*
X81302661Y-32212638D01*
X81189830Y-32043776D01*
X81046224Y-31900170D01*
X80877362Y-31787339D01*
X80689732Y-31709620D01*
X80490545Y-31670000D01*
X80287455Y-31670000D01*
X80088268Y-31709620D01*
X79900638Y-31787339D01*
X79731776Y-31900170D01*
X79588170Y-32043776D01*
X79475339Y-32212638D01*
X79397620Y-32400268D01*
X79358000Y-32599455D01*
X79358000Y-32802545D01*
X79397620Y-33001732D01*
X79475339Y-33189362D01*
X79588170Y-33358224D01*
X79731776Y-33501830D01*
X79900638Y-33614661D01*
X80088268Y-33692380D01*
X80131604Y-33701000D01*
X80088268Y-33709620D01*
X79900638Y-33787339D01*
X79731776Y-33900170D01*
X79588170Y-34043776D01*
X79475339Y-34212638D01*
X79397620Y-34400268D01*
X79371020Y-34534000D01*
X76898876Y-34534000D01*
X76920741Y-34461922D01*
X76940000Y-34266385D01*
X76940000Y-33135615D01*
X76920741Y-32940078D01*
X76844633Y-32689184D01*
X76721041Y-32457958D01*
X76554713Y-32255287D01*
X76352042Y-32088959D01*
X76120816Y-31965367D01*
X75869922Y-31889259D01*
X75609000Y-31863560D01*
X75348079Y-31889259D01*
X75097185Y-31965367D01*
X74865959Y-32088959D01*
X74663288Y-32255287D01*
X74496959Y-32457958D01*
X74373367Y-32689184D01*
X74297259Y-32940078D01*
X74278000Y-33135615D01*
X74278000Y-34266384D01*
X74297259Y-34461921D01*
X74319124Y-34534000D01*
X72574657Y-34534000D01*
X72524500Y-34483843D01*
X72524500Y-30949916D01*
X79819689Y-30949916D01*
X79887399Y-31107459D01*
X80073879Y-31187900D01*
X80272468Y-31230414D01*
X80475536Y-31233368D01*
X80675279Y-31196649D01*
X80864019Y-31121668D01*
X80890601Y-31107459D01*
X80958311Y-30949916D01*
X89979689Y-30949916D01*
X90047399Y-31107459D01*
X90233879Y-31187900D01*
X90432468Y-31230414D01*
X90635536Y-31233368D01*
X90835279Y-31196649D01*
X91024019Y-31121668D01*
X91050601Y-31107459D01*
X91118311Y-30949916D01*
X100012689Y-30949916D01*
X100080399Y-31107459D01*
X100266879Y-31187900D01*
X100465468Y-31230414D01*
X100668536Y-31233368D01*
X100868279Y-31196649D01*
X101057019Y-31121668D01*
X101083601Y-31107459D01*
X101151311Y-30949916D01*
X110045689Y-30949916D01*
X110113399Y-31107459D01*
X110299879Y-31187900D01*
X110498468Y-31230414D01*
X110701536Y-31233368D01*
X110901279Y-31196649D01*
X111090019Y-31121668D01*
X111116601Y-31107459D01*
X111184311Y-30949916D01*
X110615000Y-30380605D01*
X110045689Y-30949916D01*
X101151311Y-30949916D01*
X100582000Y-30380605D01*
X100012689Y-30949916D01*
X91118311Y-30949916D01*
X90549000Y-30380605D01*
X89979689Y-30949916D01*
X80958311Y-30949916D01*
X80389000Y-30380605D01*
X79819689Y-30949916D01*
X72524500Y-30949916D01*
X72524500Y-30287536D01*
X79356632Y-30287536D01*
X79393351Y-30487279D01*
X79468332Y-30676019D01*
X79482541Y-30702601D01*
X79640084Y-30770311D01*
X80209395Y-30201000D01*
X80568605Y-30201000D01*
X81137916Y-30770311D01*
X81295459Y-30702601D01*
X81375900Y-30516121D01*
X81418414Y-30317532D01*
X81418850Y-30287536D01*
X89516632Y-30287536D01*
X89553351Y-30487279D01*
X89628332Y-30676019D01*
X89642541Y-30702601D01*
X89800084Y-30770311D01*
X90369395Y-30201000D01*
X90728605Y-30201000D01*
X91297916Y-30770311D01*
X91455459Y-30702601D01*
X91535900Y-30516121D01*
X91578414Y-30317532D01*
X91578850Y-30287536D01*
X99549632Y-30287536D01*
X99586351Y-30487279D01*
X99661332Y-30676019D01*
X99675541Y-30702601D01*
X99833084Y-30770311D01*
X100402395Y-30201000D01*
X100761605Y-30201000D01*
X101330916Y-30770311D01*
X101488459Y-30702601D01*
X101568900Y-30516121D01*
X101611414Y-30317532D01*
X101611850Y-30287536D01*
X109582632Y-30287536D01*
X109619351Y-30487279D01*
X109694332Y-30676019D01*
X109708541Y-30702601D01*
X109866084Y-30770311D01*
X110435395Y-30201000D01*
X110794605Y-30201000D01*
X111363916Y-30770311D01*
X111521459Y-30702601D01*
X111601900Y-30516121D01*
X111644414Y-30317532D01*
X111647368Y-30114464D01*
X111610649Y-29914721D01*
X111535668Y-29725981D01*
X111521459Y-29699399D01*
X111363916Y-29631689D01*
X110794605Y-30201000D01*
X110435395Y-30201000D01*
X109866084Y-29631689D01*
X109708541Y-29699399D01*
X109628100Y-29885879D01*
X109585586Y-30084468D01*
X109582632Y-30287536D01*
X101611850Y-30287536D01*
X101614368Y-30114464D01*
X101577649Y-29914721D01*
X101502668Y-29725981D01*
X101488459Y-29699399D01*
X101330916Y-29631689D01*
X100761605Y-30201000D01*
X100402395Y-30201000D01*
X99833084Y-29631689D01*
X99675541Y-29699399D01*
X99595100Y-29885879D01*
X99552586Y-30084468D01*
X99549632Y-30287536D01*
X91578850Y-30287536D01*
X91581368Y-30114464D01*
X91544649Y-29914721D01*
X91469668Y-29725981D01*
X91455459Y-29699399D01*
X91297916Y-29631689D01*
X90728605Y-30201000D01*
X90369395Y-30201000D01*
X89800084Y-29631689D01*
X89642541Y-29699399D01*
X89562100Y-29885879D01*
X89519586Y-30084468D01*
X89516632Y-30287536D01*
X81418850Y-30287536D01*
X81421368Y-30114464D01*
X81384649Y-29914721D01*
X81309668Y-29725981D01*
X81295459Y-29699399D01*
X81137916Y-29631689D01*
X80568605Y-30201000D01*
X80209395Y-30201000D01*
X79640084Y-29631689D01*
X79482541Y-29699399D01*
X79402100Y-29885879D01*
X79359586Y-30084468D01*
X79356632Y-30287536D01*
X72524500Y-30287536D01*
X72524500Y-29452084D01*
X79819689Y-29452084D01*
X80389000Y-30021395D01*
X80958311Y-29452084D01*
X89979689Y-29452084D01*
X90549000Y-30021395D01*
X91118311Y-29452084D01*
X100012689Y-29452084D01*
X100582000Y-30021395D01*
X101151311Y-29452084D01*
X110045689Y-29452084D01*
X110615000Y-30021395D01*
X111184311Y-29452084D01*
X111116601Y-29294541D01*
X110930121Y-29214100D01*
X110731532Y-29171586D01*
X110528464Y-29168632D01*
X110328721Y-29205351D01*
X110139981Y-29280332D01*
X110113399Y-29294541D01*
X110045689Y-29452084D01*
X101151311Y-29452084D01*
X101083601Y-29294541D01*
X100897121Y-29214100D01*
X100698532Y-29171586D01*
X100495464Y-29168632D01*
X100295721Y-29205351D01*
X100106981Y-29280332D01*
X100080399Y-29294541D01*
X100012689Y-29452084D01*
X91118311Y-29452084D01*
X91050601Y-29294541D01*
X90864121Y-29214100D01*
X90665532Y-29171586D01*
X90462464Y-29168632D01*
X90262721Y-29205351D01*
X90073981Y-29280332D01*
X90047399Y-29294541D01*
X89979689Y-29452084D01*
X80958311Y-29452084D01*
X80890601Y-29294541D01*
X80704121Y-29214100D01*
X80505532Y-29171586D01*
X80302464Y-29168632D01*
X80102721Y-29205351D01*
X79913981Y-29280332D01*
X79887399Y-29294541D01*
X79819689Y-29452084D01*
X72524500Y-29452084D01*
X72524500Y-27882001D01*
X72550142Y-27856359D01*
X72635613Y-27728442D01*
X72694487Y-27586309D01*
X72724500Y-27435422D01*
X72724500Y-27281578D01*
X72694487Y-27130691D01*
X72635613Y-26988558D01*
X72550142Y-26860641D01*
X72441359Y-26751858D01*
X72313442Y-26666387D01*
X72171309Y-26607513D01*
X72020422Y-26577500D01*
X71866578Y-26577500D01*
X71715691Y-26607513D01*
X71573558Y-26666387D01*
X71445641Y-26751858D01*
X71336858Y-26860641D01*
X71251387Y-26988558D01*
X71192513Y-27130691D01*
X71162500Y-27281578D01*
X71162500Y-27435422D01*
X71192513Y-27586309D01*
X71251387Y-27728442D01*
X71336858Y-27856359D01*
X71362500Y-27882001D01*
X71362501Y-34534000D01*
X70274442Y-34534000D01*
X70178922Y-34515000D01*
X70122442Y-34515000D01*
X70121000Y-33789250D01*
X70025750Y-33694000D01*
X69362296Y-33694000D01*
X69382486Y-33685637D01*
X69405180Y-33572215D01*
X69406919Y-33570476D01*
X69406224Y-33567000D01*
X69406919Y-33563524D01*
X69405180Y-33561785D01*
X69382486Y-33448363D01*
X69359102Y-33440000D01*
X70025750Y-33440000D01*
X70121000Y-33344750D01*
X70122843Y-32417000D01*
X70115487Y-32342311D01*
X70093701Y-32270492D01*
X70058322Y-32204304D01*
X70010711Y-32146289D01*
X69952696Y-32098678D01*
X69886508Y-32063299D01*
X69814689Y-32041513D01*
X69740000Y-32034157D01*
X68562250Y-32036000D01*
X68467000Y-32131250D01*
X68467000Y-32786713D01*
X68429412Y-32891814D01*
X68373479Y-32883525D01*
X68247632Y-32889725D01*
X68234261Y-32836376D01*
X68213000Y-32785047D01*
X68213000Y-32131250D01*
X68117750Y-32036000D01*
X66940000Y-32034157D01*
X66865311Y-32041513D01*
X66793492Y-32063299D01*
X66727304Y-32098678D01*
X66669289Y-32146289D01*
X66621678Y-32204304D01*
X66586299Y-32270492D01*
X66564513Y-32342311D01*
X66557157Y-32417000D01*
X66559000Y-33344750D01*
X66654250Y-33440000D01*
X67317704Y-33440000D01*
X67297514Y-33448363D01*
X67274820Y-33561785D01*
X67273081Y-33563524D01*
X67273776Y-33567000D01*
X67273081Y-33570476D01*
X67274820Y-33572215D01*
X67297514Y-33685637D01*
X67320898Y-33694000D01*
X66654250Y-33694000D01*
X66559000Y-33789250D01*
X66557521Y-34534000D01*
X63117000Y-34534000D01*
X63117000Y-25898000D01*
X78772258Y-25898000D01*
X78545958Y-26018959D01*
G37*
%TD.AperFunction*%
D21*
X68533748Y-33552858D02*
X68519605Y-33567000D01*
X68533748Y-33581143D01*
X68400890Y-33714000D01*
X68279110Y-33714000D01*
X68146253Y-33581143D01*
X68160395Y-33567000D01*
X68146253Y-33552858D01*
X68325858Y-33373253D01*
X68340000Y-33387395D01*
X68354143Y-33373253D01*
X68533748Y-33552858D01*
%TA.AperFunction,Conductor*%
D22*
G36*
X68533748Y-33552858D02*
G01*
X68519605Y-33567000D01*
X68533748Y-33581143D01*
X68400890Y-33714000D01*
X68279110Y-33714000D01*
X68146253Y-33581143D01*
X68160395Y-33567000D01*
X68146253Y-33552858D01*
X68325858Y-33373253D01*
X68340000Y-33387395D01*
X68354143Y-33373253D01*
X68533748Y-33552858D01*
G37*
%TD.AperFunction*%
%TD*%
%TO.N,/Bat_minus*%
X62446840Y-27536672D02*
X62426780Y-27508695D01*
X62406975Y-27528500D01*
X62426780Y-27548305D01*
X62446767Y-27554766D01*
X62438054Y-29724419D01*
X62426780Y-29708695D01*
X62406975Y-29728500D01*
X62426780Y-29748305D01*
X62437943Y-29751914D01*
X62432200Y-31182000D01*
X56386000Y-31182000D01*
X56376245Y-31182961D01*
X56366866Y-31185806D01*
X56358221Y-31190427D01*
X56350645Y-31196645D01*
X54572645Y-32974645D01*
X54566427Y-32982221D01*
X54561806Y-32990866D01*
X54558961Y-33000245D01*
X54558000Y-33010000D01*
X54558000Y-40580000D01*
X47038000Y-40580000D01*
X47038000Y-39312000D01*
X48155274Y-39312000D01*
X48158170Y-39341405D01*
X48166747Y-39369680D01*
X48180676Y-39395739D01*
X48199421Y-39418579D01*
X48222261Y-39437324D01*
X48248320Y-39451253D01*
X48276595Y-39459830D01*
X48306000Y-39462726D01*
X50918500Y-39462000D01*
X50956000Y-39424500D01*
X50956000Y-36662000D01*
X51656000Y-36662000D01*
X51656000Y-39424500D01*
X51693500Y-39462000D01*
X54306000Y-39462726D01*
X54335405Y-39459830D01*
X54363680Y-39451253D01*
X54389739Y-39437324D01*
X54412579Y-39418579D01*
X54431324Y-39395739D01*
X54445253Y-39369680D01*
X54453830Y-39341405D01*
X54456726Y-39312000D01*
X54456000Y-36699500D01*
X54418500Y-36662000D01*
X51656000Y-36662000D01*
X50956000Y-36662000D01*
X48193500Y-36662000D01*
X48156000Y-36699500D01*
X48155274Y-39312000D01*
X47038000Y-39312000D01*
X47038000Y-37836067D01*
X47044106Y-33312000D01*
X48155274Y-33312000D01*
X48156000Y-35924500D01*
X48193500Y-35962000D01*
X50956000Y-35962000D01*
X50956000Y-33199500D01*
X51656000Y-33199500D01*
X51656000Y-35962000D01*
X54418500Y-35962000D01*
X54456000Y-35924500D01*
X54456726Y-33312000D01*
X54453830Y-33282595D01*
X54445253Y-33254320D01*
X54431324Y-33228261D01*
X54412579Y-33205421D01*
X54389739Y-33186676D01*
X54363680Y-33172747D01*
X54335405Y-33164170D01*
X54306000Y-33161274D01*
X51693500Y-33162000D01*
X51656000Y-33199500D01*
X50956000Y-33199500D01*
X50918500Y-33162000D01*
X48306000Y-33161274D01*
X48276595Y-33164170D01*
X48248320Y-33172747D01*
X48222261Y-33186676D01*
X48199421Y-33205421D01*
X48180676Y-33228261D01*
X48166747Y-33254320D01*
X48158170Y-33282595D01*
X48155274Y-33312000D01*
X47044106Y-33312000D01*
X47048198Y-30280248D01*
X60480245Y-30280248D01*
X60531805Y-30243280D01*
X60512000Y-30223475D01*
X60492195Y-30243280D01*
X60480245Y-30280248D01*
X61880245Y-30280248D01*
X61931805Y-30243280D01*
X61912000Y-30223475D01*
X61892195Y-30243280D01*
X61880245Y-30280248D01*
X60480245Y-30280248D01*
X47048198Y-30280248D01*
X47048986Y-29696745D01*
X59960252Y-29696745D01*
X59997220Y-29748305D01*
X60017025Y-29728500D01*
X61006975Y-29728500D01*
X61026780Y-29748305D01*
X61063748Y-29760255D01*
X61026780Y-29708695D01*
X61006975Y-29728500D01*
X60017025Y-29728500D01*
X59997220Y-29708695D01*
X59960252Y-29696745D01*
X61360252Y-29696745D01*
X61397220Y-29748305D01*
X61417025Y-29728500D01*
X61397220Y-29708695D01*
X61360252Y-29696745D01*
X59960252Y-29696745D01*
X47048986Y-29696745D01*
X47049638Y-29213720D01*
X60492195Y-29213720D01*
X60512000Y-29233525D01*
X60531805Y-29213720D01*
X61892195Y-29213720D01*
X61912000Y-29233525D01*
X61931805Y-29213720D01*
X61943755Y-29176752D01*
X61892195Y-29213720D01*
X60531805Y-29213720D01*
X60542624Y-29180248D01*
X61180245Y-29180248D01*
X61231805Y-29143280D01*
X61212000Y-29123475D01*
X61192195Y-29143280D01*
X61180245Y-29180248D01*
X60542624Y-29180248D01*
X60543755Y-29176752D01*
X60492195Y-29213720D01*
X47049638Y-29213720D01*
X47049933Y-28996000D01*
X59500000Y-28996000D01*
X59509755Y-28995039D01*
X59519134Y-28992194D01*
X59527779Y-28987573D01*
X59535355Y-28981355D01*
X59541573Y-28973779D01*
X59546194Y-28965134D01*
X59549039Y-28955755D01*
X59550000Y-28946000D01*
X59550000Y-28596745D01*
X60660252Y-28596745D01*
X60697220Y-28648305D01*
X60717025Y-28628500D01*
X61706975Y-28628500D01*
X61726780Y-28648305D01*
X61763748Y-28660255D01*
X61726780Y-28608695D01*
X61706975Y-28628500D01*
X60717025Y-28628500D01*
X60697220Y-28608695D01*
X60660252Y-28596745D01*
X59550000Y-28596745D01*
X59550000Y-28113720D01*
X61192195Y-28113720D01*
X61212000Y-28133525D01*
X61231805Y-28113720D01*
X61242624Y-28080248D01*
X61880245Y-28080248D01*
X61931805Y-28043280D01*
X61912000Y-28023475D01*
X61892195Y-28043280D01*
X61880245Y-28080248D01*
X61242624Y-28080248D01*
X61243755Y-28076752D01*
X61192195Y-28113720D01*
X59550000Y-28113720D01*
X59550000Y-28080248D01*
X60480245Y-28080248D01*
X60531805Y-28043280D01*
X60512000Y-28023475D01*
X60492195Y-28043280D01*
X60480245Y-28080248D01*
X59550000Y-28080248D01*
X59550000Y-27496745D01*
X59960252Y-27496745D01*
X59997220Y-27548305D01*
X60017025Y-27528500D01*
X61006975Y-27528500D01*
X61026780Y-27548305D01*
X61063748Y-27560255D01*
X61026780Y-27508695D01*
X61006975Y-27528500D01*
X60017025Y-27528500D01*
X59997220Y-27508695D01*
X59960252Y-27496745D01*
X61360252Y-27496745D01*
X61397220Y-27548305D01*
X61417025Y-27528500D01*
X61397220Y-27508695D01*
X61360252Y-27496745D01*
X59960252Y-27496745D01*
X59550000Y-27496745D01*
X59550000Y-27013720D01*
X60492195Y-27013720D01*
X60512000Y-27033525D01*
X60531805Y-27013720D01*
X61892195Y-27013720D01*
X61912000Y-27033525D01*
X61931805Y-27013720D01*
X61943755Y-26976752D01*
X61892195Y-27013720D01*
X60531805Y-27013720D01*
X60543755Y-26976752D01*
X60492195Y-27013720D01*
X59550000Y-27013720D01*
X59550000Y-26800000D01*
X62449798Y-26800000D01*
X62446840Y-27536672D01*
%TA.AperFunction,Conductor*%
G36*
X62446840Y-27536672D02*
G01*
X62426780Y-27508695D01*
X62406975Y-27528500D01*
X62426780Y-27548305D01*
X62446767Y-27554766D01*
X62438054Y-29724419D01*
X62426780Y-29708695D01*
X62406975Y-29728500D01*
X62426780Y-29748305D01*
X62437943Y-29751914D01*
X62432200Y-31182000D01*
X56386000Y-31182000D01*
X56376245Y-31182961D01*
X56366866Y-31185806D01*
X56358221Y-31190427D01*
X56350645Y-31196645D01*
X54572645Y-32974645D01*
X54566427Y-32982221D01*
X54561806Y-32990866D01*
X54558961Y-33000245D01*
X54558000Y-33010000D01*
X54558000Y-40580000D01*
X47038000Y-40580000D01*
X47038000Y-39312000D01*
X48155274Y-39312000D01*
X48158170Y-39341405D01*
X48166747Y-39369680D01*
X48180676Y-39395739D01*
X48199421Y-39418579D01*
X48222261Y-39437324D01*
X48248320Y-39451253D01*
X48276595Y-39459830D01*
X48306000Y-39462726D01*
X50918500Y-39462000D01*
X50956000Y-39424500D01*
X50956000Y-36662000D01*
X51656000Y-36662000D01*
X51656000Y-39424500D01*
X51693500Y-39462000D01*
X54306000Y-39462726D01*
X54335405Y-39459830D01*
X54363680Y-39451253D01*
X54389739Y-39437324D01*
X54412579Y-39418579D01*
X54431324Y-39395739D01*
X54445253Y-39369680D01*
X54453830Y-39341405D01*
X54456726Y-39312000D01*
X54456000Y-36699500D01*
X54418500Y-36662000D01*
X51656000Y-36662000D01*
X50956000Y-36662000D01*
X48193500Y-36662000D01*
X48156000Y-36699500D01*
X48155274Y-39312000D01*
X47038000Y-39312000D01*
X47038000Y-37836067D01*
X47044106Y-33312000D01*
X48155274Y-33312000D01*
X48156000Y-35924500D01*
X48193500Y-35962000D01*
X50956000Y-35962000D01*
X50956000Y-33199500D01*
X51656000Y-33199500D01*
X51656000Y-35962000D01*
X54418500Y-35962000D01*
X54456000Y-35924500D01*
X54456726Y-33312000D01*
X54453830Y-33282595D01*
X54445253Y-33254320D01*
X54431324Y-33228261D01*
X54412579Y-33205421D01*
X54389739Y-33186676D01*
X54363680Y-33172747D01*
X54335405Y-33164170D01*
X54306000Y-33161274D01*
X51693500Y-33162000D01*
X51656000Y-33199500D01*
X50956000Y-33199500D01*
X50918500Y-33162000D01*
X48306000Y-33161274D01*
X48276595Y-33164170D01*
X48248320Y-33172747D01*
X48222261Y-33186676D01*
X48199421Y-33205421D01*
X48180676Y-33228261D01*
X48166747Y-33254320D01*
X48158170Y-33282595D01*
X48155274Y-33312000D01*
X47044106Y-33312000D01*
X47048198Y-30280248D01*
X60480245Y-30280248D01*
X60531805Y-30243280D01*
X60512000Y-30223475D01*
X60492195Y-30243280D01*
X60480245Y-30280248D01*
X61880245Y-30280248D01*
X61931805Y-30243280D01*
X61912000Y-30223475D01*
X61892195Y-30243280D01*
X61880245Y-30280248D01*
X60480245Y-30280248D01*
X47048198Y-30280248D01*
X47048986Y-29696745D01*
X59960252Y-29696745D01*
X59997220Y-29748305D01*
X60017025Y-29728500D01*
X61006975Y-29728500D01*
X61026780Y-29748305D01*
X61063748Y-29760255D01*
X61026780Y-29708695D01*
X61006975Y-29728500D01*
X60017025Y-29728500D01*
X59997220Y-29708695D01*
X59960252Y-29696745D01*
X61360252Y-29696745D01*
X61397220Y-29748305D01*
X61417025Y-29728500D01*
X61397220Y-29708695D01*
X61360252Y-29696745D01*
X59960252Y-29696745D01*
X47048986Y-29696745D01*
X47049638Y-29213720D01*
X60492195Y-29213720D01*
X60512000Y-29233525D01*
X60531805Y-29213720D01*
X61892195Y-29213720D01*
X61912000Y-29233525D01*
X61931805Y-29213720D01*
X61943755Y-29176752D01*
X61892195Y-29213720D01*
X60531805Y-29213720D01*
X60542624Y-29180248D01*
X61180245Y-29180248D01*
X61231805Y-29143280D01*
X61212000Y-29123475D01*
X61192195Y-29143280D01*
X61180245Y-29180248D01*
X60542624Y-29180248D01*
X60543755Y-29176752D01*
X60492195Y-29213720D01*
X47049638Y-29213720D01*
X47049933Y-28996000D01*
X59500000Y-28996000D01*
X59509755Y-28995039D01*
X59519134Y-28992194D01*
X59527779Y-28987573D01*
X59535355Y-28981355D01*
X59541573Y-28973779D01*
X59546194Y-28965134D01*
X59549039Y-28955755D01*
X59550000Y-28946000D01*
X59550000Y-28596745D01*
X60660252Y-28596745D01*
X60697220Y-28648305D01*
X60717025Y-28628500D01*
X61706975Y-28628500D01*
X61726780Y-28648305D01*
X61763748Y-28660255D01*
X61726780Y-28608695D01*
X61706975Y-28628500D01*
X60717025Y-28628500D01*
X60697220Y-28608695D01*
X60660252Y-28596745D01*
X59550000Y-28596745D01*
X59550000Y-28113720D01*
X61192195Y-28113720D01*
X61212000Y-28133525D01*
X61231805Y-28113720D01*
X61242624Y-28080248D01*
X61880245Y-28080248D01*
X61931805Y-28043280D01*
X61912000Y-28023475D01*
X61892195Y-28043280D01*
X61880245Y-28080248D01*
X61242624Y-28080248D01*
X61243755Y-28076752D01*
X61192195Y-28113720D01*
X59550000Y-28113720D01*
X59550000Y-28080248D01*
X60480245Y-28080248D01*
X60531805Y-28043280D01*
X60512000Y-28023475D01*
X60492195Y-28043280D01*
X60480245Y-28080248D01*
X59550000Y-28080248D01*
X59550000Y-27496745D01*
X59960252Y-27496745D01*
X59997220Y-27548305D01*
X60017025Y-27528500D01*
X61006975Y-27528500D01*
X61026780Y-27548305D01*
X61063748Y-27560255D01*
X61026780Y-27508695D01*
X61006975Y-27528500D01*
X60017025Y-27528500D01*
X59997220Y-27508695D01*
X59960252Y-27496745D01*
X61360252Y-27496745D01*
X61397220Y-27548305D01*
X61417025Y-27528500D01*
X61397220Y-27508695D01*
X61360252Y-27496745D01*
X59960252Y-27496745D01*
X59550000Y-27496745D01*
X59550000Y-27013720D01*
X60492195Y-27013720D01*
X60512000Y-27033525D01*
X60531805Y-27013720D01*
X61892195Y-27013720D01*
X61912000Y-27033525D01*
X61931805Y-27013720D01*
X61943755Y-26976752D01*
X61892195Y-27013720D01*
X60531805Y-27013720D01*
X60543755Y-26976752D01*
X60492195Y-27013720D01*
X59550000Y-27013720D01*
X59550000Y-26800000D01*
X62449798Y-26800000D01*
X62446840Y-27536672D01*
G37*
%TD.AperFunction*%
%TD*%
D21*
%TO.N,/Vout*%
X62348078Y-71512741D02*
X62609000Y-71538440D01*
X62869921Y-71512741D01*
X62956426Y-71486500D01*
X66716446Y-71486500D01*
X66731776Y-71501830D01*
X66900638Y-71614661D01*
X67088268Y-71692380D01*
X67287455Y-71732000D01*
X67490545Y-71732000D01*
X67689732Y-71692380D01*
X67877362Y-71614661D01*
X68046224Y-71501830D01*
X68061554Y-71486500D01*
X72421573Y-71486500D01*
X72508078Y-71512741D01*
X72769000Y-71538440D01*
X73029921Y-71512741D01*
X73116426Y-71486500D01*
X76876446Y-71486500D01*
X76891776Y-71501830D01*
X77060638Y-71614661D01*
X77248268Y-71692380D01*
X77447455Y-71732000D01*
X77650545Y-71732000D01*
X77849732Y-71692380D01*
X78037362Y-71614661D01*
X78206224Y-71501830D01*
X78221554Y-71486500D01*
X82454573Y-71486500D01*
X82541078Y-71512741D01*
X82802000Y-71538440D01*
X83062921Y-71512741D01*
X83149426Y-71486500D01*
X86909446Y-71486500D01*
X86924776Y-71501830D01*
X87093638Y-71614661D01*
X87281268Y-71692380D01*
X87480455Y-71732000D01*
X87683545Y-71732000D01*
X87882732Y-71692380D01*
X88070362Y-71614661D01*
X88239224Y-71501830D01*
X88254554Y-71486500D01*
X92487573Y-71486500D01*
X92574078Y-71512741D01*
X92835000Y-71538440D01*
X93095921Y-71512741D01*
X93182426Y-71486500D01*
X96942446Y-71486500D01*
X96957776Y-71501830D01*
X97126638Y-71614661D01*
X97314268Y-71692380D01*
X97513455Y-71732000D01*
X97716545Y-71732000D01*
X97915732Y-71692380D01*
X98103362Y-71614661D01*
X98272224Y-71501830D01*
X98287554Y-71486500D01*
X98885000Y-71486500D01*
X98885000Y-77519000D01*
X97986048Y-77519000D01*
X98026816Y-77506633D01*
X98258042Y-77383041D01*
X98460713Y-77216713D01*
X98627041Y-77014042D01*
X98750633Y-76782816D01*
X98826741Y-76531922D01*
X98852440Y-76271000D01*
X98826741Y-76010078D01*
X98750633Y-75759184D01*
X98627041Y-75527958D01*
X98460713Y-75325287D01*
X98258042Y-75158959D01*
X98026816Y-75035367D01*
X97775922Y-74959259D01*
X97580385Y-74940000D01*
X96449615Y-74940000D01*
X96254078Y-74959259D01*
X96003184Y-75035367D01*
X95771958Y-75158959D01*
X95569287Y-75325287D01*
X95402959Y-75527958D01*
X95279367Y-75759184D01*
X95203259Y-76010078D01*
X95177560Y-76271000D01*
X95203259Y-76531922D01*
X95279367Y-76782816D01*
X95402959Y-77014042D01*
X95569287Y-77216713D01*
X95771958Y-77383041D01*
X96003184Y-77506633D01*
X96043952Y-77519000D01*
X87953048Y-77519000D01*
X87993816Y-77506633D01*
X88225042Y-77383041D01*
X88427713Y-77216713D01*
X88594041Y-77014042D01*
X88717633Y-76782816D01*
X88793741Y-76531922D01*
X88819440Y-76271000D01*
X88793741Y-76010078D01*
X88717633Y-75759184D01*
X88594041Y-75527958D01*
X88427713Y-75325287D01*
X88225042Y-75158959D01*
X87993816Y-75035367D01*
X87742922Y-74959259D01*
X87547385Y-74940000D01*
X86416615Y-74940000D01*
X86221078Y-74959259D01*
X85970184Y-75035367D01*
X85738958Y-75158959D01*
X85536287Y-75325287D01*
X85369959Y-75527958D01*
X85246367Y-75759184D01*
X85170259Y-76010078D01*
X85144560Y-76271000D01*
X85170259Y-76531922D01*
X85246367Y-76782816D01*
X85369959Y-77014042D01*
X85536287Y-77216713D01*
X85738958Y-77383041D01*
X85970184Y-77506633D01*
X86010952Y-77519000D01*
X77920048Y-77519000D01*
X77960816Y-77506633D01*
X78192042Y-77383041D01*
X78394713Y-77216713D01*
X78561041Y-77014042D01*
X78684633Y-76782816D01*
X78760741Y-76531922D01*
X78786440Y-76271000D01*
X78760741Y-76010078D01*
X78684633Y-75759184D01*
X78561041Y-75527958D01*
X78394713Y-75325287D01*
X78192042Y-75158959D01*
X77960816Y-75035367D01*
X77709922Y-74959259D01*
X77514385Y-74940000D01*
X76383615Y-74940000D01*
X76188078Y-74959259D01*
X75937184Y-75035367D01*
X75705958Y-75158959D01*
X75503287Y-75325287D01*
X75336959Y-75527958D01*
X75213367Y-75759184D01*
X75137259Y-76010078D01*
X75111560Y-76271000D01*
X75137259Y-76531922D01*
X75213367Y-76782816D01*
X75336959Y-77014042D01*
X75503287Y-77216713D01*
X75705958Y-77383041D01*
X75937184Y-77506633D01*
X75977952Y-77519000D01*
X67760048Y-77519000D01*
X67800816Y-77506633D01*
X68032042Y-77383041D01*
X68234713Y-77216713D01*
X68401041Y-77014042D01*
X68524633Y-76782816D01*
X68600741Y-76531922D01*
X68626440Y-76271000D01*
X68600741Y-76010078D01*
X68524633Y-75759184D01*
X68401041Y-75527958D01*
X68234713Y-75325287D01*
X68032042Y-75158959D01*
X67800816Y-75035367D01*
X67549922Y-74959259D01*
X67354385Y-74940000D01*
X66223615Y-74940000D01*
X66028078Y-74959259D01*
X65777184Y-75035367D01*
X65545958Y-75158959D01*
X65343287Y-75325287D01*
X65176959Y-75527958D01*
X65053367Y-75759184D01*
X64977259Y-76010078D01*
X64951560Y-76271000D01*
X64977259Y-76531922D01*
X65053367Y-76782816D01*
X65176959Y-77014042D01*
X65343287Y-77216713D01*
X65545958Y-77383041D01*
X65777184Y-77506633D01*
X65817952Y-77519000D01*
X61282106Y-77519000D01*
X59451500Y-75688394D01*
X59451500Y-73851000D01*
X66356157Y-73851000D01*
X66363513Y-73925689D01*
X66385299Y-73997508D01*
X66420678Y-74063696D01*
X66468289Y-74121711D01*
X66526304Y-74169322D01*
X66592492Y-74204701D01*
X66664311Y-74226487D01*
X66739000Y-74233843D01*
X67166750Y-74232000D01*
X67262000Y-74136750D01*
X67262000Y-73328000D01*
X67516000Y-73328000D01*
X67516000Y-74136750D01*
X67611250Y-74232000D01*
X68039000Y-74233843D01*
X68113689Y-74226487D01*
X68185508Y-74204701D01*
X68251696Y-74169322D01*
X68309711Y-74121711D01*
X68357322Y-74063696D01*
X68392701Y-73997508D01*
X68414487Y-73925689D01*
X68421843Y-73851000D01*
X76516157Y-73851000D01*
X76523513Y-73925689D01*
X76545299Y-73997508D01*
X76580678Y-74063696D01*
X76628289Y-74121711D01*
X76686304Y-74169322D01*
X76752492Y-74204701D01*
X76824311Y-74226487D01*
X76899000Y-74233843D01*
X77326750Y-74232000D01*
X77422000Y-74136750D01*
X77422000Y-73328000D01*
X77676000Y-73328000D01*
X77676000Y-74136750D01*
X77771250Y-74232000D01*
X78199000Y-74233843D01*
X78273689Y-74226487D01*
X78345508Y-74204701D01*
X78411696Y-74169322D01*
X78469711Y-74121711D01*
X78517322Y-74063696D01*
X78552701Y-73997508D01*
X78574487Y-73925689D01*
X78581843Y-73851000D01*
X86549157Y-73851000D01*
X86556513Y-73925689D01*
X86578299Y-73997508D01*
X86613678Y-74063696D01*
X86661289Y-74121711D01*
X86719304Y-74169322D01*
X86785492Y-74204701D01*
X86857311Y-74226487D01*
X86932000Y-74233843D01*
X87359750Y-74232000D01*
X87455000Y-74136750D01*
X87455000Y-73328000D01*
X87709000Y-73328000D01*
X87709000Y-74136750D01*
X87804250Y-74232000D01*
X88232000Y-74233843D01*
X88306689Y-74226487D01*
X88378508Y-74204701D01*
X88444696Y-74169322D01*
X88502711Y-74121711D01*
X88550322Y-74063696D01*
X88585701Y-73997508D01*
X88607487Y-73925689D01*
X88614843Y-73851000D01*
X96582157Y-73851000D01*
X96589513Y-73925689D01*
X96611299Y-73997508D01*
X96646678Y-74063696D01*
X96694289Y-74121711D01*
X96752304Y-74169322D01*
X96818492Y-74204701D01*
X96890311Y-74226487D01*
X96965000Y-74233843D01*
X97392750Y-74232000D01*
X97488000Y-74136750D01*
X97488000Y-73328000D01*
X97742000Y-73328000D01*
X97742000Y-74136750D01*
X97837250Y-74232000D01*
X98265000Y-74233843D01*
X98339689Y-74226487D01*
X98411508Y-74204701D01*
X98477696Y-74169322D01*
X98535711Y-74121711D01*
X98583322Y-74063696D01*
X98618701Y-73997508D01*
X98640487Y-73925689D01*
X98647843Y-73851000D01*
X98646000Y-73423250D01*
X98550750Y-73328000D01*
X97742000Y-73328000D01*
X97488000Y-73328000D01*
X96679250Y-73328000D01*
X96584000Y-73423250D01*
X96582157Y-73851000D01*
X88614843Y-73851000D01*
X88613000Y-73423250D01*
X88517750Y-73328000D01*
X87709000Y-73328000D01*
X87455000Y-73328000D01*
X86646250Y-73328000D01*
X86551000Y-73423250D01*
X86549157Y-73851000D01*
X78581843Y-73851000D01*
X78580000Y-73423250D01*
X78484750Y-73328000D01*
X77676000Y-73328000D01*
X77422000Y-73328000D01*
X76613250Y-73328000D01*
X76518000Y-73423250D01*
X76516157Y-73851000D01*
X68421843Y-73851000D01*
X68420000Y-73423250D01*
X68324750Y-73328000D01*
X67516000Y-73328000D01*
X67262000Y-73328000D01*
X66453250Y-73328000D01*
X66358000Y-73423250D01*
X66356157Y-73851000D01*
X59451500Y-73851000D01*
X59451500Y-72551000D01*
X66356157Y-72551000D01*
X66358000Y-72978750D01*
X66453250Y-73074000D01*
X67262000Y-73074000D01*
X67262000Y-72265250D01*
X67516000Y-72265250D01*
X67516000Y-73074000D01*
X68324750Y-73074000D01*
X68420000Y-72978750D01*
X68421843Y-72551000D01*
X76516157Y-72551000D01*
X76518000Y-72978750D01*
X76613250Y-73074000D01*
X77422000Y-73074000D01*
X77422000Y-72265250D01*
X77676000Y-72265250D01*
X77676000Y-73074000D01*
X78484750Y-73074000D01*
X78580000Y-72978750D01*
X78581843Y-72551000D01*
X86549157Y-72551000D01*
X86551000Y-72978750D01*
X86646250Y-73074000D01*
X87455000Y-73074000D01*
X87455000Y-72265250D01*
X87709000Y-72265250D01*
X87709000Y-73074000D01*
X88517750Y-73074000D01*
X88613000Y-72978750D01*
X88614843Y-72551000D01*
X96582157Y-72551000D01*
X96584000Y-72978750D01*
X96679250Y-73074000D01*
X97488000Y-73074000D01*
X97488000Y-72265250D01*
X97742000Y-72265250D01*
X97742000Y-73074000D01*
X98550750Y-73074000D01*
X98646000Y-72978750D01*
X98647843Y-72551000D01*
X98640487Y-72476311D01*
X98618701Y-72404492D01*
X98583322Y-72338304D01*
X98535711Y-72280289D01*
X98477696Y-72232678D01*
X98411508Y-72197299D01*
X98339689Y-72175513D01*
X98265000Y-72168157D01*
X97837250Y-72170000D01*
X97742000Y-72265250D01*
X97488000Y-72265250D01*
X97392750Y-72170000D01*
X96965000Y-72168157D01*
X96890311Y-72175513D01*
X96818492Y-72197299D01*
X96752304Y-72232678D01*
X96694289Y-72280289D01*
X96646678Y-72338304D01*
X96611299Y-72404492D01*
X96589513Y-72476311D01*
X96582157Y-72551000D01*
X88614843Y-72551000D01*
X88607487Y-72476311D01*
X88585701Y-72404492D01*
X88550322Y-72338304D01*
X88502711Y-72280289D01*
X88444696Y-72232678D01*
X88378508Y-72197299D01*
X88306689Y-72175513D01*
X88232000Y-72168157D01*
X87804250Y-72170000D01*
X87709000Y-72265250D01*
X87455000Y-72265250D01*
X87359750Y-72170000D01*
X86932000Y-72168157D01*
X86857311Y-72175513D01*
X86785492Y-72197299D01*
X86719304Y-72232678D01*
X86661289Y-72280289D01*
X86613678Y-72338304D01*
X86578299Y-72404492D01*
X86556513Y-72476311D01*
X86549157Y-72551000D01*
X78581843Y-72551000D01*
X78574487Y-72476311D01*
X78552701Y-72404492D01*
X78517322Y-72338304D01*
X78469711Y-72280289D01*
X78411696Y-72232678D01*
X78345508Y-72197299D01*
X78273689Y-72175513D01*
X78199000Y-72168157D01*
X77771250Y-72170000D01*
X77676000Y-72265250D01*
X77422000Y-72265250D01*
X77326750Y-72170000D01*
X76899000Y-72168157D01*
X76824311Y-72175513D01*
X76752492Y-72197299D01*
X76686304Y-72232678D01*
X76628289Y-72280289D01*
X76580678Y-72338304D01*
X76545299Y-72404492D01*
X76523513Y-72476311D01*
X76516157Y-72551000D01*
X68421843Y-72551000D01*
X68414487Y-72476311D01*
X68392701Y-72404492D01*
X68357322Y-72338304D01*
X68309711Y-72280289D01*
X68251696Y-72232678D01*
X68185508Y-72197299D01*
X68113689Y-72175513D01*
X68039000Y-72168157D01*
X67611250Y-72170000D01*
X67516000Y-72265250D01*
X67262000Y-72265250D01*
X67166750Y-72170000D01*
X66739000Y-72168157D01*
X66664311Y-72175513D01*
X66592492Y-72197299D01*
X66526304Y-72232678D01*
X66468289Y-72280289D01*
X66420678Y-72338304D01*
X66385299Y-72404492D01*
X66363513Y-72476311D01*
X66356157Y-72551000D01*
X59451500Y-72551000D01*
X59451500Y-71486500D01*
X62261573Y-71486500D01*
X62348078Y-71512741D01*
%TA.AperFunction,Conductor*%
D22*
G36*
X62348078Y-71512741D02*
G01*
X62609000Y-71538440D01*
X62869921Y-71512741D01*
X62956426Y-71486500D01*
X66716446Y-71486500D01*
X66731776Y-71501830D01*
X66900638Y-71614661D01*
X67088268Y-71692380D01*
X67287455Y-71732000D01*
X67490545Y-71732000D01*
X67689732Y-71692380D01*
X67877362Y-71614661D01*
X68046224Y-71501830D01*
X68061554Y-71486500D01*
X72421573Y-71486500D01*
X72508078Y-71512741D01*
X72769000Y-71538440D01*
X73029921Y-71512741D01*
X73116426Y-71486500D01*
X76876446Y-71486500D01*
X76891776Y-71501830D01*
X77060638Y-71614661D01*
X77248268Y-71692380D01*
X77447455Y-71732000D01*
X77650545Y-71732000D01*
X77849732Y-71692380D01*
X78037362Y-71614661D01*
X78206224Y-71501830D01*
X78221554Y-71486500D01*
X82454573Y-71486500D01*
X82541078Y-71512741D01*
X82802000Y-71538440D01*
X83062921Y-71512741D01*
X83149426Y-71486500D01*
X86909446Y-71486500D01*
X86924776Y-71501830D01*
X87093638Y-71614661D01*
X87281268Y-71692380D01*
X87480455Y-71732000D01*
X87683545Y-71732000D01*
X87882732Y-71692380D01*
X88070362Y-71614661D01*
X88239224Y-71501830D01*
X88254554Y-71486500D01*
X92487573Y-71486500D01*
X92574078Y-71512741D01*
X92835000Y-71538440D01*
X93095921Y-71512741D01*
X93182426Y-71486500D01*
X96942446Y-71486500D01*
X96957776Y-71501830D01*
X97126638Y-71614661D01*
X97314268Y-71692380D01*
X97513455Y-71732000D01*
X97716545Y-71732000D01*
X97915732Y-71692380D01*
X98103362Y-71614661D01*
X98272224Y-71501830D01*
X98287554Y-71486500D01*
X98885000Y-71486500D01*
X98885000Y-77519000D01*
X97986048Y-77519000D01*
X98026816Y-77506633D01*
X98258042Y-77383041D01*
X98460713Y-77216713D01*
X98627041Y-77014042D01*
X98750633Y-76782816D01*
X98826741Y-76531922D01*
X98852440Y-76271000D01*
X98826741Y-76010078D01*
X98750633Y-75759184D01*
X98627041Y-75527958D01*
X98460713Y-75325287D01*
X98258042Y-75158959D01*
X98026816Y-75035367D01*
X97775922Y-74959259D01*
X97580385Y-74940000D01*
X96449615Y-74940000D01*
X96254078Y-74959259D01*
X96003184Y-75035367D01*
X95771958Y-75158959D01*
X95569287Y-75325287D01*
X95402959Y-75527958D01*
X95279367Y-75759184D01*
X95203259Y-76010078D01*
X95177560Y-76271000D01*
X95203259Y-76531922D01*
X95279367Y-76782816D01*
X95402959Y-77014042D01*
X95569287Y-77216713D01*
X95771958Y-77383041D01*
X96003184Y-77506633D01*
X96043952Y-77519000D01*
X87953048Y-77519000D01*
X87993816Y-77506633D01*
X88225042Y-77383041D01*
X88427713Y-77216713D01*
X88594041Y-77014042D01*
X88717633Y-76782816D01*
X88793741Y-76531922D01*
X88819440Y-76271000D01*
X88793741Y-76010078D01*
X88717633Y-75759184D01*
X88594041Y-75527958D01*
X88427713Y-75325287D01*
X88225042Y-75158959D01*
X87993816Y-75035367D01*
X87742922Y-74959259D01*
X87547385Y-74940000D01*
X86416615Y-74940000D01*
X86221078Y-74959259D01*
X85970184Y-75035367D01*
X85738958Y-75158959D01*
X85536287Y-75325287D01*
X85369959Y-75527958D01*
X85246367Y-75759184D01*
X85170259Y-76010078D01*
X85144560Y-76271000D01*
X85170259Y-76531922D01*
X85246367Y-76782816D01*
X85369959Y-77014042D01*
X85536287Y-77216713D01*
X85738958Y-77383041D01*
X85970184Y-77506633D01*
X86010952Y-77519000D01*
X77920048Y-77519000D01*
X77960816Y-77506633D01*
X78192042Y-77383041D01*
X78394713Y-77216713D01*
X78561041Y-77014042D01*
X78684633Y-76782816D01*
X78760741Y-76531922D01*
X78786440Y-76271000D01*
X78760741Y-76010078D01*
X78684633Y-75759184D01*
X78561041Y-75527958D01*
X78394713Y-75325287D01*
X78192042Y-75158959D01*
X77960816Y-75035367D01*
X77709922Y-74959259D01*
X77514385Y-74940000D01*
X76383615Y-74940000D01*
X76188078Y-74959259D01*
X75937184Y-75035367D01*
X75705958Y-75158959D01*
X75503287Y-75325287D01*
X75336959Y-75527958D01*
X75213367Y-75759184D01*
X75137259Y-76010078D01*
X75111560Y-76271000D01*
X75137259Y-76531922D01*
X75213367Y-76782816D01*
X75336959Y-77014042D01*
X75503287Y-77216713D01*
X75705958Y-77383041D01*
X75937184Y-77506633D01*
X75977952Y-77519000D01*
X67760048Y-77519000D01*
X67800816Y-77506633D01*
X68032042Y-77383041D01*
X68234713Y-77216713D01*
X68401041Y-77014042D01*
X68524633Y-76782816D01*
X68600741Y-76531922D01*
X68626440Y-76271000D01*
X68600741Y-76010078D01*
X68524633Y-75759184D01*
X68401041Y-75527958D01*
X68234713Y-75325287D01*
X68032042Y-75158959D01*
X67800816Y-75035367D01*
X67549922Y-74959259D01*
X67354385Y-74940000D01*
X66223615Y-74940000D01*
X66028078Y-74959259D01*
X65777184Y-75035367D01*
X65545958Y-75158959D01*
X65343287Y-75325287D01*
X65176959Y-75527958D01*
X65053367Y-75759184D01*
X64977259Y-76010078D01*
X64951560Y-76271000D01*
X64977259Y-76531922D01*
X65053367Y-76782816D01*
X65176959Y-77014042D01*
X65343287Y-77216713D01*
X65545958Y-77383041D01*
X65777184Y-77506633D01*
X65817952Y-77519000D01*
X61282106Y-77519000D01*
X59451500Y-75688394D01*
X59451500Y-73851000D01*
X66356157Y-73851000D01*
X66363513Y-73925689D01*
X66385299Y-73997508D01*
X66420678Y-74063696D01*
X66468289Y-74121711D01*
X66526304Y-74169322D01*
X66592492Y-74204701D01*
X66664311Y-74226487D01*
X66739000Y-74233843D01*
X67166750Y-74232000D01*
X67262000Y-74136750D01*
X67262000Y-73328000D01*
X67516000Y-73328000D01*
X67516000Y-74136750D01*
X67611250Y-74232000D01*
X68039000Y-74233843D01*
X68113689Y-74226487D01*
X68185508Y-74204701D01*
X68251696Y-74169322D01*
X68309711Y-74121711D01*
X68357322Y-74063696D01*
X68392701Y-73997508D01*
X68414487Y-73925689D01*
X68421843Y-73851000D01*
X76516157Y-73851000D01*
X76523513Y-73925689D01*
X76545299Y-73997508D01*
X76580678Y-74063696D01*
X76628289Y-74121711D01*
X76686304Y-74169322D01*
X76752492Y-74204701D01*
X76824311Y-74226487D01*
X76899000Y-74233843D01*
X77326750Y-74232000D01*
X77422000Y-74136750D01*
X77422000Y-73328000D01*
X77676000Y-73328000D01*
X77676000Y-74136750D01*
X77771250Y-74232000D01*
X78199000Y-74233843D01*
X78273689Y-74226487D01*
X78345508Y-74204701D01*
X78411696Y-74169322D01*
X78469711Y-74121711D01*
X78517322Y-74063696D01*
X78552701Y-73997508D01*
X78574487Y-73925689D01*
X78581843Y-73851000D01*
X86549157Y-73851000D01*
X86556513Y-73925689D01*
X86578299Y-73997508D01*
X86613678Y-74063696D01*
X86661289Y-74121711D01*
X86719304Y-74169322D01*
X86785492Y-74204701D01*
X86857311Y-74226487D01*
X86932000Y-74233843D01*
X87359750Y-74232000D01*
X87455000Y-74136750D01*
X87455000Y-73328000D01*
X87709000Y-73328000D01*
X87709000Y-74136750D01*
X87804250Y-74232000D01*
X88232000Y-74233843D01*
X88306689Y-74226487D01*
X88378508Y-74204701D01*
X88444696Y-74169322D01*
X88502711Y-74121711D01*
X88550322Y-74063696D01*
X88585701Y-73997508D01*
X88607487Y-73925689D01*
X88614843Y-73851000D01*
X96582157Y-73851000D01*
X96589513Y-73925689D01*
X96611299Y-73997508D01*
X96646678Y-74063696D01*
X96694289Y-74121711D01*
X96752304Y-74169322D01*
X96818492Y-74204701D01*
X96890311Y-74226487D01*
X96965000Y-74233843D01*
X97392750Y-74232000D01*
X97488000Y-74136750D01*
X97488000Y-73328000D01*
X97742000Y-73328000D01*
X97742000Y-74136750D01*
X97837250Y-74232000D01*
X98265000Y-74233843D01*
X98339689Y-74226487D01*
X98411508Y-74204701D01*
X98477696Y-74169322D01*
X98535711Y-74121711D01*
X98583322Y-74063696D01*
X98618701Y-73997508D01*
X98640487Y-73925689D01*
X98647843Y-73851000D01*
X98646000Y-73423250D01*
X98550750Y-73328000D01*
X97742000Y-73328000D01*
X97488000Y-73328000D01*
X96679250Y-73328000D01*
X96584000Y-73423250D01*
X96582157Y-73851000D01*
X88614843Y-73851000D01*
X88613000Y-73423250D01*
X88517750Y-73328000D01*
X87709000Y-73328000D01*
X87455000Y-73328000D01*
X86646250Y-73328000D01*
X86551000Y-73423250D01*
X86549157Y-73851000D01*
X78581843Y-73851000D01*
X78580000Y-73423250D01*
X78484750Y-73328000D01*
X77676000Y-73328000D01*
X77422000Y-73328000D01*
X76613250Y-73328000D01*
X76518000Y-73423250D01*
X76516157Y-73851000D01*
X68421843Y-73851000D01*
X68420000Y-73423250D01*
X68324750Y-73328000D01*
X67516000Y-73328000D01*
X67262000Y-73328000D01*
X66453250Y-73328000D01*
X66358000Y-73423250D01*
X66356157Y-73851000D01*
X59451500Y-73851000D01*
X59451500Y-72551000D01*
X66356157Y-72551000D01*
X66358000Y-72978750D01*
X66453250Y-73074000D01*
X67262000Y-73074000D01*
X67262000Y-72265250D01*
X67516000Y-72265250D01*
X67516000Y-73074000D01*
X68324750Y-73074000D01*
X68420000Y-72978750D01*
X68421843Y-72551000D01*
X76516157Y-72551000D01*
X76518000Y-72978750D01*
X76613250Y-73074000D01*
X77422000Y-73074000D01*
X77422000Y-72265250D01*
X77676000Y-72265250D01*
X77676000Y-73074000D01*
X78484750Y-73074000D01*
X78580000Y-72978750D01*
X78581843Y-72551000D01*
X86549157Y-72551000D01*
X86551000Y-72978750D01*
X86646250Y-73074000D01*
X87455000Y-73074000D01*
X87455000Y-72265250D01*
X87709000Y-72265250D01*
X87709000Y-73074000D01*
X88517750Y-73074000D01*
X88613000Y-72978750D01*
X88614843Y-72551000D01*
X96582157Y-72551000D01*
X96584000Y-72978750D01*
X96679250Y-73074000D01*
X97488000Y-73074000D01*
X97488000Y-72265250D01*
X97742000Y-72265250D01*
X97742000Y-73074000D01*
X98550750Y-73074000D01*
X98646000Y-72978750D01*
X98647843Y-72551000D01*
X98640487Y-72476311D01*
X98618701Y-72404492D01*
X98583322Y-72338304D01*
X98535711Y-72280289D01*
X98477696Y-72232678D01*
X98411508Y-72197299D01*
X98339689Y-72175513D01*
X98265000Y-72168157D01*
X97837250Y-72170000D01*
X97742000Y-72265250D01*
X97488000Y-72265250D01*
X97392750Y-72170000D01*
X96965000Y-72168157D01*
X96890311Y-72175513D01*
X96818492Y-72197299D01*
X96752304Y-72232678D01*
X96694289Y-72280289D01*
X96646678Y-72338304D01*
X96611299Y-72404492D01*
X96589513Y-72476311D01*
X96582157Y-72551000D01*
X88614843Y-72551000D01*
X88607487Y-72476311D01*
X88585701Y-72404492D01*
X88550322Y-72338304D01*
X88502711Y-72280289D01*
X88444696Y-72232678D01*
X88378508Y-72197299D01*
X88306689Y-72175513D01*
X88232000Y-72168157D01*
X87804250Y-72170000D01*
X87709000Y-72265250D01*
X87455000Y-72265250D01*
X87359750Y-72170000D01*
X86932000Y-72168157D01*
X86857311Y-72175513D01*
X86785492Y-72197299D01*
X86719304Y-72232678D01*
X86661289Y-72280289D01*
X86613678Y-72338304D01*
X86578299Y-72404492D01*
X86556513Y-72476311D01*
X86549157Y-72551000D01*
X78581843Y-72551000D01*
X78574487Y-72476311D01*
X78552701Y-72404492D01*
X78517322Y-72338304D01*
X78469711Y-72280289D01*
X78411696Y-72232678D01*
X78345508Y-72197299D01*
X78273689Y-72175513D01*
X78199000Y-72168157D01*
X77771250Y-72170000D01*
X77676000Y-72265250D01*
X77422000Y-72265250D01*
X77326750Y-72170000D01*
X76899000Y-72168157D01*
X76824311Y-72175513D01*
X76752492Y-72197299D01*
X76686304Y-72232678D01*
X76628289Y-72280289D01*
X76580678Y-72338304D01*
X76545299Y-72404492D01*
X76523513Y-72476311D01*
X76516157Y-72551000D01*
X68421843Y-72551000D01*
X68414487Y-72476311D01*
X68392701Y-72404492D01*
X68357322Y-72338304D01*
X68309711Y-72280289D01*
X68251696Y-72232678D01*
X68185508Y-72197299D01*
X68113689Y-72175513D01*
X68039000Y-72168157D01*
X67611250Y-72170000D01*
X67516000Y-72265250D01*
X67262000Y-72265250D01*
X67166750Y-72170000D01*
X66739000Y-72168157D01*
X66664311Y-72175513D01*
X66592492Y-72197299D01*
X66526304Y-72232678D01*
X66468289Y-72280289D01*
X66420678Y-72338304D01*
X66385299Y-72404492D01*
X66363513Y-72476311D01*
X66356157Y-72551000D01*
X59451500Y-72551000D01*
X59451500Y-71486500D01*
X62261573Y-71486500D01*
X62348078Y-71512741D01*
G37*
%TD.AperFunction*%
%TD*%
D21*
%TO.N,GND*%
X65545958Y-62018959D02*
X65343287Y-62185287D01*
X65176959Y-62387958D01*
X65053367Y-62619184D01*
X64977259Y-62870078D01*
X64951560Y-63131000D01*
X64977259Y-63391922D01*
X65053367Y-63642816D01*
X65176959Y-63874042D01*
X65343287Y-64076713D01*
X65545958Y-64243041D01*
X65777184Y-64366633D01*
X66028078Y-64442741D01*
X66223615Y-64462000D01*
X67354385Y-64462000D01*
X67549922Y-64442741D01*
X67800816Y-64366633D01*
X68032042Y-64243041D01*
X68234713Y-64076713D01*
X68401041Y-63874042D01*
X68524633Y-63642816D01*
X68600741Y-63391922D01*
X68626440Y-63131000D01*
X68600741Y-62870078D01*
X68524633Y-62619184D01*
X68401041Y-62387958D01*
X68234713Y-62185287D01*
X68032042Y-62018959D01*
X67805742Y-61898000D01*
X70393249Y-61898000D01*
X70486227Y-62037152D01*
X70712848Y-62263773D01*
X70979327Y-62441828D01*
X71275422Y-62564475D01*
X71589755Y-62627000D01*
X71910245Y-62627000D01*
X72224578Y-62564475D01*
X72250000Y-62553945D01*
X72275422Y-62564475D01*
X72589755Y-62627000D01*
X72910245Y-62627000D01*
X73224578Y-62564475D01*
X73250000Y-62553945D01*
X73275422Y-62564475D01*
X73589755Y-62627000D01*
X73910245Y-62627000D01*
X74224578Y-62564475D01*
X74250000Y-62553945D01*
X74275422Y-62564475D01*
X74589755Y-62627000D01*
X74910245Y-62627000D01*
X75224578Y-62564475D01*
X75247737Y-62554882D01*
X75213367Y-62619184D01*
X75137259Y-62870078D01*
X75111560Y-63131000D01*
X75137259Y-63391922D01*
X75213367Y-63642816D01*
X75336959Y-63874042D01*
X75503287Y-64076713D01*
X75705958Y-64243041D01*
X75937184Y-64366633D01*
X76188078Y-64442741D01*
X76383615Y-64462000D01*
X77514385Y-64462000D01*
X77709922Y-64442741D01*
X77960816Y-64366633D01*
X78192042Y-64243041D01*
X78394713Y-64076713D01*
X78561041Y-63874042D01*
X78684633Y-63642816D01*
X78760741Y-63391922D01*
X78786440Y-63131000D01*
X78760741Y-62870078D01*
X78684633Y-62619184D01*
X78561041Y-62387958D01*
X78394713Y-62185287D01*
X78192042Y-62018959D01*
X77965742Y-61898000D01*
X85965258Y-61898000D01*
X85738958Y-62018959D01*
X85536287Y-62185287D01*
X85369959Y-62387958D01*
X85246367Y-62619184D01*
X85170259Y-62870078D01*
X85144560Y-63131000D01*
X85170259Y-63391922D01*
X85246367Y-63642816D01*
X85369959Y-63874042D01*
X85536287Y-64076713D01*
X85738958Y-64243041D01*
X85970184Y-64366633D01*
X86221078Y-64442741D01*
X86416615Y-64462000D01*
X87547385Y-64462000D01*
X87742922Y-64442741D01*
X87993816Y-64366633D01*
X88225042Y-64243041D01*
X88427713Y-64076713D01*
X88594041Y-63874042D01*
X88717633Y-63642816D01*
X88793741Y-63391922D01*
X88819440Y-63131000D01*
X88793741Y-62870078D01*
X88717633Y-62619184D01*
X88594041Y-62387958D01*
X88427713Y-62185287D01*
X88225042Y-62018959D01*
X87998742Y-61898000D01*
X95998258Y-61898000D01*
X95771958Y-62018959D01*
X95569287Y-62185287D01*
X95402959Y-62387958D01*
X95279367Y-62619184D01*
X95203259Y-62870078D01*
X95177560Y-63131000D01*
X95203259Y-63391922D01*
X95279367Y-63642816D01*
X95402959Y-63874042D01*
X95569287Y-64076713D01*
X95771958Y-64243041D01*
X96003184Y-64366633D01*
X96254078Y-64442741D01*
X96449615Y-64462000D01*
X97580385Y-64462000D01*
X97775922Y-64442741D01*
X98026816Y-64366633D01*
X98258042Y-64243041D01*
X98460713Y-64076713D01*
X98627041Y-63874042D01*
X98750633Y-63642816D01*
X98826741Y-63391922D01*
X98852440Y-63131000D01*
X98826741Y-62870078D01*
X98750633Y-62619184D01*
X98627041Y-62387958D01*
X98460713Y-62185287D01*
X98258042Y-62018959D01*
X98031742Y-61898000D01*
X98885000Y-61898000D01*
X98885000Y-70534000D01*
X98632980Y-70534000D01*
X98606380Y-70400268D01*
X98528661Y-70212638D01*
X98415830Y-70043776D01*
X98272224Y-69900170D01*
X98103362Y-69787339D01*
X97915732Y-69709620D01*
X97872396Y-69701000D01*
X97915732Y-69692380D01*
X98103362Y-69614661D01*
X98272224Y-69501830D01*
X98415830Y-69358224D01*
X98528661Y-69189362D01*
X98606380Y-69001732D01*
X98646000Y-68802545D01*
X98646000Y-68599455D01*
X98606380Y-68400268D01*
X98528661Y-68212638D01*
X98415830Y-68043776D01*
X98272224Y-67900170D01*
X98103362Y-67787339D01*
X97915732Y-67709620D01*
X97716545Y-67670000D01*
X97513455Y-67670000D01*
X97314268Y-67709620D01*
X97126638Y-67787339D01*
X96957776Y-67900170D01*
X96814170Y-68043776D01*
X96701339Y-68212638D01*
X96623620Y-68400268D01*
X96584000Y-68599455D01*
X96584000Y-68802545D01*
X96623620Y-69001732D01*
X96701339Y-69189362D01*
X96814170Y-69358224D01*
X96957776Y-69501830D01*
X97126638Y-69614661D01*
X97314268Y-69692380D01*
X97357604Y-69701000D01*
X97314268Y-69709620D01*
X97126638Y-69787339D01*
X96957776Y-69900170D01*
X96814170Y-70043776D01*
X96701339Y-70212638D01*
X96623620Y-70400268D01*
X96597020Y-70534000D01*
X94124876Y-70534000D01*
X94146741Y-70461922D01*
X94166000Y-70266385D01*
X94166000Y-69135615D01*
X94146741Y-68940078D01*
X94070633Y-68689184D01*
X93947041Y-68457958D01*
X93780713Y-68255287D01*
X93578042Y-68088959D01*
X93346816Y-67965367D01*
X93095922Y-67889259D01*
X92835000Y-67863560D01*
X92574079Y-67889259D01*
X92323185Y-67965367D01*
X92091959Y-68088959D01*
X91889288Y-68255287D01*
X91722959Y-68457958D01*
X91599367Y-68689184D01*
X91523259Y-68940078D01*
X91504000Y-69135615D01*
X91504000Y-70266384D01*
X91523259Y-70461921D01*
X91545124Y-70534000D01*
X88599980Y-70534000D01*
X88573380Y-70400268D01*
X88495661Y-70212638D01*
X88382830Y-70043776D01*
X88239224Y-69900170D01*
X88070362Y-69787339D01*
X87882732Y-69709620D01*
X87839396Y-69701000D01*
X87882732Y-69692380D01*
X88070362Y-69614661D01*
X88239224Y-69501830D01*
X88382830Y-69358224D01*
X88495661Y-69189362D01*
X88573380Y-69001732D01*
X88613000Y-68802545D01*
X88613000Y-68599455D01*
X88573380Y-68400268D01*
X88495661Y-68212638D01*
X88382830Y-68043776D01*
X88239224Y-67900170D01*
X88070362Y-67787339D01*
X87882732Y-67709620D01*
X87683545Y-67670000D01*
X87480455Y-67670000D01*
X87281268Y-67709620D01*
X87093638Y-67787339D01*
X86924776Y-67900170D01*
X86781170Y-68043776D01*
X86668339Y-68212638D01*
X86590620Y-68400268D01*
X86551000Y-68599455D01*
X86551000Y-68802545D01*
X86590620Y-69001732D01*
X86668339Y-69189362D01*
X86781170Y-69358224D01*
X86924776Y-69501830D01*
X87093638Y-69614661D01*
X87281268Y-69692380D01*
X87324604Y-69701000D01*
X87281268Y-69709620D01*
X87093638Y-69787339D01*
X86924776Y-69900170D01*
X86781170Y-70043776D01*
X86668339Y-70212638D01*
X86590620Y-70400268D01*
X86564020Y-70534000D01*
X84091876Y-70534000D01*
X84113741Y-70461922D01*
X84133000Y-70266385D01*
X84133000Y-69135615D01*
X84113741Y-68940078D01*
X84037633Y-68689184D01*
X83914041Y-68457958D01*
X83747713Y-68255287D01*
X83545042Y-68088959D01*
X83313816Y-67965367D01*
X83062922Y-67889259D01*
X82802000Y-67863560D01*
X82541079Y-67889259D01*
X82290185Y-67965367D01*
X82058959Y-68088959D01*
X81856288Y-68255287D01*
X81689959Y-68457958D01*
X81566367Y-68689184D01*
X81490259Y-68940078D01*
X81471000Y-69135615D01*
X81471000Y-70266384D01*
X81490259Y-70461921D01*
X81512124Y-70534000D01*
X78566980Y-70534000D01*
X78540380Y-70400268D01*
X78462661Y-70212638D01*
X78349830Y-70043776D01*
X78206224Y-69900170D01*
X78037362Y-69787339D01*
X77849732Y-69709620D01*
X77806396Y-69701000D01*
X77849732Y-69692380D01*
X78037362Y-69614661D01*
X78206224Y-69501830D01*
X78349830Y-69358224D01*
X78462661Y-69189362D01*
X78540380Y-69001732D01*
X78580000Y-68802545D01*
X78580000Y-68599455D01*
X78540380Y-68400268D01*
X78462661Y-68212638D01*
X78349830Y-68043776D01*
X78206224Y-67900170D01*
X78037362Y-67787339D01*
X77849732Y-67709620D01*
X77650545Y-67670000D01*
X77447455Y-67670000D01*
X77248268Y-67709620D01*
X77060638Y-67787339D01*
X76891776Y-67900170D01*
X76748170Y-68043776D01*
X76635339Y-68212638D01*
X76557620Y-68400268D01*
X76518000Y-68599455D01*
X76518000Y-68802545D01*
X76557620Y-69001732D01*
X76635339Y-69189362D01*
X76748170Y-69358224D01*
X76891776Y-69501830D01*
X77060638Y-69614661D01*
X77248268Y-69692380D01*
X77291604Y-69701000D01*
X77248268Y-69709620D01*
X77060638Y-69787339D01*
X76891776Y-69900170D01*
X76748170Y-70043776D01*
X76635339Y-70212638D01*
X76557620Y-70400268D01*
X76531020Y-70534000D01*
X74058876Y-70534000D01*
X74080741Y-70461922D01*
X74100000Y-70266385D01*
X74100000Y-69135615D01*
X74080741Y-68940078D01*
X74004633Y-68689184D01*
X73881041Y-68457958D01*
X73714713Y-68255287D01*
X73512042Y-68088959D01*
X73280816Y-67965367D01*
X73029922Y-67889259D01*
X72769000Y-67863560D01*
X72508079Y-67889259D01*
X72257185Y-67965367D01*
X72025959Y-68088959D01*
X71823288Y-68255287D01*
X71656959Y-68457958D01*
X71533367Y-68689184D01*
X71457259Y-68940078D01*
X71438000Y-69135615D01*
X71438000Y-70266384D01*
X71457259Y-70461921D01*
X71479124Y-70534000D01*
X68406980Y-70534000D01*
X68380380Y-70400268D01*
X68302661Y-70212638D01*
X68189830Y-70043776D01*
X68046224Y-69900170D01*
X67877362Y-69787339D01*
X67689732Y-69709620D01*
X67646396Y-69701000D01*
X67689732Y-69692380D01*
X67877362Y-69614661D01*
X68046224Y-69501830D01*
X68189830Y-69358224D01*
X68302661Y-69189362D01*
X68380380Y-69001732D01*
X68420000Y-68802545D01*
X68420000Y-68599455D01*
X68380380Y-68400268D01*
X68302661Y-68212638D01*
X68189830Y-68043776D01*
X68046224Y-67900170D01*
X67877362Y-67787339D01*
X67689732Y-67709620D01*
X67490545Y-67670000D01*
X67287455Y-67670000D01*
X67088268Y-67709620D01*
X66900638Y-67787339D01*
X66731776Y-67900170D01*
X66588170Y-68043776D01*
X66475339Y-68212638D01*
X66397620Y-68400268D01*
X66358000Y-68599455D01*
X66358000Y-68802545D01*
X66397620Y-69001732D01*
X66475339Y-69189362D01*
X66588170Y-69358224D01*
X66731776Y-69501830D01*
X66900638Y-69614661D01*
X67088268Y-69692380D01*
X67131604Y-69701000D01*
X67088268Y-69709620D01*
X66900638Y-69787339D01*
X66731776Y-69900170D01*
X66588170Y-70043776D01*
X66475339Y-70212638D01*
X66397620Y-70400268D01*
X66371020Y-70534000D01*
X63898876Y-70534000D01*
X63920741Y-70461922D01*
X63940000Y-70266385D01*
X63940000Y-69135615D01*
X63920741Y-68940078D01*
X63844633Y-68689184D01*
X63721041Y-68457958D01*
X63554713Y-68255287D01*
X63352042Y-68088959D01*
X63120816Y-67965367D01*
X62869922Y-67889259D01*
X62609000Y-67863560D01*
X62348079Y-67889259D01*
X62097185Y-67965367D01*
X61865959Y-68088959D01*
X61663288Y-68255287D01*
X61496959Y-68457958D01*
X61373367Y-68689184D01*
X61297259Y-68940078D01*
X61278000Y-69135615D01*
X61278000Y-70266384D01*
X61297259Y-70461921D01*
X61319124Y-70534000D01*
X59574657Y-70534000D01*
X59524500Y-70483843D01*
X59524500Y-66949916D01*
X66819689Y-66949916D01*
X66887399Y-67107459D01*
X67073879Y-67187900D01*
X67272468Y-67230414D01*
X67475536Y-67233368D01*
X67675279Y-67196649D01*
X67864019Y-67121668D01*
X67890601Y-67107459D01*
X67958311Y-66949916D01*
X76979689Y-66949916D01*
X77047399Y-67107459D01*
X77233879Y-67187900D01*
X77432468Y-67230414D01*
X77635536Y-67233368D01*
X77835279Y-67196649D01*
X78024019Y-67121668D01*
X78050601Y-67107459D01*
X78118311Y-66949916D01*
X87012689Y-66949916D01*
X87080399Y-67107459D01*
X87266879Y-67187900D01*
X87465468Y-67230414D01*
X87668536Y-67233368D01*
X87868279Y-67196649D01*
X88057019Y-67121668D01*
X88083601Y-67107459D01*
X88151311Y-66949916D01*
X97045689Y-66949916D01*
X97113399Y-67107459D01*
X97299879Y-67187900D01*
X97498468Y-67230414D01*
X97701536Y-67233368D01*
X97901279Y-67196649D01*
X98090019Y-67121668D01*
X98116601Y-67107459D01*
X98184311Y-66949916D01*
X97615000Y-66380605D01*
X97045689Y-66949916D01*
X88151311Y-66949916D01*
X87582000Y-66380605D01*
X87012689Y-66949916D01*
X78118311Y-66949916D01*
X77549000Y-66380605D01*
X76979689Y-66949916D01*
X67958311Y-66949916D01*
X67389000Y-66380605D01*
X66819689Y-66949916D01*
X59524500Y-66949916D01*
X59524500Y-66287536D01*
X66356632Y-66287536D01*
X66393351Y-66487279D01*
X66468332Y-66676019D01*
X66482541Y-66702601D01*
X66640084Y-66770311D01*
X67209395Y-66201000D01*
X67568605Y-66201000D01*
X68137916Y-66770311D01*
X68295459Y-66702601D01*
X68375900Y-66516121D01*
X68418414Y-66317532D01*
X68418850Y-66287536D01*
X76516632Y-66287536D01*
X76553351Y-66487279D01*
X76628332Y-66676019D01*
X76642541Y-66702601D01*
X76800084Y-66770311D01*
X77369395Y-66201000D01*
X77728605Y-66201000D01*
X78297916Y-66770311D01*
X78455459Y-66702601D01*
X78535900Y-66516121D01*
X78578414Y-66317532D01*
X78578850Y-66287536D01*
X86549632Y-66287536D01*
X86586351Y-66487279D01*
X86661332Y-66676019D01*
X86675541Y-66702601D01*
X86833084Y-66770311D01*
X87402395Y-66201000D01*
X87761605Y-66201000D01*
X88330916Y-66770311D01*
X88488459Y-66702601D01*
X88568900Y-66516121D01*
X88611414Y-66317532D01*
X88611850Y-66287536D01*
X96582632Y-66287536D01*
X96619351Y-66487279D01*
X96694332Y-66676019D01*
X96708541Y-66702601D01*
X96866084Y-66770311D01*
X97435395Y-66201000D01*
X97794605Y-66201000D01*
X98363916Y-66770311D01*
X98521459Y-66702601D01*
X98601900Y-66516121D01*
X98644414Y-66317532D01*
X98647368Y-66114464D01*
X98610649Y-65914721D01*
X98535668Y-65725981D01*
X98521459Y-65699399D01*
X98363916Y-65631689D01*
X97794605Y-66201000D01*
X97435395Y-66201000D01*
X96866084Y-65631689D01*
X96708541Y-65699399D01*
X96628100Y-65885879D01*
X96585586Y-66084468D01*
X96582632Y-66287536D01*
X88611850Y-66287536D01*
X88614368Y-66114464D01*
X88577649Y-65914721D01*
X88502668Y-65725981D01*
X88488459Y-65699399D01*
X88330916Y-65631689D01*
X87761605Y-66201000D01*
X87402395Y-66201000D01*
X86833084Y-65631689D01*
X86675541Y-65699399D01*
X86595100Y-65885879D01*
X86552586Y-66084468D01*
X86549632Y-66287536D01*
X78578850Y-66287536D01*
X78581368Y-66114464D01*
X78544649Y-65914721D01*
X78469668Y-65725981D01*
X78455459Y-65699399D01*
X78297916Y-65631689D01*
X77728605Y-66201000D01*
X77369395Y-66201000D01*
X76800084Y-65631689D01*
X76642541Y-65699399D01*
X76562100Y-65885879D01*
X76519586Y-66084468D01*
X76516632Y-66287536D01*
X68418850Y-66287536D01*
X68421368Y-66114464D01*
X68384649Y-65914721D01*
X68309668Y-65725981D01*
X68295459Y-65699399D01*
X68137916Y-65631689D01*
X67568605Y-66201000D01*
X67209395Y-66201000D01*
X66640084Y-65631689D01*
X66482541Y-65699399D01*
X66402100Y-65885879D01*
X66359586Y-66084468D01*
X66356632Y-66287536D01*
X59524500Y-66287536D01*
X59524500Y-65452084D01*
X66819689Y-65452084D01*
X67389000Y-66021395D01*
X67958311Y-65452084D01*
X76979689Y-65452084D01*
X77549000Y-66021395D01*
X78118311Y-65452084D01*
X87012689Y-65452084D01*
X87582000Y-66021395D01*
X88151311Y-65452084D01*
X97045689Y-65452084D01*
X97615000Y-66021395D01*
X98184311Y-65452084D01*
X98116601Y-65294541D01*
X97930121Y-65214100D01*
X97731532Y-65171586D01*
X97528464Y-65168632D01*
X97328721Y-65205351D01*
X97139981Y-65280332D01*
X97113399Y-65294541D01*
X97045689Y-65452084D01*
X88151311Y-65452084D01*
X88083601Y-65294541D01*
X87897121Y-65214100D01*
X87698532Y-65171586D01*
X87495464Y-65168632D01*
X87295721Y-65205351D01*
X87106981Y-65280332D01*
X87080399Y-65294541D01*
X87012689Y-65452084D01*
X78118311Y-65452084D01*
X78050601Y-65294541D01*
X77864121Y-65214100D01*
X77665532Y-65171586D01*
X77462464Y-65168632D01*
X77262721Y-65205351D01*
X77073981Y-65280332D01*
X77047399Y-65294541D01*
X76979689Y-65452084D01*
X67958311Y-65452084D01*
X67890601Y-65294541D01*
X67704121Y-65214100D01*
X67505532Y-65171586D01*
X67302464Y-65168632D01*
X67102721Y-65205351D01*
X66913981Y-65280332D01*
X66887399Y-65294541D01*
X66819689Y-65452084D01*
X59524500Y-65452084D01*
X59524500Y-63882001D01*
X59550142Y-63856359D01*
X59635613Y-63728442D01*
X59694487Y-63586309D01*
X59724500Y-63435422D01*
X59724500Y-63281578D01*
X59694487Y-63130691D01*
X59635613Y-62988558D01*
X59550142Y-62860641D01*
X59441359Y-62751858D01*
X59313442Y-62666387D01*
X59171309Y-62607513D01*
X59020422Y-62577500D01*
X58866578Y-62577500D01*
X58715691Y-62607513D01*
X58573558Y-62666387D01*
X58445641Y-62751858D01*
X58336858Y-62860641D01*
X58251387Y-62988558D01*
X58192513Y-63130691D01*
X58162500Y-63281578D01*
X58162500Y-63435422D01*
X58192513Y-63586309D01*
X58251387Y-63728442D01*
X58336858Y-63856359D01*
X58362500Y-63882001D01*
X58362501Y-70534000D01*
X57274442Y-70534000D01*
X57178922Y-70515000D01*
X57122442Y-70515000D01*
X57121000Y-69789250D01*
X57025750Y-69694000D01*
X56362296Y-69694000D01*
X56382486Y-69685637D01*
X56405180Y-69572215D01*
X56406919Y-69570476D01*
X56406224Y-69567000D01*
X56406919Y-69563524D01*
X56405180Y-69561785D01*
X56382486Y-69448363D01*
X56359102Y-69440000D01*
X57025750Y-69440000D01*
X57121000Y-69344750D01*
X57122843Y-68417000D01*
X57115487Y-68342311D01*
X57093701Y-68270492D01*
X57058322Y-68204304D01*
X57010711Y-68146289D01*
X56952696Y-68098678D01*
X56886508Y-68063299D01*
X56814689Y-68041513D01*
X56740000Y-68034157D01*
X55562250Y-68036000D01*
X55467000Y-68131250D01*
X55467000Y-68786713D01*
X55429412Y-68891814D01*
X55373479Y-68883525D01*
X55247632Y-68889725D01*
X55234261Y-68836376D01*
X55213000Y-68785047D01*
X55213000Y-68131250D01*
X55117750Y-68036000D01*
X53940000Y-68034157D01*
X53865311Y-68041513D01*
X53793492Y-68063299D01*
X53727304Y-68098678D01*
X53669289Y-68146289D01*
X53621678Y-68204304D01*
X53586299Y-68270492D01*
X53564513Y-68342311D01*
X53557157Y-68417000D01*
X53559000Y-69344750D01*
X53654250Y-69440000D01*
X54317704Y-69440000D01*
X54297514Y-69448363D01*
X54274820Y-69561785D01*
X54273081Y-69563524D01*
X54273776Y-69567000D01*
X54273081Y-69570476D01*
X54274820Y-69572215D01*
X54297514Y-69685637D01*
X54320898Y-69694000D01*
X53654250Y-69694000D01*
X53559000Y-69789250D01*
X53557521Y-70534000D01*
X50117000Y-70534000D01*
X50117000Y-61898000D01*
X65772258Y-61898000D01*
X65545958Y-62018959D01*
%TA.AperFunction,Conductor*%
D22*
G36*
X65545958Y-62018959D02*
G01*
X65343287Y-62185287D01*
X65176959Y-62387958D01*
X65053367Y-62619184D01*
X64977259Y-62870078D01*
X64951560Y-63131000D01*
X64977259Y-63391922D01*
X65053367Y-63642816D01*
X65176959Y-63874042D01*
X65343287Y-64076713D01*
X65545958Y-64243041D01*
X65777184Y-64366633D01*
X66028078Y-64442741D01*
X66223615Y-64462000D01*
X67354385Y-64462000D01*
X67549922Y-64442741D01*
X67800816Y-64366633D01*
X68032042Y-64243041D01*
X68234713Y-64076713D01*
X68401041Y-63874042D01*
X68524633Y-63642816D01*
X68600741Y-63391922D01*
X68626440Y-63131000D01*
X68600741Y-62870078D01*
X68524633Y-62619184D01*
X68401041Y-62387958D01*
X68234713Y-62185287D01*
X68032042Y-62018959D01*
X67805742Y-61898000D01*
X70393249Y-61898000D01*
X70486227Y-62037152D01*
X70712848Y-62263773D01*
X70979327Y-62441828D01*
X71275422Y-62564475D01*
X71589755Y-62627000D01*
X71910245Y-62627000D01*
X72224578Y-62564475D01*
X72250000Y-62553945D01*
X72275422Y-62564475D01*
X72589755Y-62627000D01*
X72910245Y-62627000D01*
X73224578Y-62564475D01*
X73250000Y-62553945D01*
X73275422Y-62564475D01*
X73589755Y-62627000D01*
X73910245Y-62627000D01*
X74224578Y-62564475D01*
X74250000Y-62553945D01*
X74275422Y-62564475D01*
X74589755Y-62627000D01*
X74910245Y-62627000D01*
X75224578Y-62564475D01*
X75247737Y-62554882D01*
X75213367Y-62619184D01*
X75137259Y-62870078D01*
X75111560Y-63131000D01*
X75137259Y-63391922D01*
X75213367Y-63642816D01*
X75336959Y-63874042D01*
X75503287Y-64076713D01*
X75705958Y-64243041D01*
X75937184Y-64366633D01*
X76188078Y-64442741D01*
X76383615Y-64462000D01*
X77514385Y-64462000D01*
X77709922Y-64442741D01*
X77960816Y-64366633D01*
X78192042Y-64243041D01*
X78394713Y-64076713D01*
X78561041Y-63874042D01*
X78684633Y-63642816D01*
X78760741Y-63391922D01*
X78786440Y-63131000D01*
X78760741Y-62870078D01*
X78684633Y-62619184D01*
X78561041Y-62387958D01*
X78394713Y-62185287D01*
X78192042Y-62018959D01*
X77965742Y-61898000D01*
X85965258Y-61898000D01*
X85738958Y-62018959D01*
X85536287Y-62185287D01*
X85369959Y-62387958D01*
X85246367Y-62619184D01*
X85170259Y-62870078D01*
X85144560Y-63131000D01*
X85170259Y-63391922D01*
X85246367Y-63642816D01*
X85369959Y-63874042D01*
X85536287Y-64076713D01*
X85738958Y-64243041D01*
X85970184Y-64366633D01*
X86221078Y-64442741D01*
X86416615Y-64462000D01*
X87547385Y-64462000D01*
X87742922Y-64442741D01*
X87993816Y-64366633D01*
X88225042Y-64243041D01*
X88427713Y-64076713D01*
X88594041Y-63874042D01*
X88717633Y-63642816D01*
X88793741Y-63391922D01*
X88819440Y-63131000D01*
X88793741Y-62870078D01*
X88717633Y-62619184D01*
X88594041Y-62387958D01*
X88427713Y-62185287D01*
X88225042Y-62018959D01*
X87998742Y-61898000D01*
X95998258Y-61898000D01*
X95771958Y-62018959D01*
X95569287Y-62185287D01*
X95402959Y-62387958D01*
X95279367Y-62619184D01*
X95203259Y-62870078D01*
X95177560Y-63131000D01*
X95203259Y-63391922D01*
X95279367Y-63642816D01*
X95402959Y-63874042D01*
X95569287Y-64076713D01*
X95771958Y-64243041D01*
X96003184Y-64366633D01*
X96254078Y-64442741D01*
X96449615Y-64462000D01*
X97580385Y-64462000D01*
X97775922Y-64442741D01*
X98026816Y-64366633D01*
X98258042Y-64243041D01*
X98460713Y-64076713D01*
X98627041Y-63874042D01*
X98750633Y-63642816D01*
X98826741Y-63391922D01*
X98852440Y-63131000D01*
X98826741Y-62870078D01*
X98750633Y-62619184D01*
X98627041Y-62387958D01*
X98460713Y-62185287D01*
X98258042Y-62018959D01*
X98031742Y-61898000D01*
X98885000Y-61898000D01*
X98885000Y-70534000D01*
X98632980Y-70534000D01*
X98606380Y-70400268D01*
X98528661Y-70212638D01*
X98415830Y-70043776D01*
X98272224Y-69900170D01*
X98103362Y-69787339D01*
X97915732Y-69709620D01*
X97872396Y-69701000D01*
X97915732Y-69692380D01*
X98103362Y-69614661D01*
X98272224Y-69501830D01*
X98415830Y-69358224D01*
X98528661Y-69189362D01*
X98606380Y-69001732D01*
X98646000Y-68802545D01*
X98646000Y-68599455D01*
X98606380Y-68400268D01*
X98528661Y-68212638D01*
X98415830Y-68043776D01*
X98272224Y-67900170D01*
X98103362Y-67787339D01*
X97915732Y-67709620D01*
X97716545Y-67670000D01*
X97513455Y-67670000D01*
X97314268Y-67709620D01*
X97126638Y-67787339D01*
X96957776Y-67900170D01*
X96814170Y-68043776D01*
X96701339Y-68212638D01*
X96623620Y-68400268D01*
X96584000Y-68599455D01*
X96584000Y-68802545D01*
X96623620Y-69001732D01*
X96701339Y-69189362D01*
X96814170Y-69358224D01*
X96957776Y-69501830D01*
X97126638Y-69614661D01*
X97314268Y-69692380D01*
X97357604Y-69701000D01*
X97314268Y-69709620D01*
X97126638Y-69787339D01*
X96957776Y-69900170D01*
X96814170Y-70043776D01*
X96701339Y-70212638D01*
X96623620Y-70400268D01*
X96597020Y-70534000D01*
X94124876Y-70534000D01*
X94146741Y-70461922D01*
X94166000Y-70266385D01*
X94166000Y-69135615D01*
X94146741Y-68940078D01*
X94070633Y-68689184D01*
X93947041Y-68457958D01*
X93780713Y-68255287D01*
X93578042Y-68088959D01*
X93346816Y-67965367D01*
X93095922Y-67889259D01*
X92835000Y-67863560D01*
X92574079Y-67889259D01*
X92323185Y-67965367D01*
X92091959Y-68088959D01*
X91889288Y-68255287D01*
X91722959Y-68457958D01*
X91599367Y-68689184D01*
X91523259Y-68940078D01*
X91504000Y-69135615D01*
X91504000Y-70266384D01*
X91523259Y-70461921D01*
X91545124Y-70534000D01*
X88599980Y-70534000D01*
X88573380Y-70400268D01*
X88495661Y-70212638D01*
X88382830Y-70043776D01*
X88239224Y-69900170D01*
X88070362Y-69787339D01*
X87882732Y-69709620D01*
X87839396Y-69701000D01*
X87882732Y-69692380D01*
X88070362Y-69614661D01*
X88239224Y-69501830D01*
X88382830Y-69358224D01*
X88495661Y-69189362D01*
X88573380Y-69001732D01*
X88613000Y-68802545D01*
X88613000Y-68599455D01*
X88573380Y-68400268D01*
X88495661Y-68212638D01*
X88382830Y-68043776D01*
X88239224Y-67900170D01*
X88070362Y-67787339D01*
X87882732Y-67709620D01*
X87683545Y-67670000D01*
X87480455Y-67670000D01*
X87281268Y-67709620D01*
X87093638Y-67787339D01*
X86924776Y-67900170D01*
X86781170Y-68043776D01*
X86668339Y-68212638D01*
X86590620Y-68400268D01*
X86551000Y-68599455D01*
X86551000Y-68802545D01*
X86590620Y-69001732D01*
X86668339Y-69189362D01*
X86781170Y-69358224D01*
X86924776Y-69501830D01*
X87093638Y-69614661D01*
X87281268Y-69692380D01*
X87324604Y-69701000D01*
X87281268Y-69709620D01*
X87093638Y-69787339D01*
X86924776Y-69900170D01*
X86781170Y-70043776D01*
X86668339Y-70212638D01*
X86590620Y-70400268D01*
X86564020Y-70534000D01*
X84091876Y-70534000D01*
X84113741Y-70461922D01*
X84133000Y-70266385D01*
X84133000Y-69135615D01*
X84113741Y-68940078D01*
X84037633Y-68689184D01*
X83914041Y-68457958D01*
X83747713Y-68255287D01*
X83545042Y-68088959D01*
X83313816Y-67965367D01*
X83062922Y-67889259D01*
X82802000Y-67863560D01*
X82541079Y-67889259D01*
X82290185Y-67965367D01*
X82058959Y-68088959D01*
X81856288Y-68255287D01*
X81689959Y-68457958D01*
X81566367Y-68689184D01*
X81490259Y-68940078D01*
X81471000Y-69135615D01*
X81471000Y-70266384D01*
X81490259Y-70461921D01*
X81512124Y-70534000D01*
X78566980Y-70534000D01*
X78540380Y-70400268D01*
X78462661Y-70212638D01*
X78349830Y-70043776D01*
X78206224Y-69900170D01*
X78037362Y-69787339D01*
X77849732Y-69709620D01*
X77806396Y-69701000D01*
X77849732Y-69692380D01*
X78037362Y-69614661D01*
X78206224Y-69501830D01*
X78349830Y-69358224D01*
X78462661Y-69189362D01*
X78540380Y-69001732D01*
X78580000Y-68802545D01*
X78580000Y-68599455D01*
X78540380Y-68400268D01*
X78462661Y-68212638D01*
X78349830Y-68043776D01*
X78206224Y-67900170D01*
X78037362Y-67787339D01*
X77849732Y-67709620D01*
X77650545Y-67670000D01*
X77447455Y-67670000D01*
X77248268Y-67709620D01*
X77060638Y-67787339D01*
X76891776Y-67900170D01*
X76748170Y-68043776D01*
X76635339Y-68212638D01*
X76557620Y-68400268D01*
X76518000Y-68599455D01*
X76518000Y-68802545D01*
X76557620Y-69001732D01*
X76635339Y-69189362D01*
X76748170Y-69358224D01*
X76891776Y-69501830D01*
X77060638Y-69614661D01*
X77248268Y-69692380D01*
X77291604Y-69701000D01*
X77248268Y-69709620D01*
X77060638Y-69787339D01*
X76891776Y-69900170D01*
X76748170Y-70043776D01*
X76635339Y-70212638D01*
X76557620Y-70400268D01*
X76531020Y-70534000D01*
X74058876Y-70534000D01*
X74080741Y-70461922D01*
X74100000Y-70266385D01*
X74100000Y-69135615D01*
X74080741Y-68940078D01*
X74004633Y-68689184D01*
X73881041Y-68457958D01*
X73714713Y-68255287D01*
X73512042Y-68088959D01*
X73280816Y-67965367D01*
X73029922Y-67889259D01*
X72769000Y-67863560D01*
X72508079Y-67889259D01*
X72257185Y-67965367D01*
X72025959Y-68088959D01*
X71823288Y-68255287D01*
X71656959Y-68457958D01*
X71533367Y-68689184D01*
X71457259Y-68940078D01*
X71438000Y-69135615D01*
X71438000Y-70266384D01*
X71457259Y-70461921D01*
X71479124Y-70534000D01*
X68406980Y-70534000D01*
X68380380Y-70400268D01*
X68302661Y-70212638D01*
X68189830Y-70043776D01*
X68046224Y-69900170D01*
X67877362Y-69787339D01*
X67689732Y-69709620D01*
X67646396Y-69701000D01*
X67689732Y-69692380D01*
X67877362Y-69614661D01*
X68046224Y-69501830D01*
X68189830Y-69358224D01*
X68302661Y-69189362D01*
X68380380Y-69001732D01*
X68420000Y-68802545D01*
X68420000Y-68599455D01*
X68380380Y-68400268D01*
X68302661Y-68212638D01*
X68189830Y-68043776D01*
X68046224Y-67900170D01*
X67877362Y-67787339D01*
X67689732Y-67709620D01*
X67490545Y-67670000D01*
X67287455Y-67670000D01*
X67088268Y-67709620D01*
X66900638Y-67787339D01*
X66731776Y-67900170D01*
X66588170Y-68043776D01*
X66475339Y-68212638D01*
X66397620Y-68400268D01*
X66358000Y-68599455D01*
X66358000Y-68802545D01*
X66397620Y-69001732D01*
X66475339Y-69189362D01*
X66588170Y-69358224D01*
X66731776Y-69501830D01*
X66900638Y-69614661D01*
X67088268Y-69692380D01*
X67131604Y-69701000D01*
X67088268Y-69709620D01*
X66900638Y-69787339D01*
X66731776Y-69900170D01*
X66588170Y-70043776D01*
X66475339Y-70212638D01*
X66397620Y-70400268D01*
X66371020Y-70534000D01*
X63898876Y-70534000D01*
X63920741Y-70461922D01*
X63940000Y-70266385D01*
X63940000Y-69135615D01*
X63920741Y-68940078D01*
X63844633Y-68689184D01*
X63721041Y-68457958D01*
X63554713Y-68255287D01*
X63352042Y-68088959D01*
X63120816Y-67965367D01*
X62869922Y-67889259D01*
X62609000Y-67863560D01*
X62348079Y-67889259D01*
X62097185Y-67965367D01*
X61865959Y-68088959D01*
X61663288Y-68255287D01*
X61496959Y-68457958D01*
X61373367Y-68689184D01*
X61297259Y-68940078D01*
X61278000Y-69135615D01*
X61278000Y-70266384D01*
X61297259Y-70461921D01*
X61319124Y-70534000D01*
X59574657Y-70534000D01*
X59524500Y-70483843D01*
X59524500Y-66949916D01*
X66819689Y-66949916D01*
X66887399Y-67107459D01*
X67073879Y-67187900D01*
X67272468Y-67230414D01*
X67475536Y-67233368D01*
X67675279Y-67196649D01*
X67864019Y-67121668D01*
X67890601Y-67107459D01*
X67958311Y-66949916D01*
X76979689Y-66949916D01*
X77047399Y-67107459D01*
X77233879Y-67187900D01*
X77432468Y-67230414D01*
X77635536Y-67233368D01*
X77835279Y-67196649D01*
X78024019Y-67121668D01*
X78050601Y-67107459D01*
X78118311Y-66949916D01*
X87012689Y-66949916D01*
X87080399Y-67107459D01*
X87266879Y-67187900D01*
X87465468Y-67230414D01*
X87668536Y-67233368D01*
X87868279Y-67196649D01*
X88057019Y-67121668D01*
X88083601Y-67107459D01*
X88151311Y-66949916D01*
X97045689Y-66949916D01*
X97113399Y-67107459D01*
X97299879Y-67187900D01*
X97498468Y-67230414D01*
X97701536Y-67233368D01*
X97901279Y-67196649D01*
X98090019Y-67121668D01*
X98116601Y-67107459D01*
X98184311Y-66949916D01*
X97615000Y-66380605D01*
X97045689Y-66949916D01*
X88151311Y-66949916D01*
X87582000Y-66380605D01*
X87012689Y-66949916D01*
X78118311Y-66949916D01*
X77549000Y-66380605D01*
X76979689Y-66949916D01*
X67958311Y-66949916D01*
X67389000Y-66380605D01*
X66819689Y-66949916D01*
X59524500Y-66949916D01*
X59524500Y-66287536D01*
X66356632Y-66287536D01*
X66393351Y-66487279D01*
X66468332Y-66676019D01*
X66482541Y-66702601D01*
X66640084Y-66770311D01*
X67209395Y-66201000D01*
X67568605Y-66201000D01*
X68137916Y-66770311D01*
X68295459Y-66702601D01*
X68375900Y-66516121D01*
X68418414Y-66317532D01*
X68418850Y-66287536D01*
X76516632Y-66287536D01*
X76553351Y-66487279D01*
X76628332Y-66676019D01*
X76642541Y-66702601D01*
X76800084Y-66770311D01*
X77369395Y-66201000D01*
X77728605Y-66201000D01*
X78297916Y-66770311D01*
X78455459Y-66702601D01*
X78535900Y-66516121D01*
X78578414Y-66317532D01*
X78578850Y-66287536D01*
X86549632Y-66287536D01*
X86586351Y-66487279D01*
X86661332Y-66676019D01*
X86675541Y-66702601D01*
X86833084Y-66770311D01*
X87402395Y-66201000D01*
X87761605Y-66201000D01*
X88330916Y-66770311D01*
X88488459Y-66702601D01*
X88568900Y-66516121D01*
X88611414Y-66317532D01*
X88611850Y-66287536D01*
X96582632Y-66287536D01*
X96619351Y-66487279D01*
X96694332Y-66676019D01*
X96708541Y-66702601D01*
X96866084Y-66770311D01*
X97435395Y-66201000D01*
X97794605Y-66201000D01*
X98363916Y-66770311D01*
X98521459Y-66702601D01*
X98601900Y-66516121D01*
X98644414Y-66317532D01*
X98647368Y-66114464D01*
X98610649Y-65914721D01*
X98535668Y-65725981D01*
X98521459Y-65699399D01*
X98363916Y-65631689D01*
X97794605Y-66201000D01*
X97435395Y-66201000D01*
X96866084Y-65631689D01*
X96708541Y-65699399D01*
X96628100Y-65885879D01*
X96585586Y-66084468D01*
X96582632Y-66287536D01*
X88611850Y-66287536D01*
X88614368Y-66114464D01*
X88577649Y-65914721D01*
X88502668Y-65725981D01*
X88488459Y-65699399D01*
X88330916Y-65631689D01*
X87761605Y-66201000D01*
X87402395Y-66201000D01*
X86833084Y-65631689D01*
X86675541Y-65699399D01*
X86595100Y-65885879D01*
X86552586Y-66084468D01*
X86549632Y-66287536D01*
X78578850Y-66287536D01*
X78581368Y-66114464D01*
X78544649Y-65914721D01*
X78469668Y-65725981D01*
X78455459Y-65699399D01*
X78297916Y-65631689D01*
X77728605Y-66201000D01*
X77369395Y-66201000D01*
X76800084Y-65631689D01*
X76642541Y-65699399D01*
X76562100Y-65885879D01*
X76519586Y-66084468D01*
X76516632Y-66287536D01*
X68418850Y-66287536D01*
X68421368Y-66114464D01*
X68384649Y-65914721D01*
X68309668Y-65725981D01*
X68295459Y-65699399D01*
X68137916Y-65631689D01*
X67568605Y-66201000D01*
X67209395Y-66201000D01*
X66640084Y-65631689D01*
X66482541Y-65699399D01*
X66402100Y-65885879D01*
X66359586Y-66084468D01*
X66356632Y-66287536D01*
X59524500Y-66287536D01*
X59524500Y-65452084D01*
X66819689Y-65452084D01*
X67389000Y-66021395D01*
X67958311Y-65452084D01*
X76979689Y-65452084D01*
X77549000Y-66021395D01*
X78118311Y-65452084D01*
X87012689Y-65452084D01*
X87582000Y-66021395D01*
X88151311Y-65452084D01*
X97045689Y-65452084D01*
X97615000Y-66021395D01*
X98184311Y-65452084D01*
X98116601Y-65294541D01*
X97930121Y-65214100D01*
X97731532Y-65171586D01*
X97528464Y-65168632D01*
X97328721Y-65205351D01*
X97139981Y-65280332D01*
X97113399Y-65294541D01*
X97045689Y-65452084D01*
X88151311Y-65452084D01*
X88083601Y-65294541D01*
X87897121Y-65214100D01*
X87698532Y-65171586D01*
X87495464Y-65168632D01*
X87295721Y-65205351D01*
X87106981Y-65280332D01*
X87080399Y-65294541D01*
X87012689Y-65452084D01*
X78118311Y-65452084D01*
X78050601Y-65294541D01*
X77864121Y-65214100D01*
X77665532Y-65171586D01*
X77462464Y-65168632D01*
X77262721Y-65205351D01*
X77073981Y-65280332D01*
X77047399Y-65294541D01*
X76979689Y-65452084D01*
X67958311Y-65452084D01*
X67890601Y-65294541D01*
X67704121Y-65214100D01*
X67505532Y-65171586D01*
X67302464Y-65168632D01*
X67102721Y-65205351D01*
X66913981Y-65280332D01*
X66887399Y-65294541D01*
X66819689Y-65452084D01*
X59524500Y-65452084D01*
X59524500Y-63882001D01*
X59550142Y-63856359D01*
X59635613Y-63728442D01*
X59694487Y-63586309D01*
X59724500Y-63435422D01*
X59724500Y-63281578D01*
X59694487Y-63130691D01*
X59635613Y-62988558D01*
X59550142Y-62860641D01*
X59441359Y-62751858D01*
X59313442Y-62666387D01*
X59171309Y-62607513D01*
X59020422Y-62577500D01*
X58866578Y-62577500D01*
X58715691Y-62607513D01*
X58573558Y-62666387D01*
X58445641Y-62751858D01*
X58336858Y-62860641D01*
X58251387Y-62988558D01*
X58192513Y-63130691D01*
X58162500Y-63281578D01*
X58162500Y-63435422D01*
X58192513Y-63586309D01*
X58251387Y-63728442D01*
X58336858Y-63856359D01*
X58362500Y-63882001D01*
X58362501Y-70534000D01*
X57274442Y-70534000D01*
X57178922Y-70515000D01*
X57122442Y-70515000D01*
X57121000Y-69789250D01*
X57025750Y-69694000D01*
X56362296Y-69694000D01*
X56382486Y-69685637D01*
X56405180Y-69572215D01*
X56406919Y-69570476D01*
X56406224Y-69567000D01*
X56406919Y-69563524D01*
X56405180Y-69561785D01*
X56382486Y-69448363D01*
X56359102Y-69440000D01*
X57025750Y-69440000D01*
X57121000Y-69344750D01*
X57122843Y-68417000D01*
X57115487Y-68342311D01*
X57093701Y-68270492D01*
X57058322Y-68204304D01*
X57010711Y-68146289D01*
X56952696Y-68098678D01*
X56886508Y-68063299D01*
X56814689Y-68041513D01*
X56740000Y-68034157D01*
X55562250Y-68036000D01*
X55467000Y-68131250D01*
X55467000Y-68786713D01*
X55429412Y-68891814D01*
X55373479Y-68883525D01*
X55247632Y-68889725D01*
X55234261Y-68836376D01*
X55213000Y-68785047D01*
X55213000Y-68131250D01*
X55117750Y-68036000D01*
X53940000Y-68034157D01*
X53865311Y-68041513D01*
X53793492Y-68063299D01*
X53727304Y-68098678D01*
X53669289Y-68146289D01*
X53621678Y-68204304D01*
X53586299Y-68270492D01*
X53564513Y-68342311D01*
X53557157Y-68417000D01*
X53559000Y-69344750D01*
X53654250Y-69440000D01*
X54317704Y-69440000D01*
X54297514Y-69448363D01*
X54274820Y-69561785D01*
X54273081Y-69563524D01*
X54273776Y-69567000D01*
X54273081Y-69570476D01*
X54274820Y-69572215D01*
X54297514Y-69685637D01*
X54320898Y-69694000D01*
X53654250Y-69694000D01*
X53559000Y-69789250D01*
X53557521Y-70534000D01*
X50117000Y-70534000D01*
X50117000Y-61898000D01*
X65772258Y-61898000D01*
X65545958Y-62018959D01*
G37*
%TD.AperFunction*%
D21*
X55533748Y-69552858D02*
X55519605Y-69567000D01*
X55533748Y-69581143D01*
X55400890Y-69714000D01*
X55279110Y-69714000D01*
X55146253Y-69581143D01*
X55160395Y-69567000D01*
X55146253Y-69552858D01*
X55325858Y-69373253D01*
X55340000Y-69387395D01*
X55354143Y-69373253D01*
X55533748Y-69552858D01*
%TA.AperFunction,Conductor*%
D22*
G36*
X55533748Y-69552858D02*
G01*
X55519605Y-69567000D01*
X55533748Y-69581143D01*
X55400890Y-69714000D01*
X55279110Y-69714000D01*
X55146253Y-69581143D01*
X55160395Y-69567000D01*
X55146253Y-69552858D01*
X55325858Y-69373253D01*
X55340000Y-69387395D01*
X55354143Y-69373253D01*
X55533748Y-69552858D01*
G37*
%TD.AperFunction*%
%TD*%
%TO.N,/Bat_minus*%
X49446840Y-63536672D02*
X49426780Y-63508695D01*
X49406975Y-63528500D01*
X49426780Y-63548305D01*
X49446767Y-63554766D01*
X49438054Y-65724419D01*
X49426780Y-65708695D01*
X49406975Y-65728500D01*
X49426780Y-65748305D01*
X49437943Y-65751914D01*
X49432200Y-67182000D01*
X43386000Y-67182000D01*
X43376245Y-67182961D01*
X43366866Y-67185806D01*
X43358221Y-67190427D01*
X43350645Y-67196645D01*
X41572645Y-68974645D01*
X41566427Y-68982221D01*
X41561806Y-68990866D01*
X41558961Y-69000245D01*
X41558000Y-69010000D01*
X41558000Y-76580000D01*
X34038000Y-76580000D01*
X34038000Y-75312000D01*
X35155274Y-75312000D01*
X35158170Y-75341405D01*
X35166747Y-75369680D01*
X35180676Y-75395739D01*
X35199421Y-75418579D01*
X35222261Y-75437324D01*
X35248320Y-75451253D01*
X35276595Y-75459830D01*
X35306000Y-75462726D01*
X37918500Y-75462000D01*
X37956000Y-75424500D01*
X37956000Y-72662000D01*
X38656000Y-72662000D01*
X38656000Y-75424500D01*
X38693500Y-75462000D01*
X41306000Y-75462726D01*
X41335405Y-75459830D01*
X41363680Y-75451253D01*
X41389739Y-75437324D01*
X41412579Y-75418579D01*
X41431324Y-75395739D01*
X41445253Y-75369680D01*
X41453830Y-75341405D01*
X41456726Y-75312000D01*
X41456000Y-72699500D01*
X41418500Y-72662000D01*
X38656000Y-72662000D01*
X37956000Y-72662000D01*
X35193500Y-72662000D01*
X35156000Y-72699500D01*
X35155274Y-75312000D01*
X34038000Y-75312000D01*
X34038000Y-73836067D01*
X34044106Y-69312000D01*
X35155274Y-69312000D01*
X35156000Y-71924500D01*
X35193500Y-71962000D01*
X37956000Y-71962000D01*
X37956000Y-69199500D01*
X38656000Y-69199500D01*
X38656000Y-71962000D01*
X41418500Y-71962000D01*
X41456000Y-71924500D01*
X41456726Y-69312000D01*
X41453830Y-69282595D01*
X41445253Y-69254320D01*
X41431324Y-69228261D01*
X41412579Y-69205421D01*
X41389739Y-69186676D01*
X41363680Y-69172747D01*
X41335405Y-69164170D01*
X41306000Y-69161274D01*
X38693500Y-69162000D01*
X38656000Y-69199500D01*
X37956000Y-69199500D01*
X37918500Y-69162000D01*
X35306000Y-69161274D01*
X35276595Y-69164170D01*
X35248320Y-69172747D01*
X35222261Y-69186676D01*
X35199421Y-69205421D01*
X35180676Y-69228261D01*
X35166747Y-69254320D01*
X35158170Y-69282595D01*
X35155274Y-69312000D01*
X34044106Y-69312000D01*
X34048198Y-66280248D01*
X47480245Y-66280248D01*
X47531805Y-66243280D01*
X47512000Y-66223475D01*
X47492195Y-66243280D01*
X47480245Y-66280248D01*
X48880245Y-66280248D01*
X48931805Y-66243280D01*
X48912000Y-66223475D01*
X48892195Y-66243280D01*
X48880245Y-66280248D01*
X47480245Y-66280248D01*
X34048198Y-66280248D01*
X34048986Y-65696745D01*
X46960252Y-65696745D01*
X46997220Y-65748305D01*
X47017025Y-65728500D01*
X48006975Y-65728500D01*
X48026780Y-65748305D01*
X48063748Y-65760255D01*
X48026780Y-65708695D01*
X48006975Y-65728500D01*
X47017025Y-65728500D01*
X46997220Y-65708695D01*
X46960252Y-65696745D01*
X48360252Y-65696745D01*
X48397220Y-65748305D01*
X48417025Y-65728500D01*
X48397220Y-65708695D01*
X48360252Y-65696745D01*
X46960252Y-65696745D01*
X34048986Y-65696745D01*
X34049638Y-65213720D01*
X47492195Y-65213720D01*
X47512000Y-65233525D01*
X47531805Y-65213720D01*
X48892195Y-65213720D01*
X48912000Y-65233525D01*
X48931805Y-65213720D01*
X48943755Y-65176752D01*
X48892195Y-65213720D01*
X47531805Y-65213720D01*
X47542624Y-65180248D01*
X48180245Y-65180248D01*
X48231805Y-65143280D01*
X48212000Y-65123475D01*
X48192195Y-65143280D01*
X48180245Y-65180248D01*
X47542624Y-65180248D01*
X47543755Y-65176752D01*
X47492195Y-65213720D01*
X34049638Y-65213720D01*
X34049933Y-64996000D01*
X46500000Y-64996000D01*
X46509755Y-64995039D01*
X46519134Y-64992194D01*
X46527779Y-64987573D01*
X46535355Y-64981355D01*
X46541573Y-64973779D01*
X46546194Y-64965134D01*
X46549039Y-64955755D01*
X46550000Y-64946000D01*
X46550000Y-64596745D01*
X47660252Y-64596745D01*
X47697220Y-64648305D01*
X47717025Y-64628500D01*
X48706975Y-64628500D01*
X48726780Y-64648305D01*
X48763748Y-64660255D01*
X48726780Y-64608695D01*
X48706975Y-64628500D01*
X47717025Y-64628500D01*
X47697220Y-64608695D01*
X47660252Y-64596745D01*
X46550000Y-64596745D01*
X46550000Y-64113720D01*
X48192195Y-64113720D01*
X48212000Y-64133525D01*
X48231805Y-64113720D01*
X48242624Y-64080248D01*
X48880245Y-64080248D01*
X48931805Y-64043280D01*
X48912000Y-64023475D01*
X48892195Y-64043280D01*
X48880245Y-64080248D01*
X48242624Y-64080248D01*
X48243755Y-64076752D01*
X48192195Y-64113720D01*
X46550000Y-64113720D01*
X46550000Y-64080248D01*
X47480245Y-64080248D01*
X47531805Y-64043280D01*
X47512000Y-64023475D01*
X47492195Y-64043280D01*
X47480245Y-64080248D01*
X46550000Y-64080248D01*
X46550000Y-63496745D01*
X46960252Y-63496745D01*
X46997220Y-63548305D01*
X47017025Y-63528500D01*
X48006975Y-63528500D01*
X48026780Y-63548305D01*
X48063748Y-63560255D01*
X48026780Y-63508695D01*
X48006975Y-63528500D01*
X47017025Y-63528500D01*
X46997220Y-63508695D01*
X46960252Y-63496745D01*
X48360252Y-63496745D01*
X48397220Y-63548305D01*
X48417025Y-63528500D01*
X48397220Y-63508695D01*
X48360252Y-63496745D01*
X46960252Y-63496745D01*
X46550000Y-63496745D01*
X46550000Y-63013720D01*
X47492195Y-63013720D01*
X47512000Y-63033525D01*
X47531805Y-63013720D01*
X48892195Y-63013720D01*
X48912000Y-63033525D01*
X48931805Y-63013720D01*
X48943755Y-62976752D01*
X48892195Y-63013720D01*
X47531805Y-63013720D01*
X47543755Y-62976752D01*
X47492195Y-63013720D01*
X46550000Y-63013720D01*
X46550000Y-62800000D01*
X49449798Y-62800000D01*
X49446840Y-63536672D01*
%TA.AperFunction,Conductor*%
G36*
X49446840Y-63536672D02*
G01*
X49426780Y-63508695D01*
X49406975Y-63528500D01*
X49426780Y-63548305D01*
X49446767Y-63554766D01*
X49438054Y-65724419D01*
X49426780Y-65708695D01*
X49406975Y-65728500D01*
X49426780Y-65748305D01*
X49437943Y-65751914D01*
X49432200Y-67182000D01*
X43386000Y-67182000D01*
X43376245Y-67182961D01*
X43366866Y-67185806D01*
X43358221Y-67190427D01*
X43350645Y-67196645D01*
X41572645Y-68974645D01*
X41566427Y-68982221D01*
X41561806Y-68990866D01*
X41558961Y-69000245D01*
X41558000Y-69010000D01*
X41558000Y-76580000D01*
X34038000Y-76580000D01*
X34038000Y-75312000D01*
X35155274Y-75312000D01*
X35158170Y-75341405D01*
X35166747Y-75369680D01*
X35180676Y-75395739D01*
X35199421Y-75418579D01*
X35222261Y-75437324D01*
X35248320Y-75451253D01*
X35276595Y-75459830D01*
X35306000Y-75462726D01*
X37918500Y-75462000D01*
X37956000Y-75424500D01*
X37956000Y-72662000D01*
X38656000Y-72662000D01*
X38656000Y-75424500D01*
X38693500Y-75462000D01*
X41306000Y-75462726D01*
X41335405Y-75459830D01*
X41363680Y-75451253D01*
X41389739Y-75437324D01*
X41412579Y-75418579D01*
X41431324Y-75395739D01*
X41445253Y-75369680D01*
X41453830Y-75341405D01*
X41456726Y-75312000D01*
X41456000Y-72699500D01*
X41418500Y-72662000D01*
X38656000Y-72662000D01*
X37956000Y-72662000D01*
X35193500Y-72662000D01*
X35156000Y-72699500D01*
X35155274Y-75312000D01*
X34038000Y-75312000D01*
X34038000Y-73836067D01*
X34044106Y-69312000D01*
X35155274Y-69312000D01*
X35156000Y-71924500D01*
X35193500Y-71962000D01*
X37956000Y-71962000D01*
X37956000Y-69199500D01*
X38656000Y-69199500D01*
X38656000Y-71962000D01*
X41418500Y-71962000D01*
X41456000Y-71924500D01*
X41456726Y-69312000D01*
X41453830Y-69282595D01*
X41445253Y-69254320D01*
X41431324Y-69228261D01*
X41412579Y-69205421D01*
X41389739Y-69186676D01*
X41363680Y-69172747D01*
X41335405Y-69164170D01*
X41306000Y-69161274D01*
X38693500Y-69162000D01*
X38656000Y-69199500D01*
X37956000Y-69199500D01*
X37918500Y-69162000D01*
X35306000Y-69161274D01*
X35276595Y-69164170D01*
X35248320Y-69172747D01*
X35222261Y-69186676D01*
X35199421Y-69205421D01*
X35180676Y-69228261D01*
X35166747Y-69254320D01*
X35158170Y-69282595D01*
X35155274Y-69312000D01*
X34044106Y-69312000D01*
X34048198Y-66280248D01*
X47480245Y-66280248D01*
X47531805Y-66243280D01*
X47512000Y-66223475D01*
X47492195Y-66243280D01*
X47480245Y-66280248D01*
X48880245Y-66280248D01*
X48931805Y-66243280D01*
X48912000Y-66223475D01*
X48892195Y-66243280D01*
X48880245Y-66280248D01*
X47480245Y-66280248D01*
X34048198Y-66280248D01*
X34048986Y-65696745D01*
X46960252Y-65696745D01*
X46997220Y-65748305D01*
X47017025Y-65728500D01*
X48006975Y-65728500D01*
X48026780Y-65748305D01*
X48063748Y-65760255D01*
X48026780Y-65708695D01*
X48006975Y-65728500D01*
X47017025Y-65728500D01*
X46997220Y-65708695D01*
X46960252Y-65696745D01*
X48360252Y-65696745D01*
X48397220Y-65748305D01*
X48417025Y-65728500D01*
X48397220Y-65708695D01*
X48360252Y-65696745D01*
X46960252Y-65696745D01*
X34048986Y-65696745D01*
X34049638Y-65213720D01*
X47492195Y-65213720D01*
X47512000Y-65233525D01*
X47531805Y-65213720D01*
X48892195Y-65213720D01*
X48912000Y-65233525D01*
X48931805Y-65213720D01*
X48943755Y-65176752D01*
X48892195Y-65213720D01*
X47531805Y-65213720D01*
X47542624Y-65180248D01*
X48180245Y-65180248D01*
X48231805Y-65143280D01*
X48212000Y-65123475D01*
X48192195Y-65143280D01*
X48180245Y-65180248D01*
X47542624Y-65180248D01*
X47543755Y-65176752D01*
X47492195Y-65213720D01*
X34049638Y-65213720D01*
X34049933Y-64996000D01*
X46500000Y-64996000D01*
X46509755Y-64995039D01*
X46519134Y-64992194D01*
X46527779Y-64987573D01*
X46535355Y-64981355D01*
X46541573Y-64973779D01*
X46546194Y-64965134D01*
X46549039Y-64955755D01*
X46550000Y-64946000D01*
X46550000Y-64596745D01*
X47660252Y-64596745D01*
X47697220Y-64648305D01*
X47717025Y-64628500D01*
X48706975Y-64628500D01*
X48726780Y-64648305D01*
X48763748Y-64660255D01*
X48726780Y-64608695D01*
X48706975Y-64628500D01*
X47717025Y-64628500D01*
X47697220Y-64608695D01*
X47660252Y-64596745D01*
X46550000Y-64596745D01*
X46550000Y-64113720D01*
X48192195Y-64113720D01*
X48212000Y-64133525D01*
X48231805Y-64113720D01*
X48242624Y-64080248D01*
X48880245Y-64080248D01*
X48931805Y-64043280D01*
X48912000Y-64023475D01*
X48892195Y-64043280D01*
X48880245Y-64080248D01*
X48242624Y-64080248D01*
X48243755Y-64076752D01*
X48192195Y-64113720D01*
X46550000Y-64113720D01*
X46550000Y-64080248D01*
X47480245Y-64080248D01*
X47531805Y-64043280D01*
X47512000Y-64023475D01*
X47492195Y-64043280D01*
X47480245Y-64080248D01*
X46550000Y-64080248D01*
X46550000Y-63496745D01*
X46960252Y-63496745D01*
X46997220Y-63548305D01*
X47017025Y-63528500D01*
X48006975Y-63528500D01*
X48026780Y-63548305D01*
X48063748Y-63560255D01*
X48026780Y-63508695D01*
X48006975Y-63528500D01*
X47017025Y-63528500D01*
X46997220Y-63508695D01*
X46960252Y-63496745D01*
X48360252Y-63496745D01*
X48397220Y-63548305D01*
X48417025Y-63528500D01*
X48397220Y-63508695D01*
X48360252Y-63496745D01*
X46960252Y-63496745D01*
X46550000Y-63496745D01*
X46550000Y-63013720D01*
X47492195Y-63013720D01*
X47512000Y-63033525D01*
X47531805Y-63013720D01*
X48892195Y-63013720D01*
X48912000Y-63033525D01*
X48931805Y-63013720D01*
X48943755Y-62976752D01*
X48892195Y-63013720D01*
X47531805Y-63013720D01*
X47543755Y-62976752D01*
X47492195Y-63013720D01*
X46550000Y-63013720D01*
X46550000Y-62800000D01*
X49449798Y-62800000D01*
X49446840Y-63536672D01*
G37*
%TD.AperFunction*%
%TD*%
M02*
