%TF.GenerationSoftware,KiCad,Pcbnew,(5.1.7)-1*%
%TF.CreationDate,2020-12-15T13:18:26+01:00*%
%TF.ProjectId,panel_my_little_poly_v01,70616e65-6c5f-46d7-995f-6c6974746c65,rev?*%
%TF.SameCoordinates,Original*%
%TF.FileFunction,Soldermask,Bot*%
%TF.FilePolarity,Negative*%
%FSLAX46Y46*%
G04 Gerber Fmt 4.6, Leading zero omitted, Abs format (unit mm)*
G04 Created by KiCad (PCBNEW (5.1.7)-1) date 2020-12-15 13:18:26*
%MOMM*%
%LPD*%
G01*
G04 APERTURE LIST*
%ADD10C,0.500000*%
%ADD11C,0.800000*%
%ADD12C,5.300000*%
%ADD13R,1.300000X1.300000*%
%ADD14C,1.300000*%
%ADD15O,2.900000X1.900000*%
%ADD16O,1.900000X2.900000*%
%ADD17C,0.600000*%
%ADD18C,6.000000*%
G04 APERTURE END LIST*
D10*
%TO.C,REF\u002A\u002A*%
X72750000Y-44500000D03*
X73750000Y-44500000D03*
X74750000Y-44500000D03*
X71750000Y-44500000D03*
X71750000Y-42500000D03*
X74750000Y-42500000D03*
X73750000Y-42500000D03*
X72750000Y-42500000D03*
%TD*%
%TO.C,REF\u002A\u002A*%
X72750000Y-59000000D03*
X73750000Y-59000000D03*
X74750000Y-59000000D03*
X71750000Y-59000000D03*
X71750000Y-61000000D03*
X74750000Y-61000000D03*
X73750000Y-61000000D03*
X72750000Y-61000000D03*
%TD*%
%TO.C,REF\u002A\u002A*%
X91000000Y-51250000D03*
X91000000Y-52250000D03*
X91000000Y-53250000D03*
X91000000Y-50250000D03*
X89000000Y-50250000D03*
X89000000Y-53250000D03*
X89000000Y-52250000D03*
X89000000Y-51250000D03*
%TD*%
%TO.C,REF\u002A\u002A*%
X78000000Y-51250000D03*
X78000000Y-52250000D03*
X78000000Y-53250000D03*
X78000000Y-50250000D03*
X76000000Y-50250000D03*
X76000000Y-53250000D03*
X76000000Y-52250000D03*
X76000000Y-51250000D03*
%TD*%
%TO.C,REF\u002A\u002A*%
X70500000Y-51250000D03*
X70500000Y-52250000D03*
X70500000Y-53250000D03*
X70500000Y-50250000D03*
X68500000Y-50250000D03*
X68500000Y-53250000D03*
X68500000Y-52250000D03*
X68500000Y-51250000D03*
%TD*%
%TO.C,REF\u002A\u002A*%
X55500000Y-51250000D03*
X55500000Y-52250000D03*
X55500000Y-53250000D03*
X55500000Y-50250000D03*
X57500000Y-50250000D03*
X57500000Y-53250000D03*
X57500000Y-52250000D03*
X57500000Y-51250000D03*
%TD*%
D11*
%TO.C,U102*%
X61912000Y-29728500D03*
X60512000Y-29728500D03*
X60512000Y-27528500D03*
X61912000Y-27528500D03*
X61212000Y-28628500D03*
%TD*%
D12*
%TO.C,H104*%
X96500000Y-14000000D03*
%TD*%
%TO.C,H103*%
X63000000Y-14000000D03*
%TD*%
%TO.C,H102*%
X96500000Y-53500000D03*
%TD*%
%TO.C,H101*%
X63000000Y-53500000D03*
%TD*%
D13*
%TO.C,J105*%
X110615000Y-37201000D03*
D14*
X110615000Y-34701000D03*
X110615000Y-32701000D03*
X110615000Y-30201000D03*
D15*
X110015000Y-40271000D03*
X110015000Y-27131000D03*
D16*
X105835000Y-33701000D03*
%TD*%
D13*
%TO.C,J104*%
X100582000Y-37201000D03*
D14*
X100582000Y-34701000D03*
X100582000Y-32701000D03*
X100582000Y-30201000D03*
D15*
X99982000Y-40271000D03*
X99982000Y-27131000D03*
D16*
X95802000Y-33701000D03*
%TD*%
D13*
%TO.C,J103*%
X90549000Y-37201000D03*
D14*
X90549000Y-34701000D03*
X90549000Y-32701000D03*
X90549000Y-30201000D03*
D15*
X89949000Y-40271000D03*
X89949000Y-27131000D03*
D16*
X85769000Y-33701000D03*
%TD*%
D13*
%TO.C,J102*%
X80389000Y-37201000D03*
D14*
X80389000Y-34701000D03*
X80389000Y-32701000D03*
X80389000Y-30201000D03*
D15*
X79789000Y-40271000D03*
X79789000Y-27131000D03*
D16*
X75609000Y-33701000D03*
%TD*%
D17*
%TO.C,U101*%
X69090000Y-33067000D03*
X68340000Y-33567000D03*
X67590000Y-33067000D03*
X67590000Y-34067000D03*
X69090000Y-34067000D03*
%TD*%
D18*
%TO.C,J101*%
X58506000Y-36312000D03*
G36*
G01*
X48306000Y-37812000D02*
X48306000Y-34812000D01*
G75*
G02*
X49806000Y-33312000I1500000J0D01*
G01*
X52806000Y-33312000D01*
G75*
G02*
X54306000Y-34812000I0J-1500000D01*
G01*
X54306000Y-37812000D01*
G75*
G02*
X52806000Y-39312000I-1500000J0D01*
G01*
X49806000Y-39312000D01*
G75*
G02*
X48306000Y-37812000I0J1500000D01*
G01*
G37*
%TD*%
D11*
%TO.C,U102*%
X48912000Y-65728500D03*
X47512000Y-65728500D03*
X47512000Y-63528500D03*
X48912000Y-63528500D03*
X48212000Y-64628500D03*
%TD*%
D12*
%TO.C,H104*%
X83500000Y-50000000D03*
%TD*%
%TO.C,H103*%
X50000000Y-50000000D03*
%TD*%
%TO.C,H102*%
X83500000Y-89500000D03*
%TD*%
%TO.C,H101*%
X50000000Y-89500000D03*
%TD*%
D13*
%TO.C,J105*%
X97615000Y-73201000D03*
D14*
X97615000Y-70701000D03*
X97615000Y-68701000D03*
X97615000Y-66201000D03*
D15*
X97015000Y-76271000D03*
X97015000Y-63131000D03*
D16*
X92835000Y-69701000D03*
%TD*%
D13*
%TO.C,J104*%
X87582000Y-73201000D03*
D14*
X87582000Y-70701000D03*
X87582000Y-68701000D03*
X87582000Y-66201000D03*
D15*
X86982000Y-76271000D03*
X86982000Y-63131000D03*
D16*
X82802000Y-69701000D03*
%TD*%
D13*
%TO.C,J103*%
X77549000Y-73201000D03*
D14*
X77549000Y-70701000D03*
X77549000Y-68701000D03*
X77549000Y-66201000D03*
D15*
X76949000Y-76271000D03*
X76949000Y-63131000D03*
D16*
X72769000Y-69701000D03*
%TD*%
D13*
%TO.C,J102*%
X67389000Y-73201000D03*
D14*
X67389000Y-70701000D03*
X67389000Y-68701000D03*
X67389000Y-66201000D03*
D15*
X66789000Y-76271000D03*
X66789000Y-63131000D03*
D16*
X62609000Y-69701000D03*
%TD*%
D17*
%TO.C,U101*%
X56090000Y-69067000D03*
X55340000Y-69567000D03*
X54590000Y-69067000D03*
X54590000Y-70067000D03*
X56090000Y-70067000D03*
%TD*%
D18*
%TO.C,J101*%
X45506000Y-72312000D03*
G36*
G01*
X35306000Y-73812000D02*
X35306000Y-70812000D01*
G75*
G02*
X36806000Y-69312000I1500000J0D01*
G01*
X39806000Y-69312000D01*
G75*
G02*
X41306000Y-70812000I0J-1500000D01*
G01*
X41306000Y-73812000D01*
G75*
G02*
X39806000Y-75312000I-1500000J0D01*
G01*
X36806000Y-75312000D01*
G75*
G02*
X35306000Y-73812000I0J1500000D01*
G01*
G37*
%TD*%
M02*
