%TF.GenerationSoftware,KiCad,Pcbnew,(5.1.7)-1*%
%TF.CreationDate,2020-12-15T13:18:26+01:00*%
%TF.ProjectId,panel_my_little_poly_v01,70616e65-6c5f-46d7-995f-6c6974746c65,rev?*%
%TF.SameCoordinates,Original*%
%TF.FileFunction,Profile,NP*%
%FSLAX46Y46*%
G04 Gerber Fmt 4.6, Leading zero omitted, Abs format (unit mm)*
G04 Created by KiCad (PCBNEW (5.1.7)-1) date 2020-12-15 13:18:26*
%MOMM*%
%LPD*%
G01*
G04 APERTURE LIST*
%TA.AperFunction,Profile*%
%ADD10C,0.050000*%
%TD*%
G04 APERTURE END LIST*
D10*
X75000000Y-61000000D02*
X76000000Y-61000000D01*
X70500000Y-44500000D02*
X71500000Y-44500000D01*
X71500000Y-42500000D02*
X70500000Y-42500000D01*
X76000000Y-44500000D02*
X76000000Y-50000000D01*
X75000000Y-59000000D02*
X76000000Y-59000000D01*
X70500000Y-53500000D02*
X70500000Y-59000000D01*
X55500000Y-59000000D02*
X55500000Y-53500000D01*
X57500000Y-50000000D02*
X57500000Y-44500000D01*
X75000000Y-42500000D02*
X75000000Y-44500000D01*
X71500000Y-44500000D02*
X71500000Y-42500000D01*
X76000000Y-53500000D02*
X78000000Y-53500000D01*
X76000000Y-50000000D02*
X78000000Y-50000000D01*
X75000000Y-59000000D02*
X75000000Y-61000000D01*
X71500000Y-59000000D02*
X71500000Y-61000000D01*
X68500000Y-53500000D02*
X70500000Y-53500000D01*
X68500000Y-50000000D02*
X70500000Y-50000000D01*
X76000000Y-44500000D02*
X75000000Y-44500000D01*
X76000000Y-59000000D02*
X76000000Y-53500000D01*
X70500000Y-59000000D02*
X71500000Y-59000000D01*
X70500000Y-44500000D02*
X70500000Y-50000000D01*
X91000000Y-53500000D02*
X89000000Y-53500000D01*
X91000000Y-50000000D02*
X89000000Y-50000000D01*
X55500000Y-50000000D02*
X57500000Y-50000000D01*
X57500000Y-53500000D02*
X55500000Y-53500000D01*
X91000000Y-50000000D02*
X91000000Y-44500000D01*
X75000000Y-42500000D02*
X89000000Y-42500000D01*
X68500000Y-50000000D02*
X68500000Y-44500000D01*
X57500000Y-61000000D02*
X71500000Y-61000000D01*
X78000000Y-59000000D02*
X78000000Y-53500000D01*
X89000000Y-53500000D02*
X89000000Y-59000000D01*
X64666666Y-53500000D02*
G75*
G03*
X64666666Y-53500000I-1666666J0D01*
G01*
X60500000Y-53500000D02*
X65500000Y-53500000D01*
X63000000Y-51000000D02*
X63000000Y-56000000D01*
X64666666Y-53500000D02*
G75*
G03*
X64666666Y-53500000I-1666666J0D01*
G01*
X60500000Y-53500000D02*
X65500000Y-53500000D01*
X63000000Y-51000000D02*
X63000000Y-56000000D01*
X115000000Y-27000000D02*
X115000000Y-40500000D01*
X44500000Y-27000000D02*
X44500000Y-40500000D01*
X46500000Y-42500000D02*
G75*
G02*
X44500000Y-40500000I0J2000000D01*
G01*
X44500000Y-27000000D02*
G75*
G02*
X46500000Y-25000000I2000000J0D01*
G01*
X115000000Y-40500000D02*
G75*
G02*
X113000000Y-42500000I-2000000J0D01*
G01*
X113000000Y-25000000D02*
G75*
G02*
X115000000Y-27000000I0J-2000000D01*
G01*
X55500000Y-25000000D02*
X46500000Y-25000000D01*
X55500000Y-42500000D02*
X46500000Y-42500000D01*
X104000000Y-42500000D02*
X113000000Y-42500000D01*
X104000000Y-25000000D02*
X113000000Y-25000000D01*
X70500000Y-25000000D02*
X89000000Y-25000000D01*
X104000000Y-25000000D02*
G75*
G02*
X102000000Y-23000000I0J2000000D01*
G01*
X91000000Y-23000000D02*
G75*
G02*
X89000000Y-25000000I-2000000J0D01*
G01*
X70500000Y-25000000D02*
G75*
G02*
X68500000Y-23000000I0J2000000D01*
G01*
X57500000Y-23000000D02*
G75*
G02*
X55500000Y-25000000I-2000000J0D01*
G01*
X55500000Y-42500000D02*
G75*
G02*
X57500000Y-44500000I0J-2000000D01*
G01*
X68500000Y-44500000D02*
G75*
G02*
X70500000Y-42500000I2000000J0D01*
G01*
X102000000Y-44500000D02*
G75*
G02*
X104000000Y-42500000I2000000J0D01*
G01*
X89000000Y-42500000D02*
G75*
G02*
X91000000Y-44500000I0J-2000000D01*
G01*
X102000000Y-53500000D02*
X102000000Y-44500000D01*
X57500000Y-23000000D02*
X57500000Y-14000000D01*
X68500000Y-23000000D02*
X68500000Y-14000000D01*
X91000000Y-23000000D02*
X91000000Y-14000000D01*
X102000000Y-14000000D02*
X102000000Y-23000000D01*
X91000000Y-14000000D02*
G75*
G02*
X102000000Y-14000000I5500000J0D01*
G01*
X57500000Y-14000000D02*
G75*
G02*
X68500000Y-14000000I5500000J0D01*
G01*
X102000000Y-53500000D02*
G75*
G02*
X91000000Y-53500000I-5500000J0D01*
G01*
X68500000Y-53500000D02*
G75*
G02*
X57500000Y-53500000I-5500000J0D01*
G01*
X51666666Y-89500000D02*
G75*
G03*
X51666666Y-89500000I-1666666J0D01*
G01*
X47500000Y-89500000D02*
X52500000Y-89500000D01*
X50000000Y-87000000D02*
X50000000Y-92000000D01*
X51666666Y-89500000D02*
G75*
G03*
X51666666Y-89500000I-1666666J0D01*
G01*
X47500000Y-89500000D02*
X52500000Y-89500000D01*
X50000000Y-87000000D02*
X50000000Y-92000000D01*
X102000000Y-63000000D02*
X102000000Y-76500000D01*
X31500000Y-63000000D02*
X31500000Y-76500000D01*
X33500000Y-78500000D02*
G75*
G02*
X31500000Y-76500000I0J2000000D01*
G01*
X31500000Y-63000000D02*
G75*
G02*
X33500000Y-61000000I2000000J0D01*
G01*
X102000000Y-76500000D02*
G75*
G02*
X100000000Y-78500000I-2000000J0D01*
G01*
X100000000Y-61000000D02*
G75*
G02*
X102000000Y-63000000I0J-2000000D01*
G01*
X42500000Y-61000000D02*
X33500000Y-61000000D01*
X42500000Y-78500000D02*
X33500000Y-78500000D01*
X91000000Y-78500000D02*
X100000000Y-78500000D01*
X91000000Y-61000000D02*
X100000000Y-61000000D01*
X57500000Y-78500000D02*
X76000000Y-78500000D01*
X91000000Y-61000000D02*
G75*
G02*
X89000000Y-59000000I0J2000000D01*
G01*
X78000000Y-59000000D02*
G75*
G02*
X76000000Y-61000000I-2000000J0D01*
G01*
X57500000Y-61000000D02*
G75*
G02*
X55500000Y-59000000I0J2000000D01*
G01*
X44500000Y-59000000D02*
G75*
G02*
X42500000Y-61000000I-2000000J0D01*
G01*
X42500000Y-78500000D02*
G75*
G02*
X44500000Y-80500000I0J-2000000D01*
G01*
X55500000Y-80500000D02*
G75*
G02*
X57500000Y-78500000I2000000J0D01*
G01*
X89000000Y-80500000D02*
G75*
G02*
X91000000Y-78500000I2000000J0D01*
G01*
X76000000Y-78500000D02*
G75*
G02*
X78000000Y-80500000I0J-2000000D01*
G01*
X89000000Y-89500000D02*
X89000000Y-80500000D01*
X78000000Y-89500000D02*
X78000000Y-80500000D01*
X55500000Y-89500000D02*
X55500000Y-80500000D01*
X44500000Y-89500000D02*
X44500000Y-80500000D01*
X44500000Y-59000000D02*
X44500000Y-50000000D01*
X78000000Y-50000000D02*
G75*
G02*
X89000000Y-50000000I5500000J0D01*
G01*
X44500000Y-50000000D02*
G75*
G02*
X55500000Y-50000000I5500000J0D01*
G01*
X89000000Y-89500000D02*
G75*
G02*
X78000000Y-89500000I-5500000J0D01*
G01*
X55500000Y-89500000D02*
G75*
G02*
X44500000Y-89500000I-5500000J0D01*
G01*
M02*
