%TF.GenerationSoftware,KiCad,Pcbnew,(5.1.7)-1*%
%TF.CreationDate,2020-12-15T13:18:25+01:00*%
%TF.ProjectId,panel_my_little_poly_v01,70616e65-6c5f-46d7-995f-6c6974746c65,rev?*%
%TF.SameCoordinates,Original*%
%TF.FileFunction,Paste,Top*%
%TF.FilePolarity,Positive*%
%FSLAX46Y46*%
G04 Gerber Fmt 4.6, Leading zero omitted, Abs format (unit mm)*
G04 Created by KiCad (PCBNEW (5.1.7)-1) date 2020-12-15 13:18:25*
%MOMM*%
%LPD*%
G01*
G04 APERTURE LIST*
%ADD10C,0.100000*%
%ADD11R,0.980000X3.400000*%
%ADD12O,0.230000X0.800000*%
%ADD13R,0.230000X0.230000*%
%ADD14R,1.050000X0.680000*%
%ADD15R,0.500000X0.260000*%
G04 APERTURE END LIST*
D10*
%TO.C,U102*%
G36*
X61462000Y-28978500D02*
G01*
X62212000Y-28978500D01*
X62212000Y-30128500D01*
X61462000Y-30128500D01*
X61462000Y-28978500D01*
G37*
X61462000Y-28978500D02*
X62212000Y-28978500D01*
X62212000Y-30128500D01*
X61462000Y-30128500D01*
X61462000Y-28978500D01*
G36*
X61462000Y-27128500D02*
G01*
X62212000Y-27128500D01*
X62212000Y-28278500D01*
X61462000Y-28278500D01*
X61462000Y-27128500D01*
G37*
X61462000Y-27128500D02*
X62212000Y-27128500D01*
X62212000Y-28278500D01*
X61462000Y-28278500D01*
X61462000Y-27128500D01*
G36*
X60212000Y-27128500D02*
G01*
X60962000Y-27128500D01*
X60962000Y-28278500D01*
X60212000Y-28278500D01*
X60212000Y-27128500D01*
G37*
X60212000Y-27128500D02*
X60962000Y-27128500D01*
X60962000Y-28278500D01*
X60212000Y-28278500D01*
X60212000Y-27128500D01*
G36*
X60212000Y-28978500D02*
G01*
X60962000Y-28978500D01*
X60962000Y-30128500D01*
X60212000Y-30128500D01*
X60212000Y-28978500D01*
G37*
X60212000Y-28978500D02*
X60962000Y-28978500D01*
X60962000Y-30128500D01*
X60212000Y-30128500D01*
X60212000Y-28978500D01*
G36*
X48462000Y-64978500D02*
G01*
X49212000Y-64978500D01*
X49212000Y-66128500D01*
X48462000Y-66128500D01*
X48462000Y-64978500D01*
G37*
X48462000Y-64978500D02*
X49212000Y-64978500D01*
X49212000Y-66128500D01*
X48462000Y-66128500D01*
X48462000Y-64978500D01*
G36*
X48462000Y-63128500D02*
G01*
X49212000Y-63128500D01*
X49212000Y-64278500D01*
X48462000Y-64278500D01*
X48462000Y-63128500D01*
G37*
X48462000Y-63128500D02*
X49212000Y-63128500D01*
X49212000Y-64278500D01*
X48462000Y-64278500D01*
X48462000Y-63128500D01*
G36*
X47212000Y-63128500D02*
G01*
X47962000Y-63128500D01*
X47962000Y-64278500D01*
X47212000Y-64278500D01*
X47212000Y-63128500D01*
G37*
X47212000Y-63128500D02*
X47962000Y-63128500D01*
X47962000Y-64278500D01*
X47212000Y-64278500D01*
X47212000Y-63128500D01*
G36*
X47212000Y-64978500D02*
G01*
X47962000Y-64978500D01*
X47962000Y-66128500D01*
X47212000Y-66128500D01*
X47212000Y-64978500D01*
G37*
X47212000Y-64978500D02*
X47962000Y-64978500D01*
X47962000Y-66128500D01*
X47212000Y-66128500D01*
X47212000Y-64978500D01*
%TD*%
%TO.C,R108*%
G36*
G01*
X113138500Y-35045000D02*
X112663500Y-35045000D01*
G75*
G02*
X112426000Y-34807500I0J237500D01*
G01*
X112426000Y-34307500D01*
G75*
G02*
X112663500Y-34070000I237500J0D01*
G01*
X113138500Y-34070000D01*
G75*
G02*
X113376000Y-34307500I0J-237500D01*
G01*
X113376000Y-34807500D01*
G75*
G02*
X113138500Y-35045000I-237500J0D01*
G01*
G37*
G36*
G01*
X113138500Y-33220000D02*
X112663500Y-33220000D01*
G75*
G02*
X112426000Y-32982500I0J237500D01*
G01*
X112426000Y-32482500D01*
G75*
G02*
X112663500Y-32245000I237500J0D01*
G01*
X113138500Y-32245000D01*
G75*
G02*
X113376000Y-32482500I0J-237500D01*
G01*
X113376000Y-32982500D01*
G75*
G02*
X113138500Y-33220000I-237500J0D01*
G01*
G37*
%TD*%
%TO.C,R107*%
G36*
G01*
X103232500Y-32759000D02*
X102757500Y-32759000D01*
G75*
G02*
X102520000Y-32521500I0J237500D01*
G01*
X102520000Y-32021500D01*
G75*
G02*
X102757500Y-31784000I237500J0D01*
G01*
X103232500Y-31784000D01*
G75*
G02*
X103470000Y-32021500I0J-237500D01*
G01*
X103470000Y-32521500D01*
G75*
G02*
X103232500Y-32759000I-237500J0D01*
G01*
G37*
G36*
G01*
X103232500Y-30934000D02*
X102757500Y-30934000D01*
G75*
G02*
X102520000Y-30696500I0J237500D01*
G01*
X102520000Y-30196500D01*
G75*
G02*
X102757500Y-29959000I237500J0D01*
G01*
X103232500Y-29959000D01*
G75*
G02*
X103470000Y-30196500I0J-237500D01*
G01*
X103470000Y-30696500D01*
G75*
G02*
X103232500Y-30934000I-237500J0D01*
G01*
G37*
%TD*%
%TO.C,R106*%
G36*
G01*
X93199500Y-32759000D02*
X92724500Y-32759000D01*
G75*
G02*
X92487000Y-32521500I0J237500D01*
G01*
X92487000Y-32021500D01*
G75*
G02*
X92724500Y-31784000I237500J0D01*
G01*
X93199500Y-31784000D01*
G75*
G02*
X93437000Y-32021500I0J-237500D01*
G01*
X93437000Y-32521500D01*
G75*
G02*
X93199500Y-32759000I-237500J0D01*
G01*
G37*
G36*
G01*
X93199500Y-30934000D02*
X92724500Y-30934000D01*
G75*
G02*
X92487000Y-30696500I0J237500D01*
G01*
X92487000Y-30196500D01*
G75*
G02*
X92724500Y-29959000I237500J0D01*
G01*
X93199500Y-29959000D01*
G75*
G02*
X93437000Y-30196500I0J-237500D01*
G01*
X93437000Y-30696500D01*
G75*
G02*
X93199500Y-30934000I-237500J0D01*
G01*
G37*
%TD*%
%TO.C,R105*%
G36*
G01*
X83037500Y-32700000D02*
X82562500Y-32700000D01*
G75*
G02*
X82325000Y-32462500I0J237500D01*
G01*
X82325000Y-31962500D01*
G75*
G02*
X82562500Y-31725000I237500J0D01*
G01*
X83037500Y-31725000D01*
G75*
G02*
X83275000Y-31962500I0J-237500D01*
G01*
X83275000Y-32462500D01*
G75*
G02*
X83037500Y-32700000I-237500J0D01*
G01*
G37*
G36*
G01*
X83037500Y-30875000D02*
X82562500Y-30875000D01*
G75*
G02*
X82325000Y-30637500I0J237500D01*
G01*
X82325000Y-30137500D01*
G75*
G02*
X82562500Y-29900000I237500J0D01*
G01*
X83037500Y-29900000D01*
G75*
G02*
X83275000Y-30137500I0J-237500D01*
G01*
X83275000Y-30637500D01*
G75*
G02*
X83037500Y-30875000I-237500J0D01*
G01*
G37*
%TD*%
%TO.C,U102*%
G36*
G01*
X59412000Y-30383500D02*
X59412000Y-30683500D01*
G75*
G02*
X59262000Y-30833500I-150000J0D01*
G01*
X57912000Y-30833500D01*
G75*
G02*
X57762000Y-30683500I0J150000D01*
G01*
X57762000Y-30383500D01*
G75*
G02*
X57912000Y-30233500I150000J0D01*
G01*
X59262000Y-30233500D01*
G75*
G02*
X59412000Y-30383500I0J-150000D01*
G01*
G37*
G36*
G01*
X59412000Y-29113500D02*
X59412000Y-29413500D01*
G75*
G02*
X59262000Y-29563500I-150000J0D01*
G01*
X57912000Y-29563500D01*
G75*
G02*
X57762000Y-29413500I0J150000D01*
G01*
X57762000Y-29113500D01*
G75*
G02*
X57912000Y-28963500I150000J0D01*
G01*
X59262000Y-28963500D01*
G75*
G02*
X59412000Y-29113500I0J-150000D01*
G01*
G37*
G36*
G01*
X59412000Y-27843500D02*
X59412000Y-28143500D01*
G75*
G02*
X59262000Y-28293500I-150000J0D01*
G01*
X57912000Y-28293500D01*
G75*
G02*
X57762000Y-28143500I0J150000D01*
G01*
X57762000Y-27843500D01*
G75*
G02*
X57912000Y-27693500I150000J0D01*
G01*
X59262000Y-27693500D01*
G75*
G02*
X59412000Y-27843500I0J-150000D01*
G01*
G37*
G36*
G01*
X59412000Y-26573500D02*
X59412000Y-26873500D01*
G75*
G02*
X59262000Y-27023500I-150000J0D01*
G01*
X57912000Y-27023500D01*
G75*
G02*
X57762000Y-26873500I0J150000D01*
G01*
X57762000Y-26573500D01*
G75*
G02*
X57912000Y-26423500I150000J0D01*
G01*
X59262000Y-26423500D01*
G75*
G02*
X59412000Y-26573500I0J-150000D01*
G01*
G37*
G36*
G01*
X64662000Y-26573500D02*
X64662000Y-26873500D01*
G75*
G02*
X64512000Y-27023500I-150000J0D01*
G01*
X63162000Y-27023500D01*
G75*
G02*
X63012000Y-26873500I0J150000D01*
G01*
X63012000Y-26573500D01*
G75*
G02*
X63162000Y-26423500I150000J0D01*
G01*
X64512000Y-26423500D01*
G75*
G02*
X64662000Y-26573500I0J-150000D01*
G01*
G37*
G36*
G01*
X64662000Y-27843500D02*
X64662000Y-28143500D01*
G75*
G02*
X64512000Y-28293500I-150000J0D01*
G01*
X63162000Y-28293500D01*
G75*
G02*
X63012000Y-28143500I0J150000D01*
G01*
X63012000Y-27843500D01*
G75*
G02*
X63162000Y-27693500I150000J0D01*
G01*
X64512000Y-27693500D01*
G75*
G02*
X64662000Y-27843500I0J-150000D01*
G01*
G37*
G36*
G01*
X64662000Y-29113500D02*
X64662000Y-29413500D01*
G75*
G02*
X64512000Y-29563500I-150000J0D01*
G01*
X63162000Y-29563500D01*
G75*
G02*
X63012000Y-29413500I0J150000D01*
G01*
X63012000Y-29113500D01*
G75*
G02*
X63162000Y-28963500I150000J0D01*
G01*
X64512000Y-28963500D01*
G75*
G02*
X64662000Y-29113500I0J-150000D01*
G01*
G37*
G36*
G01*
X64662000Y-30383500D02*
X64662000Y-30683500D01*
G75*
G02*
X64512000Y-30833500I-150000J0D01*
G01*
X63162000Y-30833500D01*
G75*
G02*
X63012000Y-30683500I0J150000D01*
G01*
X63012000Y-30383500D01*
G75*
G02*
X63162000Y-30233500I150000J0D01*
G01*
X64512000Y-30233500D01*
G75*
G02*
X64662000Y-30383500I0J-150000D01*
G01*
G37*
%TD*%
%TO.C,R104*%
G36*
G01*
X54945000Y-27692500D02*
X54945000Y-28167500D01*
G75*
G02*
X54707500Y-28405000I-237500J0D01*
G01*
X54207500Y-28405000D01*
G75*
G02*
X53970000Y-28167500I0J237500D01*
G01*
X53970000Y-27692500D01*
G75*
G02*
X54207500Y-27455000I237500J0D01*
G01*
X54707500Y-27455000D01*
G75*
G02*
X54945000Y-27692500I0J-237500D01*
G01*
G37*
G36*
G01*
X56770000Y-27692500D02*
X56770000Y-28167500D01*
G75*
G02*
X56532500Y-28405000I-237500J0D01*
G01*
X56032500Y-28405000D01*
G75*
G02*
X55795000Y-28167500I0J237500D01*
G01*
X55795000Y-27692500D01*
G75*
G02*
X56032500Y-27455000I237500J0D01*
G01*
X56532500Y-27455000D01*
G75*
G02*
X56770000Y-27692500I0J-237500D01*
G01*
G37*
%TD*%
%TO.C,C108*%
G36*
G01*
X55695000Y-26643500D02*
X55695000Y-26168500D01*
G75*
G02*
X55932500Y-25931000I237500J0D01*
G01*
X56532500Y-25931000D01*
G75*
G02*
X56770000Y-26168500I0J-237500D01*
G01*
X56770000Y-26643500D01*
G75*
G02*
X56532500Y-26881000I-237500J0D01*
G01*
X55932500Y-26881000D01*
G75*
G02*
X55695000Y-26643500I0J237500D01*
G01*
G37*
G36*
G01*
X53970000Y-26643500D02*
X53970000Y-26168500D01*
G75*
G02*
X54207500Y-25931000I237500J0D01*
G01*
X54807500Y-25931000D01*
G75*
G02*
X55045000Y-26168500I0J-237500D01*
G01*
X55045000Y-26643500D01*
G75*
G02*
X54807500Y-26881000I-237500J0D01*
G01*
X54207500Y-26881000D01*
G75*
G02*
X53970000Y-26643500I0J237500D01*
G01*
G37*
%TD*%
%TO.C,C107*%
G36*
G01*
X103724000Y-36667000D02*
X102774000Y-36667000D01*
G75*
G02*
X102524000Y-36417000I0J250000D01*
G01*
X102524000Y-35742000D01*
G75*
G02*
X102774000Y-35492000I250000J0D01*
G01*
X103724000Y-35492000D01*
G75*
G02*
X103974000Y-35742000I0J-250000D01*
G01*
X103974000Y-36417000D01*
G75*
G02*
X103724000Y-36667000I-250000J0D01*
G01*
G37*
G36*
G01*
X103724000Y-34592000D02*
X102774000Y-34592000D01*
G75*
G02*
X102524000Y-34342000I0J250000D01*
G01*
X102524000Y-33667000D01*
G75*
G02*
X102774000Y-33417000I250000J0D01*
G01*
X103724000Y-33417000D01*
G75*
G02*
X103974000Y-33667000I0J-250000D01*
G01*
X103974000Y-34342000D01*
G75*
G02*
X103724000Y-34592000I-250000J0D01*
G01*
G37*
%TD*%
%TO.C,C106*%
G36*
G01*
X72010000Y-28327500D02*
X72010000Y-28802500D01*
G75*
G02*
X71772500Y-29040000I-237500J0D01*
G01*
X71172500Y-29040000D01*
G75*
G02*
X70935000Y-28802500I0J237500D01*
G01*
X70935000Y-28327500D01*
G75*
G02*
X71172500Y-28090000I237500J0D01*
G01*
X71772500Y-28090000D01*
G75*
G02*
X72010000Y-28327500I0J-237500D01*
G01*
G37*
G36*
G01*
X70285000Y-28327500D02*
X70285000Y-28802500D01*
G75*
G02*
X70047500Y-29040000I-237500J0D01*
G01*
X69447500Y-29040000D01*
G75*
G02*
X69210000Y-28802500I0J237500D01*
G01*
X69210000Y-28327500D01*
G75*
G02*
X69447500Y-28090000I237500J0D01*
G01*
X70047500Y-28090000D01*
G75*
G02*
X70285000Y-28327500I0J-237500D01*
G01*
G37*
%TD*%
D11*
%TO.C,L101*%
X64726000Y-38090000D03*
X67096000Y-38090000D03*
%TD*%
D12*
%TO.C,U101*%
X67340000Y-35042000D03*
X67840000Y-35042000D03*
D13*
X68340000Y-35327000D03*
D12*
X68840000Y-35042000D03*
D13*
X69340000Y-35327000D03*
D12*
X69340000Y-32092000D03*
X68840000Y-32092000D03*
D13*
X68340000Y-31807000D03*
X67840000Y-31807000D03*
X67340000Y-31807000D03*
D14*
X67705000Y-34017000D03*
D15*
X66710000Y-33817000D03*
X66710000Y-33317000D03*
X69970000Y-33817000D03*
X69970000Y-33317000D03*
D14*
X67705000Y-33117000D03*
X68975000Y-34017000D03*
X68975000Y-33117000D03*
D13*
X67340000Y-35327000D03*
X67840000Y-35327000D03*
D12*
X68340000Y-35042000D03*
D13*
X68840000Y-35327000D03*
D12*
X69340000Y-35042000D03*
D13*
X69340000Y-31807000D03*
X68840000Y-31807000D03*
D12*
X68340000Y-32092000D03*
X67840000Y-32092000D03*
X67340000Y-32092000D03*
%TD*%
%TO.C,R103*%
G36*
G01*
X72772000Y-37598500D02*
X72772000Y-38073500D01*
G75*
G02*
X72534500Y-38311000I-237500J0D01*
G01*
X72034500Y-38311000D01*
G75*
G02*
X71797000Y-38073500I0J237500D01*
G01*
X71797000Y-37598500D01*
G75*
G02*
X72034500Y-37361000I237500J0D01*
G01*
X72534500Y-37361000D01*
G75*
G02*
X72772000Y-37598500I0J-237500D01*
G01*
G37*
G36*
G01*
X70947000Y-37598500D02*
X70947000Y-38073500D01*
G75*
G02*
X70709500Y-38311000I-237500J0D01*
G01*
X70209500Y-38311000D01*
G75*
G02*
X69972000Y-38073500I0J237500D01*
G01*
X69972000Y-37598500D01*
G75*
G02*
X70209500Y-37361000I237500J0D01*
G01*
X70709500Y-37361000D01*
G75*
G02*
X70947000Y-37598500I0J-237500D01*
G01*
G37*
%TD*%
%TO.C,R102*%
G36*
G01*
X68454000Y-29978500D02*
X68454000Y-30453500D01*
G75*
G02*
X68216500Y-30691000I-237500J0D01*
G01*
X67716500Y-30691000D01*
G75*
G02*
X67479000Y-30453500I0J237500D01*
G01*
X67479000Y-29978500D01*
G75*
G02*
X67716500Y-29741000I237500J0D01*
G01*
X68216500Y-29741000D01*
G75*
G02*
X68454000Y-29978500I0J-237500D01*
G01*
G37*
G36*
G01*
X66629000Y-29978500D02*
X66629000Y-30453500D01*
G75*
G02*
X66391500Y-30691000I-237500J0D01*
G01*
X65891500Y-30691000D01*
G75*
G02*
X65654000Y-30453500I0J237500D01*
G01*
X65654000Y-29978500D01*
G75*
G02*
X65891500Y-29741000I237500J0D01*
G01*
X66391500Y-29741000D01*
G75*
G02*
X66629000Y-29978500I0J-237500D01*
G01*
G37*
%TD*%
%TO.C,R101*%
G36*
G01*
X72010000Y-29978500D02*
X72010000Y-30453500D01*
G75*
G02*
X71772500Y-30691000I-237500J0D01*
G01*
X71272500Y-30691000D01*
G75*
G02*
X71035000Y-30453500I0J237500D01*
G01*
X71035000Y-29978500D01*
G75*
G02*
X71272500Y-29741000I237500J0D01*
G01*
X71772500Y-29741000D01*
G75*
G02*
X72010000Y-29978500I0J-237500D01*
G01*
G37*
G36*
G01*
X70185000Y-29978500D02*
X70185000Y-30453500D01*
G75*
G02*
X69947500Y-30691000I-237500J0D01*
G01*
X69447500Y-30691000D01*
G75*
G02*
X69210000Y-30453500I0J237500D01*
G01*
X69210000Y-29978500D01*
G75*
G02*
X69447500Y-29741000I237500J0D01*
G01*
X69947500Y-29741000D01*
G75*
G02*
X70185000Y-29978500I0J-237500D01*
G01*
G37*
%TD*%
%TO.C,C105*%
G36*
G01*
X70861000Y-32231500D02*
X70861000Y-31756500D01*
G75*
G02*
X71098500Y-31519000I237500J0D01*
G01*
X71698500Y-31519000D01*
G75*
G02*
X71936000Y-31756500I0J-237500D01*
G01*
X71936000Y-32231500D01*
G75*
G02*
X71698500Y-32469000I-237500J0D01*
G01*
X71098500Y-32469000D01*
G75*
G02*
X70861000Y-32231500I0J237500D01*
G01*
G37*
G36*
G01*
X72586000Y-32231500D02*
X72586000Y-31756500D01*
G75*
G02*
X72823500Y-31519000I237500J0D01*
G01*
X73423500Y-31519000D01*
G75*
G02*
X73661000Y-31756500I0J-237500D01*
G01*
X73661000Y-32231500D01*
G75*
G02*
X73423500Y-32469000I-237500J0D01*
G01*
X72823500Y-32469000D01*
G75*
G02*
X72586000Y-32231500I0J237500D01*
G01*
G37*
%TD*%
%TO.C,C104*%
G36*
G01*
X93691000Y-36667000D02*
X92741000Y-36667000D01*
G75*
G02*
X92491000Y-36417000I0J250000D01*
G01*
X92491000Y-35742000D01*
G75*
G02*
X92741000Y-35492000I250000J0D01*
G01*
X93691000Y-35492000D01*
G75*
G02*
X93941000Y-35742000I0J-250000D01*
G01*
X93941000Y-36417000D01*
G75*
G02*
X93691000Y-36667000I-250000J0D01*
G01*
G37*
G36*
G01*
X93691000Y-34592000D02*
X92741000Y-34592000D01*
G75*
G02*
X92491000Y-34342000I0J250000D01*
G01*
X92491000Y-33667000D01*
G75*
G02*
X92741000Y-33417000I250000J0D01*
G01*
X93691000Y-33417000D01*
G75*
G02*
X93941000Y-33667000I0J-250000D01*
G01*
X93941000Y-34342000D01*
G75*
G02*
X93691000Y-34592000I-250000J0D01*
G01*
G37*
%TD*%
%TO.C,C103*%
G36*
G01*
X83531000Y-36667000D02*
X82581000Y-36667000D01*
G75*
G02*
X82331000Y-36417000I0J250000D01*
G01*
X82331000Y-35742000D01*
G75*
G02*
X82581000Y-35492000I250000J0D01*
G01*
X83531000Y-35492000D01*
G75*
G02*
X83781000Y-35742000I0J-250000D01*
G01*
X83781000Y-36417000D01*
G75*
G02*
X83531000Y-36667000I-250000J0D01*
G01*
G37*
G36*
G01*
X83531000Y-34592000D02*
X82581000Y-34592000D01*
G75*
G02*
X82331000Y-34342000I0J250000D01*
G01*
X82331000Y-33667000D01*
G75*
G02*
X82581000Y-33417000I250000J0D01*
G01*
X83531000Y-33417000D01*
G75*
G02*
X83781000Y-33667000I0J-250000D01*
G01*
X83781000Y-34342000D01*
G75*
G02*
X83531000Y-34592000I-250000J0D01*
G01*
G37*
%TD*%
%TO.C,C102*%
G36*
G01*
X72101000Y-36667000D02*
X71151000Y-36667000D01*
G75*
G02*
X70901000Y-36417000I0J250000D01*
G01*
X70901000Y-35742000D01*
G75*
G02*
X71151000Y-35492000I250000J0D01*
G01*
X72101000Y-35492000D01*
G75*
G02*
X72351000Y-35742000I0J-250000D01*
G01*
X72351000Y-36417000D01*
G75*
G02*
X72101000Y-36667000I-250000J0D01*
G01*
G37*
G36*
G01*
X72101000Y-34592000D02*
X71151000Y-34592000D01*
G75*
G02*
X70901000Y-34342000I0J250000D01*
G01*
X70901000Y-33667000D01*
G75*
G02*
X71151000Y-33417000I250000J0D01*
G01*
X72101000Y-33417000D01*
G75*
G02*
X72351000Y-33667000I0J-250000D01*
G01*
X72351000Y-34342000D01*
G75*
G02*
X72101000Y-34592000I-250000J0D01*
G01*
G37*
%TD*%
%TO.C,C101*%
G36*
G01*
X64547000Y-32147000D02*
X65497000Y-32147000D01*
G75*
G02*
X65747000Y-32397000I0J-250000D01*
G01*
X65747000Y-33072000D01*
G75*
G02*
X65497000Y-33322000I-250000J0D01*
G01*
X64547000Y-33322000D01*
G75*
G02*
X64297000Y-33072000I0J250000D01*
G01*
X64297000Y-32397000D01*
G75*
G02*
X64547000Y-32147000I250000J0D01*
G01*
G37*
G36*
G01*
X64547000Y-34222000D02*
X65497000Y-34222000D01*
G75*
G02*
X65747000Y-34472000I0J-250000D01*
G01*
X65747000Y-35147000D01*
G75*
G02*
X65497000Y-35397000I-250000J0D01*
G01*
X64547000Y-35397000D01*
G75*
G02*
X64297000Y-35147000I0J250000D01*
G01*
X64297000Y-34472000D01*
G75*
G02*
X64547000Y-34222000I250000J0D01*
G01*
G37*
%TD*%
%TO.C,R108*%
G36*
G01*
X100138500Y-71045000D02*
X99663500Y-71045000D01*
G75*
G02*
X99426000Y-70807500I0J237500D01*
G01*
X99426000Y-70307500D01*
G75*
G02*
X99663500Y-70070000I237500J0D01*
G01*
X100138500Y-70070000D01*
G75*
G02*
X100376000Y-70307500I0J-237500D01*
G01*
X100376000Y-70807500D01*
G75*
G02*
X100138500Y-71045000I-237500J0D01*
G01*
G37*
G36*
G01*
X100138500Y-69220000D02*
X99663500Y-69220000D01*
G75*
G02*
X99426000Y-68982500I0J237500D01*
G01*
X99426000Y-68482500D01*
G75*
G02*
X99663500Y-68245000I237500J0D01*
G01*
X100138500Y-68245000D01*
G75*
G02*
X100376000Y-68482500I0J-237500D01*
G01*
X100376000Y-68982500D01*
G75*
G02*
X100138500Y-69220000I-237500J0D01*
G01*
G37*
%TD*%
%TO.C,R107*%
G36*
G01*
X90232500Y-68759000D02*
X89757500Y-68759000D01*
G75*
G02*
X89520000Y-68521500I0J237500D01*
G01*
X89520000Y-68021500D01*
G75*
G02*
X89757500Y-67784000I237500J0D01*
G01*
X90232500Y-67784000D01*
G75*
G02*
X90470000Y-68021500I0J-237500D01*
G01*
X90470000Y-68521500D01*
G75*
G02*
X90232500Y-68759000I-237500J0D01*
G01*
G37*
G36*
G01*
X90232500Y-66934000D02*
X89757500Y-66934000D01*
G75*
G02*
X89520000Y-66696500I0J237500D01*
G01*
X89520000Y-66196500D01*
G75*
G02*
X89757500Y-65959000I237500J0D01*
G01*
X90232500Y-65959000D01*
G75*
G02*
X90470000Y-66196500I0J-237500D01*
G01*
X90470000Y-66696500D01*
G75*
G02*
X90232500Y-66934000I-237500J0D01*
G01*
G37*
%TD*%
%TO.C,R106*%
G36*
G01*
X80199500Y-68759000D02*
X79724500Y-68759000D01*
G75*
G02*
X79487000Y-68521500I0J237500D01*
G01*
X79487000Y-68021500D01*
G75*
G02*
X79724500Y-67784000I237500J0D01*
G01*
X80199500Y-67784000D01*
G75*
G02*
X80437000Y-68021500I0J-237500D01*
G01*
X80437000Y-68521500D01*
G75*
G02*
X80199500Y-68759000I-237500J0D01*
G01*
G37*
G36*
G01*
X80199500Y-66934000D02*
X79724500Y-66934000D01*
G75*
G02*
X79487000Y-66696500I0J237500D01*
G01*
X79487000Y-66196500D01*
G75*
G02*
X79724500Y-65959000I237500J0D01*
G01*
X80199500Y-65959000D01*
G75*
G02*
X80437000Y-66196500I0J-237500D01*
G01*
X80437000Y-66696500D01*
G75*
G02*
X80199500Y-66934000I-237500J0D01*
G01*
G37*
%TD*%
%TO.C,R105*%
G36*
G01*
X70037500Y-68700000D02*
X69562500Y-68700000D01*
G75*
G02*
X69325000Y-68462500I0J237500D01*
G01*
X69325000Y-67962500D01*
G75*
G02*
X69562500Y-67725000I237500J0D01*
G01*
X70037500Y-67725000D01*
G75*
G02*
X70275000Y-67962500I0J-237500D01*
G01*
X70275000Y-68462500D01*
G75*
G02*
X70037500Y-68700000I-237500J0D01*
G01*
G37*
G36*
G01*
X70037500Y-66875000D02*
X69562500Y-66875000D01*
G75*
G02*
X69325000Y-66637500I0J237500D01*
G01*
X69325000Y-66137500D01*
G75*
G02*
X69562500Y-65900000I237500J0D01*
G01*
X70037500Y-65900000D01*
G75*
G02*
X70275000Y-66137500I0J-237500D01*
G01*
X70275000Y-66637500D01*
G75*
G02*
X70037500Y-66875000I-237500J0D01*
G01*
G37*
%TD*%
%TO.C,U102*%
G36*
G01*
X46412000Y-66383500D02*
X46412000Y-66683500D01*
G75*
G02*
X46262000Y-66833500I-150000J0D01*
G01*
X44912000Y-66833500D01*
G75*
G02*
X44762000Y-66683500I0J150000D01*
G01*
X44762000Y-66383500D01*
G75*
G02*
X44912000Y-66233500I150000J0D01*
G01*
X46262000Y-66233500D01*
G75*
G02*
X46412000Y-66383500I0J-150000D01*
G01*
G37*
G36*
G01*
X46412000Y-65113500D02*
X46412000Y-65413500D01*
G75*
G02*
X46262000Y-65563500I-150000J0D01*
G01*
X44912000Y-65563500D01*
G75*
G02*
X44762000Y-65413500I0J150000D01*
G01*
X44762000Y-65113500D01*
G75*
G02*
X44912000Y-64963500I150000J0D01*
G01*
X46262000Y-64963500D01*
G75*
G02*
X46412000Y-65113500I0J-150000D01*
G01*
G37*
G36*
G01*
X46412000Y-63843500D02*
X46412000Y-64143500D01*
G75*
G02*
X46262000Y-64293500I-150000J0D01*
G01*
X44912000Y-64293500D01*
G75*
G02*
X44762000Y-64143500I0J150000D01*
G01*
X44762000Y-63843500D01*
G75*
G02*
X44912000Y-63693500I150000J0D01*
G01*
X46262000Y-63693500D01*
G75*
G02*
X46412000Y-63843500I0J-150000D01*
G01*
G37*
G36*
G01*
X46412000Y-62573500D02*
X46412000Y-62873500D01*
G75*
G02*
X46262000Y-63023500I-150000J0D01*
G01*
X44912000Y-63023500D01*
G75*
G02*
X44762000Y-62873500I0J150000D01*
G01*
X44762000Y-62573500D01*
G75*
G02*
X44912000Y-62423500I150000J0D01*
G01*
X46262000Y-62423500D01*
G75*
G02*
X46412000Y-62573500I0J-150000D01*
G01*
G37*
G36*
G01*
X51662000Y-62573500D02*
X51662000Y-62873500D01*
G75*
G02*
X51512000Y-63023500I-150000J0D01*
G01*
X50162000Y-63023500D01*
G75*
G02*
X50012000Y-62873500I0J150000D01*
G01*
X50012000Y-62573500D01*
G75*
G02*
X50162000Y-62423500I150000J0D01*
G01*
X51512000Y-62423500D01*
G75*
G02*
X51662000Y-62573500I0J-150000D01*
G01*
G37*
G36*
G01*
X51662000Y-63843500D02*
X51662000Y-64143500D01*
G75*
G02*
X51512000Y-64293500I-150000J0D01*
G01*
X50162000Y-64293500D01*
G75*
G02*
X50012000Y-64143500I0J150000D01*
G01*
X50012000Y-63843500D01*
G75*
G02*
X50162000Y-63693500I150000J0D01*
G01*
X51512000Y-63693500D01*
G75*
G02*
X51662000Y-63843500I0J-150000D01*
G01*
G37*
G36*
G01*
X51662000Y-65113500D02*
X51662000Y-65413500D01*
G75*
G02*
X51512000Y-65563500I-150000J0D01*
G01*
X50162000Y-65563500D01*
G75*
G02*
X50012000Y-65413500I0J150000D01*
G01*
X50012000Y-65113500D01*
G75*
G02*
X50162000Y-64963500I150000J0D01*
G01*
X51512000Y-64963500D01*
G75*
G02*
X51662000Y-65113500I0J-150000D01*
G01*
G37*
G36*
G01*
X51662000Y-66383500D02*
X51662000Y-66683500D01*
G75*
G02*
X51512000Y-66833500I-150000J0D01*
G01*
X50162000Y-66833500D01*
G75*
G02*
X50012000Y-66683500I0J150000D01*
G01*
X50012000Y-66383500D01*
G75*
G02*
X50162000Y-66233500I150000J0D01*
G01*
X51512000Y-66233500D01*
G75*
G02*
X51662000Y-66383500I0J-150000D01*
G01*
G37*
%TD*%
%TO.C,R104*%
G36*
G01*
X41945000Y-63692500D02*
X41945000Y-64167500D01*
G75*
G02*
X41707500Y-64405000I-237500J0D01*
G01*
X41207500Y-64405000D01*
G75*
G02*
X40970000Y-64167500I0J237500D01*
G01*
X40970000Y-63692500D01*
G75*
G02*
X41207500Y-63455000I237500J0D01*
G01*
X41707500Y-63455000D01*
G75*
G02*
X41945000Y-63692500I0J-237500D01*
G01*
G37*
G36*
G01*
X43770000Y-63692500D02*
X43770000Y-64167500D01*
G75*
G02*
X43532500Y-64405000I-237500J0D01*
G01*
X43032500Y-64405000D01*
G75*
G02*
X42795000Y-64167500I0J237500D01*
G01*
X42795000Y-63692500D01*
G75*
G02*
X43032500Y-63455000I237500J0D01*
G01*
X43532500Y-63455000D01*
G75*
G02*
X43770000Y-63692500I0J-237500D01*
G01*
G37*
%TD*%
%TO.C,C108*%
G36*
G01*
X42695000Y-62643500D02*
X42695000Y-62168500D01*
G75*
G02*
X42932500Y-61931000I237500J0D01*
G01*
X43532500Y-61931000D01*
G75*
G02*
X43770000Y-62168500I0J-237500D01*
G01*
X43770000Y-62643500D01*
G75*
G02*
X43532500Y-62881000I-237500J0D01*
G01*
X42932500Y-62881000D01*
G75*
G02*
X42695000Y-62643500I0J237500D01*
G01*
G37*
G36*
G01*
X40970000Y-62643500D02*
X40970000Y-62168500D01*
G75*
G02*
X41207500Y-61931000I237500J0D01*
G01*
X41807500Y-61931000D01*
G75*
G02*
X42045000Y-62168500I0J-237500D01*
G01*
X42045000Y-62643500D01*
G75*
G02*
X41807500Y-62881000I-237500J0D01*
G01*
X41207500Y-62881000D01*
G75*
G02*
X40970000Y-62643500I0J237500D01*
G01*
G37*
%TD*%
%TO.C,C107*%
G36*
G01*
X90724000Y-72667000D02*
X89774000Y-72667000D01*
G75*
G02*
X89524000Y-72417000I0J250000D01*
G01*
X89524000Y-71742000D01*
G75*
G02*
X89774000Y-71492000I250000J0D01*
G01*
X90724000Y-71492000D01*
G75*
G02*
X90974000Y-71742000I0J-250000D01*
G01*
X90974000Y-72417000D01*
G75*
G02*
X90724000Y-72667000I-250000J0D01*
G01*
G37*
G36*
G01*
X90724000Y-70592000D02*
X89774000Y-70592000D01*
G75*
G02*
X89524000Y-70342000I0J250000D01*
G01*
X89524000Y-69667000D01*
G75*
G02*
X89774000Y-69417000I250000J0D01*
G01*
X90724000Y-69417000D01*
G75*
G02*
X90974000Y-69667000I0J-250000D01*
G01*
X90974000Y-70342000D01*
G75*
G02*
X90724000Y-70592000I-250000J0D01*
G01*
G37*
%TD*%
%TO.C,C106*%
G36*
G01*
X59010000Y-64327500D02*
X59010000Y-64802500D01*
G75*
G02*
X58772500Y-65040000I-237500J0D01*
G01*
X58172500Y-65040000D01*
G75*
G02*
X57935000Y-64802500I0J237500D01*
G01*
X57935000Y-64327500D01*
G75*
G02*
X58172500Y-64090000I237500J0D01*
G01*
X58772500Y-64090000D01*
G75*
G02*
X59010000Y-64327500I0J-237500D01*
G01*
G37*
G36*
G01*
X57285000Y-64327500D02*
X57285000Y-64802500D01*
G75*
G02*
X57047500Y-65040000I-237500J0D01*
G01*
X56447500Y-65040000D01*
G75*
G02*
X56210000Y-64802500I0J237500D01*
G01*
X56210000Y-64327500D01*
G75*
G02*
X56447500Y-64090000I237500J0D01*
G01*
X57047500Y-64090000D01*
G75*
G02*
X57285000Y-64327500I0J-237500D01*
G01*
G37*
%TD*%
D11*
%TO.C,L101*%
X51726000Y-74090000D03*
X54096000Y-74090000D03*
%TD*%
D12*
%TO.C,U101*%
X54340000Y-71042000D03*
X54840000Y-71042000D03*
D13*
X55340000Y-71327000D03*
D12*
X55840000Y-71042000D03*
D13*
X56340000Y-71327000D03*
D12*
X56340000Y-68092000D03*
X55840000Y-68092000D03*
D13*
X55340000Y-67807000D03*
X54840000Y-67807000D03*
X54340000Y-67807000D03*
D14*
X54705000Y-70017000D03*
D15*
X53710000Y-69817000D03*
X53710000Y-69317000D03*
X56970000Y-69817000D03*
X56970000Y-69317000D03*
D14*
X54705000Y-69117000D03*
X55975000Y-70017000D03*
X55975000Y-69117000D03*
D13*
X54340000Y-71327000D03*
X54840000Y-71327000D03*
D12*
X55340000Y-71042000D03*
D13*
X55840000Y-71327000D03*
D12*
X56340000Y-71042000D03*
D13*
X56340000Y-67807000D03*
X55840000Y-67807000D03*
D12*
X55340000Y-68092000D03*
X54840000Y-68092000D03*
X54340000Y-68092000D03*
%TD*%
%TO.C,R103*%
G36*
G01*
X59772000Y-73598500D02*
X59772000Y-74073500D01*
G75*
G02*
X59534500Y-74311000I-237500J0D01*
G01*
X59034500Y-74311000D01*
G75*
G02*
X58797000Y-74073500I0J237500D01*
G01*
X58797000Y-73598500D01*
G75*
G02*
X59034500Y-73361000I237500J0D01*
G01*
X59534500Y-73361000D01*
G75*
G02*
X59772000Y-73598500I0J-237500D01*
G01*
G37*
G36*
G01*
X57947000Y-73598500D02*
X57947000Y-74073500D01*
G75*
G02*
X57709500Y-74311000I-237500J0D01*
G01*
X57209500Y-74311000D01*
G75*
G02*
X56972000Y-74073500I0J237500D01*
G01*
X56972000Y-73598500D01*
G75*
G02*
X57209500Y-73361000I237500J0D01*
G01*
X57709500Y-73361000D01*
G75*
G02*
X57947000Y-73598500I0J-237500D01*
G01*
G37*
%TD*%
%TO.C,R102*%
G36*
G01*
X55454000Y-65978500D02*
X55454000Y-66453500D01*
G75*
G02*
X55216500Y-66691000I-237500J0D01*
G01*
X54716500Y-66691000D01*
G75*
G02*
X54479000Y-66453500I0J237500D01*
G01*
X54479000Y-65978500D01*
G75*
G02*
X54716500Y-65741000I237500J0D01*
G01*
X55216500Y-65741000D01*
G75*
G02*
X55454000Y-65978500I0J-237500D01*
G01*
G37*
G36*
G01*
X53629000Y-65978500D02*
X53629000Y-66453500D01*
G75*
G02*
X53391500Y-66691000I-237500J0D01*
G01*
X52891500Y-66691000D01*
G75*
G02*
X52654000Y-66453500I0J237500D01*
G01*
X52654000Y-65978500D01*
G75*
G02*
X52891500Y-65741000I237500J0D01*
G01*
X53391500Y-65741000D01*
G75*
G02*
X53629000Y-65978500I0J-237500D01*
G01*
G37*
%TD*%
%TO.C,R101*%
G36*
G01*
X59010000Y-65978500D02*
X59010000Y-66453500D01*
G75*
G02*
X58772500Y-66691000I-237500J0D01*
G01*
X58272500Y-66691000D01*
G75*
G02*
X58035000Y-66453500I0J237500D01*
G01*
X58035000Y-65978500D01*
G75*
G02*
X58272500Y-65741000I237500J0D01*
G01*
X58772500Y-65741000D01*
G75*
G02*
X59010000Y-65978500I0J-237500D01*
G01*
G37*
G36*
G01*
X57185000Y-65978500D02*
X57185000Y-66453500D01*
G75*
G02*
X56947500Y-66691000I-237500J0D01*
G01*
X56447500Y-66691000D01*
G75*
G02*
X56210000Y-66453500I0J237500D01*
G01*
X56210000Y-65978500D01*
G75*
G02*
X56447500Y-65741000I237500J0D01*
G01*
X56947500Y-65741000D01*
G75*
G02*
X57185000Y-65978500I0J-237500D01*
G01*
G37*
%TD*%
%TO.C,C105*%
G36*
G01*
X57861000Y-68231500D02*
X57861000Y-67756500D01*
G75*
G02*
X58098500Y-67519000I237500J0D01*
G01*
X58698500Y-67519000D01*
G75*
G02*
X58936000Y-67756500I0J-237500D01*
G01*
X58936000Y-68231500D01*
G75*
G02*
X58698500Y-68469000I-237500J0D01*
G01*
X58098500Y-68469000D01*
G75*
G02*
X57861000Y-68231500I0J237500D01*
G01*
G37*
G36*
G01*
X59586000Y-68231500D02*
X59586000Y-67756500D01*
G75*
G02*
X59823500Y-67519000I237500J0D01*
G01*
X60423500Y-67519000D01*
G75*
G02*
X60661000Y-67756500I0J-237500D01*
G01*
X60661000Y-68231500D01*
G75*
G02*
X60423500Y-68469000I-237500J0D01*
G01*
X59823500Y-68469000D01*
G75*
G02*
X59586000Y-68231500I0J237500D01*
G01*
G37*
%TD*%
%TO.C,C104*%
G36*
G01*
X80691000Y-72667000D02*
X79741000Y-72667000D01*
G75*
G02*
X79491000Y-72417000I0J250000D01*
G01*
X79491000Y-71742000D01*
G75*
G02*
X79741000Y-71492000I250000J0D01*
G01*
X80691000Y-71492000D01*
G75*
G02*
X80941000Y-71742000I0J-250000D01*
G01*
X80941000Y-72417000D01*
G75*
G02*
X80691000Y-72667000I-250000J0D01*
G01*
G37*
G36*
G01*
X80691000Y-70592000D02*
X79741000Y-70592000D01*
G75*
G02*
X79491000Y-70342000I0J250000D01*
G01*
X79491000Y-69667000D01*
G75*
G02*
X79741000Y-69417000I250000J0D01*
G01*
X80691000Y-69417000D01*
G75*
G02*
X80941000Y-69667000I0J-250000D01*
G01*
X80941000Y-70342000D01*
G75*
G02*
X80691000Y-70592000I-250000J0D01*
G01*
G37*
%TD*%
%TO.C,C103*%
G36*
G01*
X70531000Y-72667000D02*
X69581000Y-72667000D01*
G75*
G02*
X69331000Y-72417000I0J250000D01*
G01*
X69331000Y-71742000D01*
G75*
G02*
X69581000Y-71492000I250000J0D01*
G01*
X70531000Y-71492000D01*
G75*
G02*
X70781000Y-71742000I0J-250000D01*
G01*
X70781000Y-72417000D01*
G75*
G02*
X70531000Y-72667000I-250000J0D01*
G01*
G37*
G36*
G01*
X70531000Y-70592000D02*
X69581000Y-70592000D01*
G75*
G02*
X69331000Y-70342000I0J250000D01*
G01*
X69331000Y-69667000D01*
G75*
G02*
X69581000Y-69417000I250000J0D01*
G01*
X70531000Y-69417000D01*
G75*
G02*
X70781000Y-69667000I0J-250000D01*
G01*
X70781000Y-70342000D01*
G75*
G02*
X70531000Y-70592000I-250000J0D01*
G01*
G37*
%TD*%
%TO.C,C102*%
G36*
G01*
X59101000Y-72667000D02*
X58151000Y-72667000D01*
G75*
G02*
X57901000Y-72417000I0J250000D01*
G01*
X57901000Y-71742000D01*
G75*
G02*
X58151000Y-71492000I250000J0D01*
G01*
X59101000Y-71492000D01*
G75*
G02*
X59351000Y-71742000I0J-250000D01*
G01*
X59351000Y-72417000D01*
G75*
G02*
X59101000Y-72667000I-250000J0D01*
G01*
G37*
G36*
G01*
X59101000Y-70592000D02*
X58151000Y-70592000D01*
G75*
G02*
X57901000Y-70342000I0J250000D01*
G01*
X57901000Y-69667000D01*
G75*
G02*
X58151000Y-69417000I250000J0D01*
G01*
X59101000Y-69417000D01*
G75*
G02*
X59351000Y-69667000I0J-250000D01*
G01*
X59351000Y-70342000D01*
G75*
G02*
X59101000Y-70592000I-250000J0D01*
G01*
G37*
%TD*%
%TO.C,C101*%
G36*
G01*
X51547000Y-68147000D02*
X52497000Y-68147000D01*
G75*
G02*
X52747000Y-68397000I0J-250000D01*
G01*
X52747000Y-69072000D01*
G75*
G02*
X52497000Y-69322000I-250000J0D01*
G01*
X51547000Y-69322000D01*
G75*
G02*
X51297000Y-69072000I0J250000D01*
G01*
X51297000Y-68397000D01*
G75*
G02*
X51547000Y-68147000I250000J0D01*
G01*
G37*
G36*
G01*
X51547000Y-70222000D02*
X52497000Y-70222000D01*
G75*
G02*
X52747000Y-70472000I0J-250000D01*
G01*
X52747000Y-71147000D01*
G75*
G02*
X52497000Y-71397000I-250000J0D01*
G01*
X51547000Y-71397000D01*
G75*
G02*
X51297000Y-71147000I0J250000D01*
G01*
X51297000Y-70472000D01*
G75*
G02*
X51547000Y-70222000I250000J0D01*
G01*
G37*
%TD*%
M02*
