M48
; DRILL file {KiCad (5.1.7)-1} date 12/15/20 13:18:28
; FORMAT={3:3/ absolute / metric / suppress leading zeros}
; #@! TF.CreationDate,2020-12-15T13:18:28+01:00
; #@! TF.GenerationSoftware,Kicad,Pcbnew,(5.1.7)-1
FMAT,2
METRIC,TZ
T1C0.300
T2C0.400
T3C0.500
T4C0.900
T5C1.300
T6C4.500
T7C0.500
T8C5.300
%
G90
G05
T1
X67590Y-33067
X67590Y-34067
X68340Y-33567
X69090Y-33067
X69090Y-34067
X54590Y-69067
X54590Y-70067
X55340Y-69567
X56090Y-69067
X56090Y-70067
T2
X40592Y-65962
X40592Y-66978
X40592Y-67994
X42116Y-65454
X42116Y-66470
X42116Y-67486
X53137Y-65264
X53142Y-62723
X53142Y-64058
X53592Y-29962
X53592Y-30978
X53592Y-31994
X54435Y-63930
X55116Y-29454
X55116Y-30470
X55116Y-31486
X56213Y-73836
X56340Y-62660
X57102Y-71296
X57610Y-62660
X58943Y-63359
X60086Y-71868
X60150Y-63295
X60150Y-64501
X60150Y-65390
X60150Y-66280
X60150Y-69264
X60150Y-70153
X60976Y-71868
X60976Y-72757
X65800Y-72100
X65800Y-73600
X66137Y-29264
X66142Y-26723
X66142Y-28059
X67435Y-27930
X69213Y-37836
X69340Y-26660
X69358Y-73519
X70102Y-35296
X70610Y-26660
X70755Y-73519
X70945Y-65962
X70945Y-67105
X70945Y-68248
X71944Y-27359
X73087Y-35868
X73150Y-27295
X73150Y-28501
X73150Y-29390
X73150Y-30280
X73150Y-33264
X73150Y-34153
X73976Y-35868
X73976Y-36757
X76000Y-72100
X76000Y-73600
X78800Y-36100
X78800Y-37600
X79518Y-73519
X80914Y-73519
X81105Y-65962
X81105Y-67105
X81105Y-68248
X82358Y-37518
X83754Y-37518
X83945Y-29962
X83945Y-31105
X83945Y-32248
X86100Y-72100
X86100Y-73700
X89000Y-36100
X89000Y-37600
X89551Y-73519
X90948Y-73519
X91011Y-65962
X91011Y-67105
X91011Y-68248
X92518Y-37518
X93914Y-37518
X94105Y-29962
X94105Y-31105
X94105Y-32248
X96100Y-72100
X96100Y-73600
X98600Y-64800
X98600Y-67400
X99100Y-36100
X99100Y-37700
X102551Y-37518
X103948Y-37518
X104011Y-29962
X104011Y-31105
X104011Y-32248
X109100Y-36100
X109100Y-37600
X111600Y-28800
X111600Y-31400
T3
X47512Y-63528
X47512Y-65729
X48212Y-64629
X48912Y-63528
X48912Y-65729
X60512Y-27528
X60512Y-29729
X61212Y-28628
X61912Y-27528
X61912Y-29729
T4
X90549Y-30201
X90549Y-32701
X90549Y-34701
X90549Y-37201
X100582Y-30201
X100582Y-32701
X100582Y-34701
X100582Y-37201
X67389Y-66201
X67389Y-68701
X67389Y-70701
X67389Y-73201
X87582Y-66201
X87582Y-68701
X87582Y-70701
X87582Y-73201
X80389Y-30201
X80389Y-32701
X80389Y-34701
X80389Y-37201
X97615Y-66201
X97615Y-68701
X97615Y-70701
X97615Y-73201
X77549Y-66201
X77549Y-68701
X77549Y-70701
X77549Y-73201
X110615Y-30201
X110615Y-32701
X110615Y-34701
X110615Y-37201
T6
X38306Y-72312
X45506Y-72312
X51306Y-36312
X58506Y-36312
T7
X76000Y-50250
X76000Y-51250
X76000Y-52250
X76000Y-53250
X78000Y-50250
X78000Y-51250
X78000Y-52250
X78000Y-53250
X89000Y-50250
X89000Y-51250
X89000Y-52250
X89000Y-53250
X91000Y-50250
X91000Y-51250
X91000Y-52250
X91000Y-53250
X71750Y-42500
X71750Y-44500
X72750Y-42500
X72750Y-44500
X73750Y-42500
X73750Y-44500
X74750Y-42500
X74750Y-44500
X71750Y-59000
X71750Y-61000
X72750Y-59000
X72750Y-61000
X73750Y-59000
X73750Y-61000
X74750Y-59000
X74750Y-61000
X55500Y-50250
X55500Y-51250
X55500Y-52250
X55500Y-53250
X57500Y-50250
X57500Y-51250
X57500Y-52250
X57500Y-53250
X68500Y-50250
X68500Y-51250
X68500Y-52250
X68500Y-53250
X70500Y-50250
X70500Y-51250
X70500Y-52250
X70500Y-53250
T8
X83500Y-89500
X50000Y-50000
X96500Y-14000
X96500Y-53500
X83500Y-50000
X63000Y-14000
X50000Y-89500
X63000Y-53500
T5
G00X82802Y-70201
M15
G01X82802Y-69201
M16
G05
G00X86482Y-63131
M15
G01X87482Y-63131
M16
G05
G00X87482Y-76271
M15
G01X86482Y-76271
M16
G05
G00X75609Y-34201
M15
G01X75609Y-33201
M16
G05
G00X79289Y-27131
M15
G01X80289Y-27131
M16
G05
G00X80289Y-40271
M15
G01X79289Y-40271
M16
G05
G00X92835Y-70201
M15
G01X92835Y-69201
M16
G05
G00X96515Y-63131
M15
G01X97515Y-63131
M16
G05
G00X97515Y-76271
M15
G01X96515Y-76271
M16
G05
G00X72769Y-70201
M15
G01X72769Y-69201
M16
G05
G00X76449Y-63131
M15
G01X77449Y-63131
M16
G05
G00X77449Y-76271
M15
G01X76449Y-76271
M16
G05
G00X105835Y-34201
M15
G01X105835Y-33201
M16
G05
G00X109515Y-27131
M15
G01X110515Y-27131
M16
G05
G00X110515Y-40271
M15
G01X109515Y-40271
M16
G05
G00X85769Y-34201
M15
G01X85769Y-33201
M16
G05
G00X89449Y-27131
M15
G01X90449Y-27131
M16
G05
G00X90449Y-40271
M15
G01X89449Y-40271
M16
G05
G00X95802Y-34201
M15
G01X95802Y-33201
M16
G05
G00X99482Y-27131
M15
G01X100482Y-27131
M16
G05
G00X100482Y-40271
M15
G01X99482Y-40271
M16
G05
G00X62609Y-70201
M15
G01X62609Y-69201
M16
G05
G00X66289Y-63131
M15
G01X67289Y-63131
M16
G05
G00X67289Y-76271
M15
G01X66289Y-76271
M16
G05
T0
M30
