%TF.GenerationSoftware,KiCad,Pcbnew,(5.1.7)-1*%
%TF.CreationDate,2020-12-15T13:18:26+01:00*%
%TF.ProjectId,panel_my_little_poly_v01,70616e65-6c5f-46d7-995f-6c6974746c65,rev?*%
%TF.SameCoordinates,Original*%
%TF.FileFunction,Legend,Top*%
%TF.FilePolarity,Positive*%
%FSLAX46Y46*%
G04 Gerber Fmt 4.6, Leading zero omitted, Abs format (unit mm)*
G04 Created by KiCad (PCBNEW (5.1.7)-1) date 2020-12-15 13:18:26*
%MOMM*%
%LPD*%
G01*
G04 APERTURE LIST*
%ADD10C,0.150000*%
%ADD11C,0.120000*%
%ADD12C,0.250000*%
G04 APERTURE END LIST*
D10*
X34654761Y-63452380D02*
X34654761Y-62785714D01*
X34654761Y-62880952D02*
X34702380Y-62833333D01*
X34797619Y-62785714D01*
X34940476Y-62785714D01*
X35035714Y-62833333D01*
X35083333Y-62928571D01*
X35083333Y-63452380D01*
X35083333Y-62928571D02*
X35130952Y-62833333D01*
X35226190Y-62785714D01*
X35369047Y-62785714D01*
X35464285Y-62833333D01*
X35511904Y-62928571D01*
X35511904Y-63452380D01*
X36416666Y-63452380D02*
X36416666Y-62928571D01*
X36369047Y-62833333D01*
X36273809Y-62785714D01*
X36083333Y-62785714D01*
X35988095Y-62833333D01*
X36416666Y-63404761D02*
X36321428Y-63452380D01*
X36083333Y-63452380D01*
X35988095Y-63404761D01*
X35940476Y-63309523D01*
X35940476Y-63214285D01*
X35988095Y-63119047D01*
X36083333Y-63071428D01*
X36321428Y-63071428D01*
X36416666Y-63023809D01*
X36797619Y-62785714D02*
X37321428Y-62785714D01*
X36797619Y-63452380D01*
X37321428Y-63452380D01*
X37607142Y-62785714D02*
X38130952Y-62785714D01*
X37607142Y-63452380D01*
X38130952Y-63452380D01*
X38654761Y-63452380D02*
X38559523Y-63404761D01*
X38511904Y-63357142D01*
X38464285Y-63261904D01*
X38464285Y-62976190D01*
X38511904Y-62880952D01*
X38559523Y-62833333D01*
X38654761Y-62785714D01*
X38797619Y-62785714D01*
X38892857Y-62833333D01*
X38940476Y-62880952D01*
X38988095Y-62976190D01*
X38988095Y-63261904D01*
X38940476Y-63357142D01*
X38892857Y-63404761D01*
X38797619Y-63452380D01*
X38654761Y-63452380D01*
X39559523Y-63452380D02*
X39464285Y-63404761D01*
X39416666Y-63357142D01*
X39369047Y-63261904D01*
X39369047Y-62976190D01*
X39416666Y-62880952D01*
X39464285Y-62833333D01*
X39559523Y-62785714D01*
X39702380Y-62785714D01*
X39797619Y-62833333D01*
X39845238Y-62880952D01*
X39892857Y-62976190D01*
X39892857Y-63261904D01*
X39845238Y-63357142D01*
X39797619Y-63404761D01*
X39702380Y-63452380D01*
X39559523Y-63452380D01*
D11*
X65289803Y-30900000D02*
G75*
G03*
X65289803Y-30900000I-89803J0D01*
G01*
D12*
X47685194Y-33454568D02*
X47281133Y-33858629D01*
X47483164Y-33656599D02*
X46776057Y-32949492D01*
X46809729Y-33117851D01*
X46809729Y-33252538D01*
X46776057Y-33353553D01*
X47920896Y-33151522D02*
X48055583Y-33084179D01*
X48223942Y-32915820D01*
X48257614Y-32814805D01*
X48257614Y-32747461D01*
X48223942Y-32646446D01*
X48156599Y-32579103D01*
X48055583Y-32545431D01*
X47988240Y-32545431D01*
X47887225Y-32579103D01*
X47718866Y-32680118D01*
X47617851Y-32713790D01*
X47550507Y-32713790D01*
X47449492Y-32680118D01*
X47382148Y-32612774D01*
X47348477Y-32511759D01*
X47348477Y-32444416D01*
X47382148Y-32343400D01*
X47550507Y-32175042D01*
X47685194Y-32107698D01*
D11*
X66699303Y-35423000D02*
G75*
G03*
X66699303Y-35423000I-89803J0D01*
G01*
X52289803Y-66900000D02*
G75*
G03*
X52289803Y-66900000I-89803J0D01*
G01*
D12*
X34685194Y-69454568D02*
X34281133Y-69858629D01*
X34483164Y-69656599D02*
X33776057Y-68949492D01*
X33809729Y-69117851D01*
X33809729Y-69252538D01*
X33776057Y-69353553D01*
X34920896Y-69151522D02*
X35055583Y-69084179D01*
X35223942Y-68915820D01*
X35257614Y-68814805D01*
X35257614Y-68747461D01*
X35223942Y-68646446D01*
X35156599Y-68579103D01*
X35055583Y-68545431D01*
X34988240Y-68545431D01*
X34887225Y-68579103D01*
X34718866Y-68680118D01*
X34617851Y-68713790D01*
X34550507Y-68713790D01*
X34449492Y-68680118D01*
X34382148Y-68612774D01*
X34348477Y-68511759D01*
X34348477Y-68444416D01*
X34382148Y-68343400D01*
X34550507Y-68175042D01*
X34685194Y-68107698D01*
D11*
X53699303Y-71423000D02*
G75*
G03*
X53699303Y-71423000I-89803J0D01*
G01*
%TO.C,R108*%
X112378500Y-33899724D02*
X112378500Y-33390276D01*
X113423500Y-33899724D02*
X113423500Y-33390276D01*
%TO.C,R107*%
X102472500Y-31613724D02*
X102472500Y-31104276D01*
X103517500Y-31613724D02*
X103517500Y-31104276D01*
%TO.C,R106*%
X92439500Y-31613724D02*
X92439500Y-31104276D01*
X93484500Y-31613724D02*
X93484500Y-31104276D01*
%TO.C,R105*%
X82277500Y-31554724D02*
X82277500Y-31045276D01*
X83322500Y-31554724D02*
X83322500Y-31045276D01*
%TO.C,U102*%
X61212000Y-26068500D02*
X59262000Y-26068500D01*
X61212000Y-26068500D02*
X63162000Y-26068500D01*
X61212000Y-31188500D02*
X59262000Y-31188500D01*
X61212000Y-31188500D02*
X64662000Y-31188500D01*
%TO.C,R104*%
X55624724Y-27407500D02*
X55115276Y-27407500D01*
X55624724Y-28452500D02*
X55115276Y-28452500D01*
%TO.C,C108*%
X55223733Y-26916000D02*
X55516267Y-26916000D01*
X55223733Y-25896000D02*
X55516267Y-25896000D01*
%TO.C,C107*%
X102514000Y-35303252D02*
X102514000Y-34780748D01*
X103984000Y-35303252D02*
X103984000Y-34780748D01*
%TO.C,J105*%
X105715000Y-40401000D02*
X105715000Y-35451000D01*
X105715000Y-40401000D02*
X108315000Y-40401000D01*
X105715000Y-27001000D02*
X108315000Y-27001000D01*
X105715000Y-27001000D02*
X105715000Y-31951000D01*
X111715000Y-27001000D02*
X111715000Y-40401000D01*
%TO.C,J104*%
X95682000Y-40401000D02*
X95682000Y-35451000D01*
X95682000Y-40401000D02*
X98282000Y-40401000D01*
X95682000Y-27001000D02*
X98282000Y-27001000D01*
X95682000Y-27001000D02*
X95682000Y-31951000D01*
X101682000Y-27001000D02*
X101682000Y-40401000D01*
%TO.C,J103*%
X85649000Y-40401000D02*
X85649000Y-35451000D01*
X85649000Y-40401000D02*
X88249000Y-40401000D01*
X85649000Y-27001000D02*
X88249000Y-27001000D01*
X85649000Y-27001000D02*
X85649000Y-31951000D01*
X91649000Y-27001000D02*
X91649000Y-40401000D01*
%TO.C,J102*%
X75489000Y-40401000D02*
X75489000Y-35451000D01*
X75489000Y-40401000D02*
X78089000Y-40401000D01*
X75489000Y-27001000D02*
X78089000Y-27001000D01*
X75489000Y-27001000D02*
X75489000Y-31951000D01*
X81489000Y-27001000D02*
X81489000Y-40401000D01*
%TO.C,C106*%
X70756267Y-29075000D02*
X70463733Y-29075000D01*
X70756267Y-28055000D02*
X70463733Y-28055000D01*
%TO.C,L101*%
X68065000Y-40244000D02*
X63757000Y-40244000D01*
X63757000Y-35936000D02*
X68065000Y-35936000D01*
%TO.C,U101*%
X69965000Y-32917000D02*
X69965000Y-31942000D01*
X66715000Y-35192000D02*
X66715000Y-34217000D01*
X66715000Y-32917000D02*
X66715000Y-31942000D01*
X69965000Y-35192000D02*
X69965000Y-34217000D01*
X66940000Y-31942000D02*
X66715000Y-31942000D01*
X69740000Y-31942000D02*
X69965000Y-31942000D01*
X69965000Y-35192000D02*
X69740000Y-35192000D01*
%TO.C,R103*%
X71626724Y-38358500D02*
X71117276Y-38358500D01*
X71626724Y-37313500D02*
X71117276Y-37313500D01*
%TO.C,R102*%
X67308724Y-30738500D02*
X66799276Y-30738500D01*
X67308724Y-29693500D02*
X66799276Y-29693500D01*
%TO.C,R101*%
X70864724Y-30738500D02*
X70355276Y-30738500D01*
X70864724Y-29693500D02*
X70355276Y-29693500D01*
%TO.C,J101*%
X47056000Y-37862000D02*
X49906000Y-40462000D01*
X49906000Y-32162000D02*
X47056000Y-34712000D01*
X62756000Y-40462000D02*
X62756000Y-32162000D01*
X49906000Y-40462000D02*
X62756000Y-40462000D01*
X47056000Y-34712000D02*
X47056000Y-37862000D01*
X62756000Y-32162000D02*
X49906000Y-32162000D01*
%TO.C,C105*%
X72114733Y-31484000D02*
X72407267Y-31484000D01*
X72114733Y-32504000D02*
X72407267Y-32504000D01*
%TO.C,C104*%
X92481000Y-35303252D02*
X92481000Y-34780748D01*
X93951000Y-35303252D02*
X93951000Y-34780748D01*
%TO.C,C103*%
X82321000Y-35303252D02*
X82321000Y-34780748D01*
X83791000Y-35303252D02*
X83791000Y-34780748D01*
%TO.C,C102*%
X70891000Y-35303252D02*
X70891000Y-34780748D01*
X72361000Y-35303252D02*
X72361000Y-34780748D01*
%TO.C,C101*%
X65757000Y-33510748D02*
X65757000Y-34033252D01*
X64287000Y-33510748D02*
X64287000Y-34033252D01*
%TO.C,R108*%
X99378500Y-69899724D02*
X99378500Y-69390276D01*
X100423500Y-69899724D02*
X100423500Y-69390276D01*
%TO.C,R107*%
X89472500Y-67613724D02*
X89472500Y-67104276D01*
X90517500Y-67613724D02*
X90517500Y-67104276D01*
%TO.C,R106*%
X79439500Y-67613724D02*
X79439500Y-67104276D01*
X80484500Y-67613724D02*
X80484500Y-67104276D01*
%TO.C,R105*%
X69277500Y-67554724D02*
X69277500Y-67045276D01*
X70322500Y-67554724D02*
X70322500Y-67045276D01*
%TO.C,U102*%
X48212000Y-62068500D02*
X46262000Y-62068500D01*
X48212000Y-62068500D02*
X50162000Y-62068500D01*
X48212000Y-67188500D02*
X46262000Y-67188500D01*
X48212000Y-67188500D02*
X51662000Y-67188500D01*
%TO.C,R104*%
X42624724Y-63407500D02*
X42115276Y-63407500D01*
X42624724Y-64452500D02*
X42115276Y-64452500D01*
%TO.C,C108*%
X42223733Y-62916000D02*
X42516267Y-62916000D01*
X42223733Y-61896000D02*
X42516267Y-61896000D01*
%TO.C,C107*%
X89514000Y-71303252D02*
X89514000Y-70780748D01*
X90984000Y-71303252D02*
X90984000Y-70780748D01*
%TO.C,J105*%
X92715000Y-76401000D02*
X92715000Y-71451000D01*
X92715000Y-76401000D02*
X95315000Y-76401000D01*
X92715000Y-63001000D02*
X95315000Y-63001000D01*
X92715000Y-63001000D02*
X92715000Y-67951000D01*
X98715000Y-63001000D02*
X98715000Y-76401000D01*
%TO.C,J104*%
X82682000Y-76401000D02*
X82682000Y-71451000D01*
X82682000Y-76401000D02*
X85282000Y-76401000D01*
X82682000Y-63001000D02*
X85282000Y-63001000D01*
X82682000Y-63001000D02*
X82682000Y-67951000D01*
X88682000Y-63001000D02*
X88682000Y-76401000D01*
%TO.C,J103*%
X72649000Y-76401000D02*
X72649000Y-71451000D01*
X72649000Y-76401000D02*
X75249000Y-76401000D01*
X72649000Y-63001000D02*
X75249000Y-63001000D01*
X72649000Y-63001000D02*
X72649000Y-67951000D01*
X78649000Y-63001000D02*
X78649000Y-76401000D01*
%TO.C,J102*%
X62489000Y-76401000D02*
X62489000Y-71451000D01*
X62489000Y-76401000D02*
X65089000Y-76401000D01*
X62489000Y-63001000D02*
X65089000Y-63001000D01*
X62489000Y-63001000D02*
X62489000Y-67951000D01*
X68489000Y-63001000D02*
X68489000Y-76401000D01*
%TO.C,C106*%
X57756267Y-65075000D02*
X57463733Y-65075000D01*
X57756267Y-64055000D02*
X57463733Y-64055000D01*
%TO.C,L101*%
X55065000Y-76244000D02*
X50757000Y-76244000D01*
X50757000Y-71936000D02*
X55065000Y-71936000D01*
%TO.C,U101*%
X56965000Y-68917000D02*
X56965000Y-67942000D01*
X53715000Y-71192000D02*
X53715000Y-70217000D01*
X53715000Y-68917000D02*
X53715000Y-67942000D01*
X56965000Y-71192000D02*
X56965000Y-70217000D01*
X53940000Y-67942000D02*
X53715000Y-67942000D01*
X56740000Y-67942000D02*
X56965000Y-67942000D01*
X56965000Y-71192000D02*
X56740000Y-71192000D01*
%TO.C,R103*%
X58626724Y-74358500D02*
X58117276Y-74358500D01*
X58626724Y-73313500D02*
X58117276Y-73313500D01*
%TO.C,R102*%
X54308724Y-66738500D02*
X53799276Y-66738500D01*
X54308724Y-65693500D02*
X53799276Y-65693500D01*
%TO.C,R101*%
X57864724Y-66738500D02*
X57355276Y-66738500D01*
X57864724Y-65693500D02*
X57355276Y-65693500D01*
%TO.C,J101*%
X34056000Y-73862000D02*
X36906000Y-76462000D01*
X36906000Y-68162000D02*
X34056000Y-70712000D01*
X49756000Y-76462000D02*
X49756000Y-68162000D01*
X36906000Y-76462000D02*
X49756000Y-76462000D01*
X34056000Y-70712000D02*
X34056000Y-73862000D01*
X49756000Y-68162000D02*
X36906000Y-68162000D01*
%TO.C,C105*%
X59114733Y-67484000D02*
X59407267Y-67484000D01*
X59114733Y-68504000D02*
X59407267Y-68504000D01*
%TO.C,C104*%
X79481000Y-71303252D02*
X79481000Y-70780748D01*
X80951000Y-71303252D02*
X80951000Y-70780748D01*
%TO.C,C103*%
X69321000Y-71303252D02*
X69321000Y-70780748D01*
X70791000Y-71303252D02*
X70791000Y-70780748D01*
%TO.C,C102*%
X57891000Y-71303252D02*
X57891000Y-70780748D01*
X59361000Y-71303252D02*
X59361000Y-70780748D01*
%TO.C,C101*%
X52757000Y-69510748D02*
X52757000Y-70033252D01*
X51287000Y-69510748D02*
X51287000Y-70033252D01*
%TD*%
M02*
